<svg xmlns="http://www.w3.org/2000/svg" viewBox="0 0 23.59 21.5"><defs><style>.cls-1{fill:#7384c9;stroke:#7384c9;stroke-miterlimit:10;stroke-width:0.5px;}</style></defs><g id="Layer_2" data-name="Layer 2"><g id="Layer_1-2" data-name="Layer 1"><path class="cls-1" d="M23.34,11.61a5.59,5.59,0,0,0-1.1-3.23,5.58,5.58,0,0,0-2.87-2,5.58,5.58,0,0,0-6.2,2.14c-.08.11-.16.23-.23.35a5.55,5.55,0,0,0-.79,3A5.58,5.58,0,0,0,15.85,17a5.6,5.6,0,0,0,6.21-1.71c.09-.11.18-.22.26-.34h0A5.51,5.51,0,0,0,23.34,11.61ZM20.6,7.67a5,5,0,0,1,.7.6,4.69,4.69,0,0,1-1-.13,5,5,0,0,1-.47-.93A5.43,5.43,0,0,1,20.6,7.67ZM16.35,7a4.8,4.8,0,0,1,1.4-.21A5,5,0,0,1,19,6.93a6.34,6.34,0,0,0,.66,1.49l-.7,1a6,6,0,0,0-2.56,0l-.63-.75A6.31,6.31,0,0,0,16.35,7Zm3.35,5.34a5.67,5.67,0,0,1-1.93,1.45,4.05,4.05,0,0,1-1.95-1.38,5,5,0,0,1,.71-2.3,5.07,5.07,0,0,1,2.39,0A5.1,5.1,0,0,1,19.7,12.31ZM15.64,7.23a5.35,5.35,0,0,1-.46,1.23,5.15,5.15,0,0,1-1.37.24A5,5,0,0,1,15.64,7.23Zm-2.08,7.14a4.91,4.91,0,0,1-.72-1.93,5.72,5.72,0,0,1,.88.75A5.2,5.2,0,0,1,13.56,14.37Zm-.77-2.72a5,5,0,0,1,.6-2.3h.15a6.11,6.11,0,0,0,1.75-.25l.63.74a5.87,5.87,0,0,0-.74,2.43l-1,.42A6.14,6.14,0,0,0,12.79,11.65Zm2.1,4.12A5.13,5.13,0,0,1,14,15a6.34,6.34,0,0,0,.32-1.72l1-.41a4.76,4.76,0,0,0,2.06,1.45l0,1.1a6.17,6.17,0,0,0-1.51.89A5,5,0,0,1,14.89,15.77Zm1.77.79A5.15,5.15,0,0,1,17.71,16a5.62,5.62,0,0,1,1,.58A5.11,5.11,0,0,1,16.66,16.56Zm2.82-.2a6,6,0,0,0-1.43-.91l0-1.13a6.26,6.26,0,0,0,2-1.52l.92.35a6.33,6.33,0,0,0,.4,1.87A4.84,4.84,0,0,1,19.48,16.36Zm1.78-3.82-.93-.34a5.73,5.73,0,0,0-.83-2.42l.7-1a6.17,6.17,0,0,0,1.26.13h.36a4.83,4.83,0,0,1,.87,2.52A6.14,6.14,0,0,0,21.26,12.54Zm.65,1.86A5,5,0,0,1,21.68,13a5,5,0,0,1,1-.85A5,5,0,0,1,21.91,14.4Z"/><path class="cls-1" d="M10.71,6.43l.13,0a.31.31,0,0,0,.29-.2L13.46.7a.33.33,0,0,0-.17-.43.32.32,0,0,0-.42.18l-1,2.39L6.72,1.59,6.93.64A.32.32,0,0,0,6.3.5L4.61,8.16a.29.29,0,0,0-.2.05L2,9.85l-.05,0-.49.49h0L.34,11.45a.31.31,0,0,0-.09.22.32.32,0,0,0,.09.23l.42.41-.39.39a.34.34,0,0,0,0,.46.33.33,0,0,0,.23.09.31.31,0,0,0,.22-.09l.39-.39L2.47,14l-.39.39a.31.31,0,0,0,0,.45.29.29,0,0,0,.23.1.28.28,0,0,0,.22-.1l.39-.38,1.26,1.25-.39.39a.31.31,0,0,0,0,.45.32.32,0,0,0,.22.1.33.33,0,0,0,.23-.1l.39-.39,1.25,1.26-.38.39a.32.32,0,0,0,.22.54A.32.32,0,0,0,6,18.28l.39-.39.84.85.42.4-.4.39a.34.34,0,0,0,0,.46.35.35,0,0,0,.23.09A.33.33,0,0,0,7.66,20l.43-.44a9.7,9.7,0,0,0,1.37.95l-.17.25a.32.32,0,0,0,.09.45.41.41,0,0,0,.18.05.32.32,0,0,0,.27-.15l.21-.32a3,3,0,0,0,1.1.25,1.51,1.51,0,0,0,.63-.13.18.18,0,0,0,.09-.06l.7-.7,0,0a1.15,1.15,0,0,0,.2-.84,4.78,4.78,0,0,0-2-2.76L10.64,16a.32.32,0,0,0-.61.19l.19.59a.25.25,0,0,0,.1.15c1.43,1.16,1.76,1.94,1.81,2.36-1,0-2.4-1.07-3.43-2.1l-4-4a.33.33,0,0,0-.45,0,.31.31,0,0,0,0,.45l4,4c.23.23,2.05,2,3.61,2.27l-.4.4a2.45,2.45,0,0,1-1.8-.47,10.35,10.35,0,0,1-2-1.59L1,11.67l.61-.61L3.52,13a.37.37,0,0,0,.23.1A.34.34,0,0,0,4,13a.33.33,0,0,0,0-.45L2.09,10.61l.24-.24L4.41,9a7.09,7.09,0,0,0,1.5,2.36A2,2,0,0,0,8,11.85a3,3,0,0,0,.61-.25l.33,1-.4.07a.32.32,0,0,0,.06.64h0l.48-.08.05.16-.38.07a.31.31,0,0,0-.25.37.3.3,0,0,0,.31.26h.06L9.34,14l.05.16-.4.08a.32.32,0,0,0-.26.37.33.33,0,0,0,.32.26h.06l.47-.09.18.55a.32.32,0,0,0,.4.21.33.33,0,0,0,.21-.41l-.15-.47a.32.32,0,0,0-.13-.63H10l0-.15h0a.31.31,0,0,0,.25-.37.32.32,0,0,0-.37-.26l-.09,0,0-.15H9.8a.32.32,0,0,0-.11-.64l-.15,0-.45-1.41,1.63-3.89a.32.32,0,0,0-.17-.42.32.32,0,0,0-.42.18L8.49,10.9a1.63,1.63,0,0,1-2.12,0A6.29,6.29,0,0,1,5.09,8.94L6.18,4l.38.13c.87.26,2.33.57,4.35.94l-.37.9A.32.32,0,0,0,10.71,6.43Zm-4.39-3,.26-1.19,5,1.22-.44,1.07A31.37,31.37,0,0,1,6.32,3.41Z"/></g></g></svg>