<svg xmlns="http://www.w3.org/2000/svg" viewBox="0 0 23.72 23.6"><defs><style>.cls-1{fill:#7384c9;}</style></defs><g id="Layer_2" data-name="Layer 2"><g id="Layer_1-2" data-name="Layer 1"><path class="cls-1" d="M21.87,16.3a.56.56,0,0,0,.56-.55v-1h.73a.56.56,0,0,0,.56-.56V13a.56.56,0,0,0-.56-.56h-1V8.58a1.39,1.39,0,0,0,.3,0,1.24,1.24,0,0,0,.33,0A1.3,1.3,0,0,0,23.55,8a1.24,1.24,0,0,0,.12-1,1.18,1.18,0,0,0-.58-.76L12.53.17A1.33,1.33,0,0,0,11.86,0a1.4,1.4,0,0,0-.68.17L.63,6.27a1.26,1.26,0,0,0,.3,2.3,1.23,1.23,0,0,0,.63,0V12.4h-1A.56.56,0,0,0,0,13v1.27a.56.56,0,0,0,.56.56h.73v1a.55.55,0,0,0,.55.55h.42v3.39H1.84a.56.56,0,0,0-.55.56v1H.56a.56.56,0,0,0-.56.56V23a.56.56,0,0,0,.56.56H11.13a.35.35,0,1,0,0-.7H.7v-1H23v1H12.74a.35.35,0,0,0,0,.7H23.16a.56.56,0,0,0,.56-.56V21.77a.56.56,0,0,0-.56-.56h-.73v-1a.56.56,0,0,0-.56-.56h-.41V16.3ZM1.54,7.84a.54.54,0,0,1-.43.06.59.59,0,0,1-.34-.26h0A.56.56,0,0,1,1,6.87L11.53.77a.72.72,0,0,1,.66,0l10.55,6.1a.53.53,0,0,1,.26.34.55.55,0,0,1-.39.69.54.54,0,0,1-.43-.06L12,2a.26.26,0,0,0-.17-.05.31.31,0,0,0-.18.05ZM.7,13.09H11.13a.35.35,0,0,0,.35-.35.34.34,0,0,0-.35-.34H2.26V8.23l9.6-5.54,9.6,5.54V12.4H12.68a.35.35,0,0,0-.35.34.35.35,0,0,0,.35.35H23v1H.7Zm9,2.52v-.82H14v.82ZM13,16.3v3.39H10.68V16.3ZM2,15.61v-.82H6.29v.82Zm3.34.69v3.39H3V16.3Zm1,4.91H2v-.82H6.29Zm2.72-1v1H7v-1a.56.56,0,0,0-.56-.56H6V16.3h.42A.56.56,0,0,0,7,15.75v-1H9v1a.55.55,0,0,0,.55.55H10v3.39H9.56A.56.56,0,0,0,9,20.25Zm5,1H9.7v-.82H14Zm2.72-1v1h-2v-1a.56.56,0,0,0-.56-.56h-.42V16.3h.42a.56.56,0,0,0,.56-.55v-1h2v1a.56.56,0,0,0,.56.55h.41v3.39h-.41A.56.56,0,0,0,16.73,20.25Zm5,.14v.82h-4.3v-.82Zm-3.33-.7V16.3h2.36v3.39Zm-1-4.08v-.82h4.3v.82Z"/><path class="cls-1" d="M13.37,5.45a1.46,1.46,0,1,0-1.46,1.46A1.47,1.47,0,0,0,13.37,5.45Zm-2.22,0a.76.76,0,1,1,1.52,0,.76.76,0,1,1-1.52,0Z"/><path class="cls-1" d="M7.67,9.45a1,1,0,0,0,.15-.52,1,1,0,0,0-1-1H6.07a.35.35,0,0,0-.35.35V9.55h0V11a.35.35,0,0,0,.1.24.36.36,0,0,0,.25.11H7a1.07,1.07,0,0,0,.68-1.9Zm-.82-.79a.27.27,0,0,1,0,.54H6.41V8.66Zm.14,2H6.41V9.9H7a.38.38,0,0,1,0,.76Z"/><path class="cls-1" d="M10.47,8.22h0A.4.4,0,0,0,10.09,8h0a.41.41,0,0,0-.38.26h0l-1,2.66a.35.35,0,0,0,.65.25l.16-.44h1.15l.17.44a.34.34,0,0,0,.32.23l.12,0a.35.35,0,0,0,.21-.44ZM9.78,10l.31-.82.31.82Z"/><path class="cls-1" d="M14.43,8h0a.35.35,0,0,0-.34.35V9.92l-1.25-1.8A.34.34,0,0,0,12.47,8a.35.35,0,0,0-.25.33V11a.35.35,0,0,0,.7,0V9.43l1.18,1.72a.39.39,0,0,0,.44.16.41.41,0,0,0,.27-.4l0-2.6A.35.35,0,0,0,14.43,8Z"/><path class="cls-1" d="M18,10.76,16.76,9.59l1.11-1a.35.35,0,0,0,0-.49.34.34,0,0,0-.49,0l-.89.82V8.28a.35.35,0,1,0-.69,0V11a.35.35,0,1,0,.69,0v-.7l1,.95a.37.37,0,0,0,.24.1.36.36,0,0,0,.25-.11.35.35,0,0,0,0-.49Z"/></g></g></svg>