<svg xmlns="http://www.w3.org/2000/svg" viewBox="0 0 18.89 23.17"><defs><style>.cls-1{fill:#7384c9;}</style></defs><g id="Layer_2" data-name="Layer 2"><g id="Layer_1-2" data-name="Layer 1"><path class="cls-1" d="M0,6.55a7.92,7.92,0,0,1,1.13-4.5A4.92,4.92,0,0,1,4.6,0,.92.92,0,0,1,5.66.69q.87,2.49,1.7,5A1,1,0,0,1,6.71,7c-.37.16-.76.27-1.14.42a1.93,1.93,0,0,0-1.3,2.41,12.13,12.13,0,0,0,1.86,4A17.07,17.07,0,0,0,8,16.32c1.1,1.18,2.09,1.17,3.31.11.23-.2.46-.42.7-.6a1,1,0,0,1,1.42.08q1.79,1.93,3.54,3.9a1,1,0,0,1-.06,1.45,5.1,5.1,0,0,1-6.09,1.48,12.66,12.66,0,0,1-4.95-3.47A21.63,21.63,0,0,1,.12,7.88C0,7.36,0,6.82,0,6.55Z"/><path class="cls-1" d="M18.89,12.4c0,.5-.08,1-.14,1.5s-.37.88-.81.84-.73-.42-.65-1a9.68,9.68,0,0,0-6-10.3,4.25,4.25,0,0,1-.49-.21.69.69,0,0,1-.3-.89.68.68,0,0,1,.82-.45,2.64,2.64,0,0,1,.6.2A11.19,11.19,0,0,1,18.89,12.4Z"/><path class="cls-1" d="M14.93,12.3a5.61,5.61,0,0,1,0,.58.75.75,0,0,1-.78.76.73.73,0,0,1-.7-.83,5.85,5.85,0,0,0-.73-3.23,5.67,5.67,0,0,0-2.43-2.32c-.58-.3-.77-.68-.55-1.11s.65-.52,1.23-.21A7.11,7.11,0,0,1,14.93,12.3Z"/></g></g></svg>