<svg xmlns="http://www.w3.org/2000/svg" viewBox="0 0 8.45 16.01"><defs><style>.cls-1{fill:#7384c9;}</style></defs><g id="Layer_2" data-name="Layer 2"><g id="Layer_1-2" data-name="Layer 1"><path class="cls-1" d="M8.45,7.06,8.24,8.69a.53.53,0,0,1-.53.47H5.07V16c-.28,0-.56,0-.85,0a9.44,9.44,0,0,1-1.85-.19V9.16h-2A.34.34,0,0,1,0,8.82v-2a.34.34,0,0,1,.34-.34h2V3.39A3.38,3.38,0,0,1,5.75,0H8.11a.34.34,0,0,1,.34.34v2a.34.34,0,0,1-.34.33H6.42A1.35,1.35,0,0,0,5.07,4.07V6.45H7.91A.54.54,0,0,1,8.45,7.06Z"/></g></g>
</svg>