<svg xmlns="http://www.w3.org/2000/svg" viewBox="0 0 25.42 24.56"><defs><style>.cls-1{fill:#7384c9;}</style></defs><g id="Layer_2" data-name="Layer 2"><g id="Layer_1-2" data-name="Layer 1"><path class="cls-1" d="M3,14.79a.43.43,0,0,0-.43.43.44.44,0,0,0,.43.43.43.43,0,0,0,.43-.43A.43.43,0,0,0,3,14.79Z"/><path class="cls-1" d="M3,16.5a.43.43,0,0,0-.43.43v2.82a.43.43,0,0,0,.43.43.43.43,0,0,0,.43-.43V16.93A.43.43,0,0,0,3,16.5Z"/><path class="cls-1" d="M20,24.56a5.44,5.44,0,1,1,5.44-5.43A5.44,5.44,0,0,1,20,24.56Zm0-10.18a4.75,4.75,0,1,0,4.74,4.75A4.75,4.75,0,0,0,20,14.38Z"/><path class="cls-1" d="M22.88,18.28l-3.06,3.21a.86.86,0,0,1-.64.28h0a.91.91,0,0,1-.64-.27l-1.62-1.67a.9.9,0,0,1,1.27-1.27v0l1,1L21.58,17a.9.9,0,0,1,1.27,0,.91.91,0,0,1,0,1.27Z"/><path class="cls-1" d="M15.16,21H13.08V9.93l1.34,2.66a.45.45,0,0,0,.39.23.43.43,0,0,0,.41-.32l.51-1.92,1.93.52a.43.43,0,0,0,.45-.67L16.74,8.55h3.44v5.52A6,6,0,0,1,21,14V8.55h.43a.43.43,0,0,0,.43-.43V4.7A1.29,1.29,0,0,0,20.6,3.42H19.22c0-1.63-.7-3.42-2.29-3.42a2.23,2.23,0,0,0-1.48.58h0L13.2,2.32a2.71,2.71,0,0,0-1.83-.61,2.78,2.78,0,0,0-1.76.55L7.27.45A2.06,2.06,0,0,0,6,0C4.37,0,3.68,1.8,3.68,3.42H1.28A1.29,1.29,0,0,0,0,4.7V8.12a.43.43,0,0,0,.43.43H.85V20.6a1.29,1.29,0,0,0,1.29,1.29H15.32A6.21,6.21,0,0,1,15.16,21ZM20.6,4.27A.43.43,0,0,1,21,4.7v3H16.12L14.87,6l.74.44a2.22,2.22,0,0,0,1.82.37c.89-.2,1.53-1.15,1.73-2.51ZM16,1.26a1.36,1.36,0,0,1,1-.41c1.15,0,1.5,1.81,1.42,3s-.53,2-1.11,2.14a1.43,1.43,0,0,1-1.18-.27l-2.22-1.3,0-.11h1.35a.43.43,0,1,0,0-.85H13.87A2.16,2.16,0,0,0,13.73,3Zm-2.66,4L16.71,10l-1.17-.31a.4.4,0,0,0-.32,0A.41.41,0,0,0,15,10l-.34,1.25L12,5.93A2.44,2.44,0,0,0,13.31,5.28ZM11.37,2.56c1.15,0,1.69.65,1.69,1.29s-.54,1.27-1.67,1.28h0c-1.15,0-1.67-.66-1.67-1.28S10.23,2.56,11.37,2.56Zm-.64,3.36L8.06,11.2,7.72,10a.41.41,0,0,0-.52-.3L6.05,10,9.48,5.33A2.43,2.43,0,0,0,10.73,5.92ZM6,.85a1.32,1.32,0,0,1,.79.27L9.06,2.91a1.84,1.84,0,0,0-.19.51H7.52a.43.43,0,0,0,0,.85H8.87a.78.78,0,0,0,.05.18L6.83,5.68h0A1.41,1.41,0,0,1,5.66,6c-.58-.13-1-1-1.11-2.14S4.81.85,6,.85ZM.85,7.69v-3a.44.44,0,0,1,.43-.43H3.74c.19,1.36.83,2.31,1.73,2.51,1.09.25,1.67-.33,2.4-.72L6.66,7.69ZM9.66,21H2.14a.43.43,0,0,1-.43-.43v-12H6L4.63,10.43a.43.43,0,0,0,.45.67L7,10.58l.51,1.92a.44.44,0,0,0,.37.32.42.42,0,0,0,.43-.23L9.66,9.93Zm2.57,0H10.52V8.23l.85-1.69.86,1.69Z"/></g></g></svg>