<svg xmlns="http://www.w3.org/2000/svg" viewBox="0 0 131.51 16.6"><defs><style>.cls-1{fill:#646e87;}</style></defs><g id="Layer_2" data-name="Layer 2"><g id="Layer_1-2" data-name="Layer 1"><path class="cls-1" d="M0,.11H6.25c3.74,0,5.69,2.39,5.69,6.43,0,3.62-1.88,6.42-5.48,6.42H0ZM1.33,11.74H6.19c2.31,0,4.31-1.26,4.31-5.2,0-3.41-1.34-5.21-4.31-5.21H1.33Z"/><path class="cls-1" d="M21.8,11.13h0a4,4,0,0,1-3.87,2.12c-3.09,0-4.05-1.62-4.05-3.85V3.6h1.33v6c0,1.86,1.12,2.51,2.83,2.51,2.61,0,3.8-1.32,3.8-3.46V3.6h1.33l0,9.36H21.82Z"/><path class="cls-1" d="M32.83,3.6h1.44L29.2,14.71c-.67,1.48-1.28,1.89-2.74,1.89h-.65c-.21,0-.43,0-.63,0V15.45c.29,0,.6,0,1,0A1.68,1.68,0,0,0,28,14.33L28.6,13,24.07,3.6h1.42l3.81,7.8Z"/><path class="cls-1" d="M43.15,11.13h0a4,4,0,0,1-3.87,2.12c-3.1,0-4.05-1.62-4.05-3.85V3.6h1.33v6c0,1.86,1.12,2.51,2.83,2.51,2.61,0,3.8-1.32,3.8-3.46V3.6h1.33l0,9.36H43.17Z"/><path class="cls-1" d="M46.53,3.6h1.33V5.74h0a3.63,3.63,0,0,1,3.58-2.43,3.12,3.12,0,0,1,.79.07V4.75a7.34,7.34,0,0,0-1.22-.1c-1.44,0-3.19.88-3.19,3.54l0,4.77H46.55Z"/><path class="cls-1" d="M61.15,11.13h0a4,4,0,0,1-3.87,2.12c-3.1,0-4.05-1.62-4.05-3.85V3.6h1.33v6c0,1.86,1.12,2.51,2.83,2.51,2.61,0,3.8-1.32,3.8-3.46V3.6h1.33l0,9.36H61.17Z"/><path class="cls-1" d="M64.49,0h1.34V13H64.51Z"/><path class="cls-1" d="M67.77,6.48c.2-2,1.26-3.17,4.46-3.17s4.29,1,4.29,2.78V11c0,.78.22,1,.74,1,.23,0,.47,0,.7,0v.9a5.15,5.15,0,0,1-1.12.15c-1.35,0-1.44-.92-1.44-1.66h0C75,12,74.05,13.25,71,13.25c-1.6,0-3.64-.7-3.64-2.81C67.35,7.92,70,7.6,72,7.51c2.93-.15,3.27-.33,3.27-1.24,0-1.37-.88-1.84-3.09-1.84S69.08,5,69,6.48Zm7.52,1.44c-.55.38-1.53.47-4.15.7-1.57.15-2.45.6-2.45,1.73,0,1.46,1.26,1.89,2.7,1.89,1.8,0,3.9-1,3.9-2.9Z"/><path class="cls-1" d="M78.84,3.6h1.33V5.74h0a3.63,3.63,0,0,1,3.58-2.43,3.12,3.12,0,0,1,.79.07V4.75a7.34,7.34,0,0,0-1.22-.1c-1.44,0-3.19.88-3.19,3.54l0,4.77H78.86Z"/><path class="cls-1" d="M113.47,13a.52.52,0,0,1-.35-.14l-3.47-3.47a1.61,1.61,0,0,1,0-2.28l3.47-3.46a.5.5,0,0,1,.71,0,.5.5,0,0,1,0,.7l-3.47,3.47a.6.6,0,0,0,0,.86l3.47,3.47a.51.51,0,0,1,0,.71A.54.54,0,0,1,113.47,13Z"/><path class="cls-1" d="M127.22,13a.5.5,0,0,1-.35-.85l3.46-3.47a.58.58,0,0,0,.18-.43.6.6,0,0,0-.18-.43l-3.46-3.47a.49.49,0,1,1,.7-.7L131,7.13a1.62,1.62,0,0,1,0,2.28l-3.47,3.47A.5.5,0,0,1,127.22,13Z"/></g></g></svg>