<svg xmlns="http://www.w3.org/2000/svg" viewBox="0 0 346.05 12.92"><defs><style>.cls-1{fill:#646e87;}</style></defs><g id="Layer_2" data-name="Layer 2"><g id="Layer_1-2" data-name="Layer 1"><path class="cls-1" d="M0,.08H5.69c2,0,2.79,1.11,2.79,2.53A2.11,2.11,0,0,1,6.75,4.75v0A2.36,2.36,0,0,1,8.87,7.23c0,2.09-1.77,2.86-3.29,2.86H0ZM1,4.43h4.1c1.4,0,2.3-.45,2.3-1.78S6.63,1,5.49,1H1ZM1,9.14H5.39c1.34,0,2.36-.54,2.36-1.91s-.91-1.85-2.1-1.85H1Z"/><path class="cls-1" d="M10.23,0h1V1.54h-1Zm0,2.8h1v7.29h-1Z"/><path class="cls-1" d="M12.84,2.8h1V4.47h0a2.81,2.81,0,0,1,2.79-1.89,2.51,2.51,0,0,1,.62,0V3.7a5.36,5.36,0,0,0-1-.09,2.45,2.45,0,0,0-2.48,2.77l0,3.71h-1Z"/><path class="cls-1" d="M27.34,5c-.27-1.18-1-1.51-2.51-1.51-1.08,0-2.1.24-2.1,1.24,0,.75.5.91,2.7,1.21s3.15.69,3.15,2.1-1.16,2.31-3.46,2.31-3.68-.75-3.68-2.51h.95c.18,1.22.87,1.64,2.73,1.64,1.45,0,2.43-.29,2.43-1.38,0-.72-.52-1.05-2.79-1.28s-3.07-.75-3.07-2,1-2.16,3.14-2.16c2.35,0,3.35.85,3.46,2.38Z"/><path class="cls-1" d="M33.59,2.58a3.76,3.76,0,0,1,4.13,3.87,3.76,3.76,0,0,1-4.13,3.86,3.76,3.76,0,0,1-4.14-3.86A3.76,3.76,0,0,1,33.59,2.58Zm0,6.86a2.85,2.85,0,0,0,3.09-3,2.85,2.85,0,0,0-3.09-3,2.86,2.86,0,0,0-3.1,3A2.86,2.86,0,0,0,33.59,9.44Z"/><path class="cls-1" d="M45.26,5.39c0-1.45-.9-1.94-2.2-1.94-2,0-3,1-3,2.69l0,4h-1V2.8h1V4.23h0a3.16,3.16,0,0,1,3-1.65c2.41,0,3.16,1.26,3.16,3v4.51h-1Z"/><path class="cls-1" d="M47.89,2.8h1V4.47h0a2.81,2.81,0,0,1,2.79-1.89,2.38,2.38,0,0,1,.61,0V3.7a5.17,5.17,0,0,0-1-.09,2.45,2.45,0,0,0-2.48,2.77v3.71h-1Z"/><path class="cls-1" d="M53,5c.16-1.52,1-2.46,3.48-2.46s3.33.75,3.33,2.16V8.55c0,.6.17.81.58.81l.54,0V10a4.54,4.54,0,0,1-.87.11c-1,0-1.12-.71-1.12-1.28h0c-.33.47-1,1.45-3.41,1.45-1.25,0-2.83-.54-2.83-2.18,0-2,2-2.22,3.63-2.29,2.28-.11,2.55-.25,2.55-1,0-1.07-.69-1.43-2.41-1.43S54.05,3.87,54,5Zm5.86,1.13c-.43.29-1.19.36-3.24.54-1.22.11-1.9.46-1.9,1.35,0,1.13,1,1.47,2.1,1.47,1.4,0,3-.76,3-2.26Z"/><path class="cls-1" d="M61.64,0h1V6.35L67.12,2.8h1.54L65.09,5.56l3.85,4.53H67.57L64.32,6.23,62.68,7.48v2.61h-1Z"/><path class="cls-1" d="M69.65,0h1V1.54h-1Zm0,2.8h1l0,7.29h-1Z"/><path class="cls-1" d="M76.1,5c.15-1.52,1-2.46,3.48-2.46s3.33.75,3.33,2.16V8.55c0,.6.17.81.57.81a4.93,4.93,0,0,0,.55,0V10a4.54,4.54,0,0,1-.87.11c-1,0-1.12-.71-1.12-1.28h0c-.32.47-1,1.45-3.4,1.45-1.25,0-2.83-.54-2.83-2.18,0-2,2-2.22,3.63-2.29,2.28-.11,2.55-.25,2.55-1,0-1.07-.69-1.43-2.41-1.43s-2.43.42-2.5,1.59ZM82,6.17c-.44.29-1.19.36-3.24.54-1.22.11-1.9.46-1.9,1.35,0,1.13,1,1.47,2.1,1.47,1.4,0,3-.76,3-2.26Z"/><path class="cls-1" d="M84.72,0h1V6.35L90.2,2.8h1.54L88.16,5.56,92,10.09H90.64L87.39,6.23,85.75,7.48l0,2.61h-1Z"/><path class="cls-1" d="M93.46.5h1V2.8h2.06v.79H94.5V8.41c0,.63.19.92,1,.92a5.35,5.35,0,0,0,1-.08v.87a9.38,9.38,0,0,1-1.14.08c-1.62,0-2-.63-2-1.81V3.59H91.89V2.8h1.57Z"/><path class="cls-1" d="M97.67,0h1V1.54h-1Zm0,2.8h1l0,7.29h-1Z"/><path class="cls-1" d="M101,3.59H99.4V2.8H101v-1c0-1.39.69-1.84,2-1.84a8.39,8.39,0,0,1,1.16.06V.92a7.78,7.78,0,0,0-1-.05c-.94,0-1.2.24-1.2,1.08V2.8h2.06v.79H102v6.5h-1Z"/><path class="cls-1" d="M115.29,8.63h0a3.16,3.16,0,0,1-3,1.68,3.65,3.65,0,0,1-4-3.86,3.66,3.66,0,0,1,4-3.87,3.3,3.3,0,0,1,3,1.68h0V0h1V10.09h-1Zm-3-5.18a2.83,2.83,0,0,0-2.92,3,2.77,2.77,0,0,0,2.92,3,2.86,2.86,0,0,0,3.06-3A2.86,2.86,0,0,0,112.29,3.45Z"/><path class="cls-1" d="M121.81,2.58a3.76,3.76,0,0,1,4.13,3.87,4.14,4.14,0,0,1-8.27,0A3.77,3.77,0,0,1,121.81,2.58Zm0,6.86a2.85,2.85,0,0,0,3.09-3,3.1,3.1,0,0,0-6.19,0A2.86,2.86,0,0,0,121.81,9.44Z"/><path class="cls-1" d="M138.66,5.46c0-1.34-.65-2-2.17-2A2.21,2.21,0,0,0,134,5.79l0,4.3h-1V5.16c0-.93-.66-1.71-2.08-1.71A2.37,2.37,0,0,0,128.32,6l0,4.11h-1V2.8h1V4.15h0a3,3,0,0,1,2.89-1.57,2.45,2.45,0,0,1,2.6,1.6,3.22,3.22,0,0,1,2.86-1.6c2.05,0,3,1,3,2.53l0,5h-1Z"/><path class="cls-1" d="M141.24,5c.16-1.52,1-2.46,3.48-2.46s3.33.75,3.33,2.16V8.55c0,.6.17.81.58.81a4.89,4.89,0,0,0,.54,0V10a4.53,4.53,0,0,1-.86.11c-1.06,0-1.13-.71-1.13-1.28h0c-.33.47-1,1.45-3.41,1.45-1.25,0-2.83-.54-2.83-2.18,0-2,2-2.22,3.63-2.29,2.28-.11,2.55-.25,2.55-1,0-1.07-.69-1.43-2.41-1.43s-2.42.42-2.49,1.59Zm5.86,1.13c-.43.29-1.19.36-3.24.54-1.22.11-1.9.46-1.9,1.35,0,1.13,1,1.47,2.1,1.47,1.4,0,3-.76,3-2.26Z"/><path class="cls-1" d="M149.83,0h1V1.54h-1Zm0,2.8h1v7.29h-1Z"/><path class="cls-1" d="M158.63,5.39c0-1.45-.89-1.94-2.2-1.94-2,0-3,1-3,2.69v4h-1V2.8h1V4.23h0a3.17,3.17,0,0,1,3-1.65c2.41,0,3.15,1.26,3.15,3v4.51h-1Z"/><path class="cls-1" d="M165.11,5c.15-1.52,1-2.46,3.47-2.46s3.34.75,3.34,2.16V8.55c0,.6.16.81.57.81l.55,0V10a4.65,4.65,0,0,1-.87.11c-1,0-1.12-.71-1.12-1.28h0c-.32.47-1,1.45-3.41,1.45-1.24,0-2.83-.54-2.83-2.18,0-2,2-2.22,3.63-2.29,2.29-.11,2.55-.25,2.55-1,0-1.07-.68-1.43-2.41-1.43s-2.42.42-2.49,1.59ZM171,6.17c-.43.29-1.19.36-3.23.54-1.22.11-1.91.46-1.91,1.35,0,1.13,1,1.47,2.1,1.47,1.4,0,3-.76,3-2.26Z"/><path class="cls-1" d="M180.44,8.63h0a3.18,3.18,0,0,1-3,1.68,3.66,3.66,0,0,1-4-3.86,3.67,3.67,0,0,1,4-3.87,3.32,3.32,0,0,1,3,1.68h0V0h1l0,10.09h-1Zm-3-5.18a2.84,2.84,0,0,0-2.93,3,2.77,2.77,0,0,0,2.93,3,2.85,2.85,0,0,0,3.05-3A2.86,2.86,0,0,0,177.44,3.45Z"/><path class="cls-1" d="M183.07,2.8h1V4.47h0a2.82,2.82,0,0,1,2.79-1.89,2.42,2.42,0,0,1,.62,0V3.7a5.26,5.26,0,0,0-.95-.09,2.45,2.45,0,0,0-2.48,2.77v3.71h-1Z"/><path class="cls-1" d="M195.89,7.76c-.41,1.29-1.51,2.55-3.92,2.55a3.66,3.66,0,0,1-4-3.86,3.67,3.67,0,0,1,4-3.87c1.86,0,4.1.82,4.1,4.12h-7A2.7,2.7,0,0,0,192,9.44c1.73,0,2.51-.56,2.88-1.68ZM195,5.91a3.06,3.06,0,0,0-6,0Z"/><path class="cls-1" d="M202.76,5c-.27-1.18-1-1.51-2.51-1.51-1.08,0-2.1.24-2.1,1.24,0,.75.5.91,2.7,1.21S204,6.59,204,8s-1.16,2.31-3.46,2.31-3.68-.75-3.68-2.51h.95c.18,1.22.87,1.64,2.73,1.64,1.45,0,2.43-.29,2.43-1.38,0-.72-.52-1.05-2.79-1.28s-3.07-.75-3.07-2,1-2.16,3.14-2.16c2.35,0,3.35.85,3.46,2.38Z"/><path class="cls-1" d="M205.1,0h1V1.54h-1Zm0,2.8h1l0,7.29h-1Z"/><path class="cls-1" d="M219.08,5.46c0-1.34-.66-2-2.17-2a2.21,2.21,0,0,0-2.48,2.34v4.3h-1l0-4.93c0-.93-.66-1.71-2.07-1.71A2.36,2.36,0,0,0,208.74,6v4.11h-1l0-7.29h1V4.15h0a3,3,0,0,1,2.88-1.57,2.45,2.45,0,0,1,2.61,1.6,3.22,3.22,0,0,1,2.86-1.6c2,0,3,1,3,2.53v5h-1Z"/><path class="cls-1" d="M221.69,0h1V1.54h-1Zm0,2.8h1l0,7.29h-1Z"/><path class="cls-1" d="M223.78,9.22l5.53-5.55H224.1V2.8h6.7v.87l-5.65,5.55H231v.87h-7.23Z"/><path class="cls-1" d="M232.63,3h1.21V4.54h-1.21Zm0,5.55h1.21v1.54h-1.21Z"/><path class="cls-1" d="M239.88,2.8h1V4.26h0a2.89,2.89,0,0,1,3-1.68,3.66,3.66,0,0,1,4,3.87,3.67,3.67,0,0,1-4,3.86,3.33,3.33,0,0,1-3-1.68h0v4.29h-1Zm4,6.64a2.84,2.84,0,0,0,2.93-3,2.78,2.78,0,0,0-2.93-3,2.86,2.86,0,0,0-3,3A2.85,2.85,0,0,0,243.91,9.44Z"/><path class="cls-1" d="M249.19,0h1V1.54h-1Zm0,2.8h1v7.29h-1Z"/><path class="cls-1" d="M251.74,5c.16-1.52,1-2.46,3.48-2.46s3.33.75,3.33,2.16V8.55c0,.6.17.81.58.81l.54,0V10a4.53,4.53,0,0,1-.86.11c-1.06,0-1.13-.71-1.13-1.28h0c-.33.47-1,1.45-3.41,1.45-1.25,0-2.83-.54-2.83-2.18,0-2,2-2.22,3.63-2.29,2.28-.11,2.55-.25,2.55-1,0-1.07-.69-1.43-2.41-1.43s-2.42.42-2.49,1.59Zm5.86,1.13c-.43.29-1.19.36-3.24.54-1.22.11-1.9.46-1.9,1.35,0,1.13,1,1.47,2.1,1.47,1.4,0,3-.76,3-2.26Z"/><path class="cls-1" d="M260.36,0h1V4.26h0a3.3,3.3,0,0,1,3-1.68,3.67,3.67,0,0,1,4,3.87,3.65,3.65,0,0,1-4,3.86,3.14,3.14,0,0,1-3-1.68h0v1.46h-1Zm4,9.44a2.77,2.77,0,0,0,2.92-3,2.83,2.83,0,0,0-2.92-3,2.86,2.86,0,0,0-3.06,3A2.86,2.86,0,0,0,264.4,9.44Z"/><path class="cls-1" d="M277.34,7.76c-.4,1.29-1.51,2.55-3.92,2.55a3.66,3.66,0,0,1-4-3.86,3.67,3.67,0,0,1,4-3.87c1.86,0,4.11.82,4.11,4.12h-7a2.7,2.7,0,0,0,2.93,2.74c1.74,0,2.51-.56,2.89-1.68Zm-.85-1.85a3.06,3.06,0,0,0-6,0Z"/><path class="cls-1" d="M279.49.5h1V2.8h2.06v.79h-2.06V8.41c0,.63.2.92,1,.92a5.26,5.26,0,0,0,1-.08v.87a9.23,9.23,0,0,1-1.13.08c-1.63,0-2-.63-2-1.81V3.59h-1.57V2.8h1.57Z"/><path class="cls-1" d="M288.78,7.65h-5.27v-1L288.82.17h.91V6.78h1.85v.87h-1.85v2.44h-.95Zm0-6h0l-4.2,5.15h4.23Z"/><path class="cls-1" d="M298.14,7.65h-5.27v-1L298.18.17h.91V6.78h1.85v.87h-1.85v2.44h-1Zm0-6h0l-4.2,5.15h4.23Z"/><path class="cls-1" d="M308.94,2.69c-.1-1-.9-1.65-2.51-1.65-1.92,0-3,1.16-3.07,4.33l0,0a3.35,3.35,0,0,1,3-1.8c2.29,0,3.8,1.2,3.8,3.37s-1.71,3.35-3.8,3.35c-2.35,0-4-1.2-4-4.73,0-3.24,1.21-5.41,4-5.41,2.43,0,3.44,1.24,3.55,2.52Zm-2.51,6.75a2.5,2.5,0,1,0,0-5c-2.28,0-2.81,1.51-2.81,2.46A2.52,2.52,0,0,0,306.43,9.44Z"/><path class="cls-1" d="M312.35,8.55h1.2l0,1.54h-1.21Z"/><path class="cls-1" d="M323.11,7.48a3.51,3.51,0,0,1-3.69,2.83c-2.63,0-4.1-1.57-4.1-3.86s1.34-3.87,4.1-3.87c2.51,0,3.45,1.55,3.63,2.6h-1a2.37,2.37,0,0,0-2.6-1.73,2.81,2.81,0,0,0-3.07,3,2.8,2.8,0,0,0,3.07,3,2.47,2.47,0,0,0,2.65-2Z"/><path class="cls-1" d="M328.14,2.58a3.76,3.76,0,0,1,4.13,3.87,4.14,4.14,0,0,1-8.27,0A3.77,3.77,0,0,1,328.14,2.58Zm0,6.86a2.85,2.85,0,0,0,3.09-3,3.1,3.1,0,0,0-6.19,0A2.86,2.86,0,0,0,328.14,9.44Z"/><path class="cls-1" d="M345,5.46c0-1.34-.65-2-2.17-2a2.21,2.21,0,0,0-2.48,2.34l0,4.3h-1V5.16c0-.93-.66-1.71-2.08-1.71A2.37,2.37,0,0,0,334.65,6l0,4.11h-1V2.8h1V4.15h0a3,3,0,0,1,2.89-1.57,2.47,2.47,0,0,1,2.61,1.6A3.19,3.19,0,0,1,343,2.58c2.05,0,3,1,3,2.53l0,5h-1Z"/></g></g></svg>