<svg xmlns="http://www.w3.org/2000/svg" viewBox="0 0 17.56 25.78"><defs><style>.cls-1{fill:#7384c9;}</style></defs><g id="Layer_2" data-name="Layer 2"><g id="Layer_1-2" data-name="Layer 1"><path class="cls-1" d="M8.78,19.91A8.28,8.28,0,0,1,6.69,3.61h0A.49.49,0,0,1,7.29,4a.51.51,0,0,1-.35.58h0a7.28,7.28,0,1,0,3.69,0h0a.5.5,0,0,1,.19-1l0,0h0a8.28,8.28,0,0,1-2.09,16.3Z"/><path class="cls-1" d="M8.78,18.35A6.73,6.73,0,0,1,7.5,5a.5.5,0,0,1,.18,1,5.65,5.65,0,0,0-1.77.66,5.73,5.73,0,1,0,5.74,0A5.62,5.62,0,0,0,9.87,6a.5.5,0,0,1,.19-1A6.73,6.73,0,0,1,8.78,18.35Z"/><path class="cls-1" d="M8.78,13.68a2.06,2.06,0,1,1,2.05-2,2.05,2.05,0,0,1-2.05,2Zm0-3.11a1.06,1.06,0,0,0,0,2.12,1.07,1.07,0,0,0,1.06-1.06h0a1.06,1.06,0,0,0-1.06-1.06Z"/><path class="cls-1" d="M11.89,17.52a.52.52,0,0,1-.43-.25l-2.33-4a.5.5,0,0,1,.17-.68.49.49,0,0,1,.68.18h0l2.33,4a.49.49,0,0,1-.18.68A.52.52,0,0,1,11.89,17.52Z"/><path class="cls-1" d="M8,10.77a.5.5,0,0,1-.43-.24l-2.34-4a.51.51,0,0,1,.19-.68A.5.5,0,0,1,6.09,6l2.34,4a.5.5,0,0,1-.18.68A.54.54,0,0,1,8,10.77Z"/><path class="cls-1" d="M15,12.12H10.34a.5.5,0,1,1,0-1H15a.5.5,0,0,1,0,1Z"/><path class="cls-1" d="M7.22,12.12H2.55a.5.5,0,1,1,0-1H7.22a.5.5,0,1,1,0,1Z"/><path class="cls-1" d="M9.56,10.77a.49.49,0,0,1-.5-.49A.45.45,0,0,1,9.13,10l2.33-4a.5.5,0,0,1,.86.5l-2.33,4A.51.51,0,0,1,9.56,10.77Z"/><path class="cls-1" d="M5.66,17.52a.49.49,0,0,1-.49-.5.54.54,0,0,1,.06-.25l2.34-4a.49.49,0,0,1,.86.48h0l-2.34,4A.5.5,0,0,1,5.66,17.52Z"/><path class="cls-1" d="M17.06,25.78H.5a.5.5,0,0,1-.5-.5,3.61,3.61,0,0,1,3.61-3.61,2.6,2.6,0,0,0,2.62-2.54.5.5,0,0,1,1,0,3.6,3.6,0,0,1-3.61,3.51A2.63,2.63,0,0,0,1,24.79H16.52A2.63,2.63,0,0,0,14,22.66a3.6,3.6,0,0,1-3.61-3.51.48.48,0,0,1,.48-.5h0a.5.5,0,0,1,.5.48A2.62,2.62,0,0,0,14,21.67a3.61,3.61,0,0,1,3.61,3.61A.5.5,0,0,1,17.06,25.78Z"/><path class="cls-1" d="M8.78,8.17a.51.51,0,0,1-.44-.26l-2-3.59a.49.49,0,0,1,0-.47l2-3.59A.51.51,0,0,1,9,.06a.46.46,0,0,1,.19.2l2,3.59a.49.49,0,0,1,0,.47l-2,3.59A.48.48,0,0,1,8.78,8.17ZM7.37,4.09,8.78,6.65l1.4-2.56L8.78,1.53Z"/><path class="cls-1" d="M10.75,4.58h0a.5.5,0,0,1,0-1h0a.5.5,0,0,1,0,1Z"/><path class="cls-1" d="M6.82,4.58h0a.5.5,0,1,1,0-1h0a.5.5,0,1,1,0,1Z"/></g></g></svg>