<svg xmlns="http://www.w3.org/2000/svg" viewBox="0 0 17.39 23.04"><defs><style>.cls-1{fill:#7384c9;}</style></defs><g id="Layer_2" data-name="Layer 2"><g id="Layer_1-2" data-name="Layer 1"><path class="cls-1" d="M16.94,7.27,15.86,5.72l-.32-1.84a2.49,2.49,0,0,0-2-2l-1.86-.33L10.13.45a2.5,2.5,0,0,0-2.86,0L5.72,1.53l-1.84.33a2.48,2.48,0,0,0-2,2L1.53,5.73.45,7.27a2.5,2.5,0,0,0,0,2.86l1.08,1.54.33,1.85a2.49,2.49,0,0,0,1.81,2v6.36a1.19,1.19,0,0,0,1.86,1L8.7,20.64l3.16,2.19a1.16,1.16,0,0,0,.67.21,1.19,1.19,0,0,0,.56-.14,1.17,1.17,0,0,0,.63-1V17a.7.7,0,1,0-1.39,0v4.5L9.09,19.22a.71.71,0,0,0-.79,0L5.06,21.46V15.75l.67.11,1.54,1.08a2.53,2.53,0,0,0,2.86,0l1.54-1.08,1.85-.32a2.49,2.49,0,0,0,2-2l.32-1.86,1.08-1.53A2.5,2.5,0,0,0,16.94,7.27ZM15.8,9.32l-1.11,1.59a1,1,0,0,0-.19.46l-.33,1.91a1.11,1.11,0,0,1-.89.89l-1.91.33a1.15,1.15,0,0,0-.46.19L9.33,15.8a1.08,1.08,0,0,1-1.26,0L6.49,14.69A1.14,1.14,0,0,0,6,14.5l-1.9-.33a1.1,1.1,0,0,1-.89-.89L2.9,11.37a1.18,1.18,0,0,0-.2-.46L1.59,9.32a1.1,1.1,0,0,1,0-1.25L2.7,6.49A1.16,1.16,0,0,0,2.9,6l.33-1.9a1.08,1.08,0,0,1,.89-.89L6,2.9a1.16,1.16,0,0,0,.47-.2L8.07,1.59a1.08,1.08,0,0,1,1.25,0L10.91,2.7a1.18,1.18,0,0,0,.46.2l1.91.33a1.1,1.1,0,0,1,.89.89L14.5,6a1.06,1.06,0,0,0,.19.48L15.8,8.07A1.07,1.07,0,0,1,15.8,9.32Z"/><path class="cls-1" d="M8.7,3.26A5.44,5.44,0,1,0,14.13,8.7,5.45,5.45,0,0,0,8.7,3.26Zm4,5.44a4,4,0,1,1-4-4A4,4,0,0,1,12.74,8.7Z"/><path class="cls-1" d="M10.28,6.72,8.07,9.16l-1-1.06a.7.7,0,1,0-1,.94l1.48,1.63a.69.69,0,0,0,1,0l2.72-3a.7.7,0,1,0-1-.94Z"/></g></g></svg>