<svg xmlns="http://www.w3.org/2000/svg" viewBox="0 0 20.35 18.23"><defs><style>.cls-1{fill:#7384c9;}</style></defs><g id="Layer_2" data-name="Layer 2"><g id="Layer_1-2" data-name="Layer 1"><path class="cls-1" d="M5.7,11.91a.3.3,0,0,0-.3.29v.54a.3.3,0,0,0,.3.3.29.29,0,0,0,.3-.3V12.2A.29.29,0,0,0,5.7,11.91Z"/><path class="cls-1" d="M19.41,15.86h-.49V7.59a1.71,1.71,0,0,0,1.41-1.68V4.75h0v0h0v0h0v0h0L19,2V.64A.64.64,0,0,0,18.34,0H4.79a.29.29,0,0,0-.3.3.3.3,0,0,0,.3.3H18.34a0,0,0,0,1,.05,0V1.79H2V.64a0,0,0,0,1,0,0H3.4A.31.31,0,0,0,3.7.3.3.3,0,0,0,3.4,0H2a.65.65,0,0,0-.65.64V2L.05,4.63h0l0,0H0v0H0v0H0V5.91a1.7,1.7,0,0,0,1.4,1.68v8.27H.94a1,1,0,0,0-.94.95v.94a.49.49,0,0,0,.48.48H19.87a.49.49,0,0,0,.48-.48v-.94A1,1,0,0,0,19.41,15.86Zm.33-9.95a1.12,1.12,0,1,1-2.23,0V5.07h2.23v.84ZM18.5,2.38l1.05,2.09H17.43l-.75-2.09ZM16,2.38l.75,2.09H14.64l-.45-2.09Zm.88,2.69v.84a1.11,1.11,0,1,1-2.22,0V5.07ZM13.58,2.38,14,4.47H11.86l-.15-2.09Zm.52,2.69v.84a1.11,1.11,0,1,1-2.22,0V5.07ZM9.24,2.38h1.87l.15,2.09H9.09ZM9.06,5.07h2.22v.84a1.11,1.11,0,1,1-2.22,0Zm1.11,2.55a1.7,1.7,0,0,0,1.41-.74,1.71,1.71,0,0,0,2.82,0,1.71,1.71,0,0,0,2.82,0,1.69,1.69,0,0,0,1.11.71v8.27H7.11V9.24a.56.56,0,0,0-.56-.55H3.11a.56.56,0,0,0-.56.55v6.62H2V7.59a1.69,1.69,0,0,0,1.11-.71A1.71,1.71,0,0,0,6,6.88a1.71,1.71,0,0,0,2.82,0A1.68,1.68,0,0,0,10.17,7.62ZM6.51,9.28v6.58H3.15V9.28ZM3.43,5.91V5.07H5.65v.84a1.11,1.11,0,1,1-2.22,0ZM6.77,2.38H8.64L8.49,4.47H6.32ZM6.25,5.07H8.47v.84a1.11,1.11,0,1,1-2.22,0V5.07ZM6.16,2.38,5.71,4.47H3.55L4.3,2.38Zm-4.31,0H3.67L2.92,4.47H.8ZM.61,5.91V5.07H2.83v.84a1.11,1.11,0,1,1-2.22,0Zm0,11.72v-.82a.35.35,0,0,1,.34-.35H19.41a.35.35,0,0,1,.34.35v.82Z"/><path class="cls-1" d="M17,8.69H13.32a.3.3,0,1,0,0,.59h3.6V14H8.33V9.28h3.58a.3.3,0,1,0,0-.59H8.28a.55.55,0,0,0-.55.55V14a.55.55,0,0,0,.55.55H17a.55.55,0,0,0,.55-.55V9.24A.55.55,0,0,0,17,8.69Z"/></g></g></svg>