<svg xmlns="http://www.w3.org/2000/svg" viewBox="0 0 15.79 15.79"><defs><style>.cls-1{fill:#7384c9;}</style></defs><g id="Layer_2" data-name="Layer 2"><g id="Layer_1-2" data-name="Layer 1"><path class="cls-1" d="M12,0H3.81A3.82,3.82,0,0,0,0,3.81V12a3.82,3.82,0,0,0,3.81,3.81H12A3.82,3.82,0,0,0,15.79,12V3.81A3.82,3.82,0,0,0,12,0Zm2.45,11.7a2.73,2.73,0,0,1-2.73,2.73H4.08A2.72,2.72,0,0,1,1.36,11.7V4.08A2.72,2.72,0,0,1,4.08,1.36H11.7a2.72,2.72,0,0,1,2.73,2.72Z"/><path class="cls-1" d="M7.9,3.81A4.09,4.09,0,1,0,12,7.89,4.08,4.08,0,0,0,7.9,3.81Zm0,6.81a2.73,2.73,0,1,1,2.72-2.73A2.73,2.73,0,0,1,7.9,10.62Z"/><circle class="cls-1" cx="12.26" cy="3.54" r="0.82"/></g></g>
</svg>