<svg xmlns="http://www.w3.org/2000/svg" viewBox="0 0 14.57 21.62"><defs><style>.cls-1{fill:#7384c9;fill-rule:evenodd;}</style></defs><g id="Layer_2" data-name="Layer 2"><g id="Layer_1-2" data-name="Layer 1"><path class="cls-1" d="M4,19.62A1.92,1.92,0,0,1,3.37,21a1.74,1.74,0,0,1-1.43.59H0V7.09C0,4.34.76,2.5,2.36,1.5A9.45,9.45,0,0,1,7.5,0a7.21,7.21,0,0,1,2.94.58A5.65,5.65,0,0,1,12.8,2.17,9.29,9.29,0,0,1,14.57,8a9.38,9.38,0,0,1-1.77,5.93,5.38,5.38,0,0,1-4.46,2.25,6.42,6.42,0,0,1-2.53-.5A4.35,4.35,0,0,1,4,13.86ZM10.53,8.18a6,6,0,0,0-.84-3.51A2.93,2.93,0,0,0,7.16,3.42,2.87,2.87,0,0,0,4.72,4.67a6.3,6.3,0,0,0-.85,3.51,5.29,5.29,0,0,0,.85,3.34,2.91,2.91,0,0,0,2.52,1.25A2.72,2.72,0,0,0,9.6,11.52,5.06,5.06,0,0,0,10.53,8.18Z"/></g></g></svg>