<svg xmlns="http://www.w3.org/2000/svg" viewBox="0 0 22.67 18.79"><defs><style>.cls-1{fill:#7384c9;stroke:#7384c9;stroke-miterlimit:10;stroke-width:0.5px;}</style></defs><g id="Layer_2" data-name="Layer 2"><g id="Layer_1-2" data-name="Layer 1"><path class="cls-1" d="M22.38.64a.48.48,0,0,0-.32-.35,1.72,1.72,0,0,0-.88.06S1.76,7.34.65,8.11c-.24.17-.32.26-.36.38a.65.65,0,0,0,.4.79l5,1.63s.19,0,.25,0C7.09,10.18,17.42,3.66,18,3.44c.1,0,.16,0,.15.07-.24.84-9.21,8.8-9.21,8.8a.81.81,0,0,0,0,.1h0l-.47,5s-.2,1.52,1.32,0c1.08-1.08,2.12-2,2.64-2.41,1.72,1.19,3.57,2.5,4.37,3.19a1.37,1.37,0,0,0,1,.39,1.16,1.16,0,0,0,1-.86S22.28,3.43,22.39,1.52a4,4,0,0,0,0-.43A1.4,1.4,0,0,0,22.38.64Z"/></g></g></svg>