<svg xmlns="http://www.w3.org/2000/svg" viewBox="0 0 10.64 36.89"><defs><style>.cls-1{isolation:isolate;}.cls-2{mix-blend-mode:multiply;}.cls-3{fill:#fff;}.cls-4{fill:#feffff;}.cls-5{fill:#fefeff;}.cls-6{fill:#fdfefe;}.cls-7{fill:#fcfdfe;}.cls-8{fill:#fbfdfe;}.cls-9{fill:#fbfcfe;}.cls-10{fill:#fafcfd;}.cls-11{fill:#f9fbfd;}.cls-12{fill:#f8fbfd;}.cls-13{fill:#f8fafd;}.cls-14{fill:#f7fafc;}.cls-15{fill:#f6f9fc;}.cls-16{fill:#f5f9fc;}.cls-17{fill:#f5f8fc;}.cls-18{fill:#f4f8fb;}.cls-19{fill:#f3f7fb;}.cls-20{fill:#f2f7fb;}.cls-21{fill:#f2f6fb;}.cls-22{fill:#f1f6fa;}.cls-23{fill:#f0f5fa;}.cls-24{fill:#eff5fa;}.cls-25{fill:#eff4fa;}.cls-26{fill:#eef4f9;}.cls-27{fill:#edf3f9;}.cls-28{fill:#ecf2f9;}.cls-29{fill:#ebf2f8;}.cls-30{fill:#ebf1f8;}.cls-31{fill:#eaf1f8;}.cls-32{fill:#e9f0f8;}.cls-33{fill:#e8f0f7;}.cls-34{fill:#e8eff7;}.cls-35{fill:#e7eff7;}.cls-36{fill:#e6eef7;}.cls-37{fill:#e5eef6;}.cls-38{fill:#e5edf6;}.cls-39{fill:#e4edf6;}.cls-40{fill:#e3ecf6;}.cls-41{fill:#e2ecf5;}.cls-42{fill:#e2ebf5;}.cls-43{fill:#e1ebf5;}.cls-44{fill:#e0eaf5;}.cls-45{fill:#dfeaf4;}.cls-46{fill:#dfe9f4;}.cls-47{fill:#dee9f4;}.cls-48{fill:#dde8f4;}.cls-49{fill:#dce8f3;}.cls-50{fill:#dce7f3;}.cls-51{fill:#dbe7f3;}.cls-52{fill:#d9e5f1;}.cls-53{fill:#d7e3ef;}.cls-54{fill:#d5e1ed;}.cls-55{fill:#d3dfeb;}.cls-56{fill:#d1dde9;}.cls-57{fill:#cfdbe7;}.cls-58{fill:#cdd9e5;}.cls-59{fill:#cbd7e3;}.cls-60{fill:#c9d6e2;}.cls-61{fill:#c7d4e0;}.cls-62{fill:#c5d2de;}.cls-63{fill:#c4d0dc;}.cls-64{fill:#c2ceda;}.cls-65{fill:#c0ccd8;}.cls-66{fill:#becad6;}.cls-67{fill:#bcc8d4;}.cls-68{fill:#bac6d2;}.cls-69{fill:#b8c4d0;}.cls-70{fill:#b6c2ce;}.cls-71{fill:#b4c0cc;}.cls-72{fill:#b2beca;}.cls-73{fill:#b0bcc8;}.cls-74{fill:#aebac6;}.cls-75{fill:#acb8c4;}.cls-76{fill:#aab6c2;}.cls-77{fill:#a8b4c0;}.cls-78{fill:#a6b3bf;}.cls-79{fill:#a4b1bd;}.cls-80{fill:#a2afbb;}.cls-81{fill:#a0adb9;}.cls-82{fill:#9eabb7;}.cls-83{fill:#9ca9b5;}.cls-84{fill:#9aa7b3;}.cls-85{fill:#98a5b1;}.cls-86{fill:#96a3af;}.cls-87{fill:#95a1ad;}.cls-88{fill:#939fab;}.cls-89{fill:#919da9;}.cls-90{fill:#8f9ba7;}.cls-91{fill:#8d99a5;}.cls-92{fill:#8b97a3;}.cls-93{fill:#8995a1;}.cls-94{fill:#87939f;}.cls-95{fill:#85919d;}.cls-96{fill:#83909c;}.cls-97{fill:#818e9a;}.cls-98{fill:#7f8c98;}.cls-99{fill:#7d8a96;}.cls-100{fill:#7b8894;}.cls-101{fill:#798692;}.cls-102{fill:#778490;}.cls-103{fill:#75828e;}.cls-104{fill:#73808c;}.cls-105{fill:#717e8a;}.cls-106{fill:#6f7c88;}.cls-107{fill:#6d7a86;}.cls-108{fill:#6b7884;}.cls-109{fill:#697682;}.cls-110{fill:#677480;}.cls-111{fill:#66727e;}.cls-112{fill:#64707c;}.cls-113{fill:#626e7a;}.cls-114{fill:#606d79;}.cls-115{fill:#5e6b77;}.cls-116{fill:#5c6975;}.cls-117{fill:#5a6773;}.cls-118{fill:#586571;}.cls-119{fill:#56636f;}.cls-120{fill:#54616d;}.cls-121{fill:#525f6b;}.cls-122{fill:#505d69;}.cls-123{fill:none;stroke:#646e87;stroke-miterlimit:10;stroke-width:0.5px;}</style></defs><g class="cls-1"><g id="Layer_2" data-name="Layer 2"><g id="Layer_1-2" data-name="Layer 1"><g class="cls-2"><path class="cls-3" d="M.25,36.89C6,36.58,10.64,28.44,10.64,18.45S6,.31.25,0Z"/><path class="cls-4" d="M.25,36.89C6,36.58,10.57,28.44,10.57,18.45S6,.31.25,0Z"/><path class="cls-5" d="M.25,36.89c5.69-.32,10.26-8.45,10.26-18.44S5.94.32.25,0Z"/><path class="cls-6" d="M.25,36.89c5.66-.32,10.19-8.45,10.19-18.44S5.91.32.25,0Z"/><path class="cls-6" d="M.25,36.89c5.62-.32,10.13-8.46,10.13-18.44S5.87.32.25,0Z"/><path class="cls-7" d="M.25,36.89c5.59-.33,10.06-8.46,10.06-18.44S5.84.33.25,0Z"/><path class="cls-7" d="M.25,36.89c5.55-.33,10-8.46,10-18.44S5.8.33.25,0Z"/><path class="cls-8" d="M.25,36.89c5.51-.33,9.93-8.46,9.93-18.44S5.76.33.25,0Z"/><path class="cls-9" d="M.25,36.89c5.48-.34,9.86-8.46,9.86-18.44S5.73.34.25,0Z"/><path class="cls-10" d="M.25,36.89c5.44-.34,9.8-8.47,9.8-18.44S5.69.34.25,0Z"/><path class="cls-10" d="M.25,36.89C5.65,36.55,10,28.42,10,18.45S5.65.34.25,0Z"/><path class="cls-11" d="M.25,36.89c5.37-.35,9.67-8.47,9.67-18.44S5.62.35.25,0Z"/><path class="cls-11" d="M.25,36.89c5.33-.35,9.6-8.47,9.6-18.44S5.58.35.25,0Z"/><path class="cls-12" d="M.25,36.89c5.3-.35,9.53-8.48,9.53-18.44S5.55.35.25,0Z"/><path class="cls-13" d="M.25,36.89c5.26-.36,9.47-8.48,9.47-18.44S5.51.36.25,0Z"/><path class="cls-14" d="M.25,36.89c5.22-.36,9.4-8.48,9.4-18.44S5.47.36.25,0Z"/><path class="cls-14" d="M.25,36.89c5.19-.36,9.34-8.48,9.34-18.44S5.44.36.25,0Z"/><path class="cls-15" d="M.25,36.89c5.15-.37,9.27-8.48,9.27-18.44S5.4.37.25,0Z"/><path class="cls-15" d="M.25,36.89c5.11-.37,9.21-8.49,9.21-18.44S5.36.37.25,0Z"/><path class="cls-16" d="M.25,36.89c5.08-.37,9.14-8.49,9.14-18.44S5.33.37.25,0Z"/><path class="cls-17" d="M.25,36.89c5-.38,9.08-8.49,9.08-18.44S5.29.38.25,0Z"/><path class="cls-18" d="M.25,36.88c5-.37,9-8.48,9-18.43S5.26.38.25,0Z"/><path class="cls-18" d="M.25,36.88c5-.37,8.94-8.48,8.94-18.43S5.22.39.25,0Z"/><path class="cls-19" d="M.25,36.88c4.93-.38,8.88-8.49,8.88-18.43S5.18.39.25,0Z"/><path class="cls-19" d="M.25,36.88c4.9-.38,8.81-8.49,8.81-18.43S5.15.39.25,0Z"/><path class="cls-20" d="M.25,36.88C5.11,36.49,9,28.39,9,18.45S5.11.4.25,0Z"/><path class="cls-21" d="M.25,36.88c4.82-.39,8.68-8.49,8.68-18.43S5.07.4.25,0Z"/><path class="cls-22" d="M.25,36.88c4.79-.39,8.62-8.5,8.62-18.43S5,.4.25,0Z"/><path class="cls-22" d="M.25,36.88C5,36.48,8.8,28.38,8.8,18.45S5,.41.25,0Z"/><path class="cls-23" d="M.25,36.88c4.72-.4,8.48-8.5,8.48-18.43S5,.41.25,0Z"/><path class="cls-23" d="M.25,36.88c4.68-.4,8.42-8.5,8.42-18.43S4.93.41.25,0Z"/><path class="cls-24" d="M.25,36.88c4.64-.41,8.35-8.5,8.35-18.43S4.89.42.25,0Z"/><path class="cls-25" d="M.25,36.88c4.61-.41,8.29-8.51,8.29-18.43S4.86.42.25,0Z"/><path class="cls-26" d="M.25,36.88c4.57-.41,8.22-8.51,8.22-18.43S4.82.42.25,0Z"/><path class="cls-26" d="M.25,36.88c4.53-.42,8.16-8.51,8.16-18.43S4.78.43.25,0Z"/><path class="cls-27" d="M.25,36.88c4.5-.42,8.09-8.51,8.09-18.43S4.75.43.25,0Z"/><path class="cls-27" d="M.25,36.88c4.46-.42,8-8.51,8-18.43S4.71.43.25,0Z"/><path class="cls-28" d="M.25,36.88c4.43-.43,8-8.52,8-18.43S4.68.44.25,0Z"/><path class="cls-28" d="M.25,36.88c4.39-.43,7.89-8.52,7.89-18.43S4.64.44.25,0Z"/><path class="cls-29" d="M.25,36.88c4.35-.43,7.83-8.52,7.83-18.43S4.6.44.25,0Z"/><path class="cls-30" d="M.25,36.88C4.57,36.44,8,28.36,8,18.45S4.57.45.25,0Z"/><path class="cls-31" d="M.25,36.88C4.53,36.44,8,28.35,8,18.45S4.53.45.25,0Z"/><path class="cls-31" d="M.25,36.88c4.24-.44,7.63-8.53,7.63-18.43S4.49.45.25,0Z"/><path class="cls-32" d="M.25,36.88c4.21-.45,7.57-8.53,7.57-18.43S4.46.46.25,0Z"/><path class="cls-32" d="M.25,36.88c4.17-.45,7.5-8.53,7.5-18.43S4.42.46.25,0Z"/><path class="cls-33" d="M.25,36.88c4.14-.45,7.43-8.53,7.43-18.43S4.39.46.25,0Z"/><path class="cls-34" d="M.25,36.88c4.1-.46,7.37-8.54,7.37-18.43S4.35.47.25,0Z"/><path class="cls-35" d="M.25,36.88c4.06-.46,7.3-8.54,7.3-18.43S4.31.47.25,0Z"/><path class="cls-35" d="M.25,36.88c4-.46,7.24-8.54,7.24-18.43S4.28.48.25,0Z"/><path class="cls-36" d="M.25,36.88c4-.47,7.17-8.54,7.17-18.43S4.24.48.25,0Z"/><path class="cls-36" d="M.25,36.88c4-.47,7.11-8.54,7.11-18.43S4.2.48.25,0Z"/><path class="cls-37" d="M.25,36.88c3.92-.48,7-8.55,7-18.43S4.17.49.25,0Z"/><path class="cls-38" d="M.25,36.88c3.88-.48,7-8.55,7-18.43S4.13.49.25,0Z"/><path class="cls-39" d="M.25,36.88c3.85-.48,6.91-8.55,6.91-18.43S4.1.49.25,0Z"/><path class="cls-39" d="M.25,36.88c3.81-.49,6.84-8.55,6.84-18.43S4.06.5.25,0Z"/><path class="cls-40" d="M.25,36.88C4,36.39,7,28.33,7,18.45S4,.5.25,0Z"/><path class="cls-40" d="M.25,36.88C4,36.39,7,28.32,7,18.45S4,.5.25,0Z"/><path class="cls-41" d="M.25,36.88C4,36.38,6.9,28.32,6.9,18.45S4,.51.25,0Z"/><path class="cls-42" d="M.25,36.87c3.66-.49,6.58-8.55,6.58-18.42S3.91.51.25,0Z"/><path class="cls-43" d="M.25,36.87c3.63-.49,6.52-8.55,6.52-18.42S3.88.51.25,0Z"/><path class="cls-43" d="M.25,36.87c3.59-.5,6.45-8.56,6.45-18.42S3.84.52.25,0Z"/><path class="cls-44" d="M.25,36.87c3.56-.5,6.38-8.56,6.38-18.42S3.81.52.25,0Z"/><path class="cls-44" d="M.25,36.87c3.52-.5,6.32-8.56,6.32-18.42S3.77.52.25,0Z"/><path class="cls-45" d="M.25,36.87c3.48-.51,6.25-8.56,6.25-18.42S3.73.53.25,0Z"/><path class="cls-46" d="M.25,36.87c3.45-.51,6.19-8.56,6.19-18.42S3.7.53.25,0Z"/><path class="cls-47" d="M.25,36.87c3.41-.51,6.12-8.57,6.12-18.42S3.66.53.25,0Z"/><path class="cls-47" d="M.25,36.87c3.37-.52,6.06-8.57,6.06-18.42S3.62.54.25,0Z"/><path class="cls-48" d="M.25,36.87c3.34-.52,6-8.57,6-18.42S3.59.54.25,0Z"/><path class="cls-48" d="M.25,36.87c3.3-.52,5.93-8.57,5.93-18.42S3.55.54.25,0Z"/><path class="cls-49" d="M.25,36.87c3.27-.53,5.86-8.57,5.86-18.42S3.52.55.25,0Z"/><path class="cls-50" d="M.25,36.87C3.48,36.34,6,28.29,6,18.45S3.48.55.25,0Z"/><path class="cls-51" d="M.25,36.87C3.44,36.34,6,28.29,6,18.45S3.44.56.25,0Z"/><path class="cls-52" d="M.25,36.87C3.4,36.32,5.9,28.28,5.9,18.45S3.4.57.25,0Z"/><path class="cls-53" d="M.25,36.87c3.11-.56,5.58-8.6,5.58-18.42S3.36.58.25,0Z"/><path class="cls-54" d="M.25,36.86c3.07-.56,5.51-8.59,5.51-18.41S3.32.59.25,0Z"/><path class="cls-55" d="M.25,36.86c3-.58,5.43-8.6,5.43-18.41S3.28.61.25,0Z"/><path class="cls-56" d="M.25,36.86c3-.59,5.36-8.61,5.36-18.41S3.24.62.25,0Z"/><path class="cls-57" d="M.25,36.86c3-.6,5.28-8.62,5.28-18.41S3.2.63.25,0Z"/><path class="cls-58" d="M.25,36.85c2.9-.61,5.21-8.61,5.21-18.4S3.15.65.25,0Z"/><path class="cls-59" d="M.25,36.85c2.86-.62,5.14-8.62,5.14-18.4S3.11.66.25,0Z"/><path class="cls-60" d="M.25,36.85c2.82-.63,5.06-8.63,5.06-18.4S3.07.67.25,0Z"/><path class="cls-61" d="M.25,36.85c2.78-.65,5-8.64,5-18.4S3,.69.25,0Z"/><path class="cls-62" d="M.25,36.85C3,36.19,5.16,28.2,5.16,18.45S3,.7.25,0Z"/><path class="cls-63" d="M.25,36.84C3,36.18,5.09,28.2,5.09,18.45S3,.71.25.05Z"/><path class="cls-64" d="M.25,36.84C2.91,36.16,5,28.19,5,18.45S2.91.73.25.05Z"/><path class="cls-65" d="M.25,36.84c2.62-.69,4.69-8.66,4.69-18.39S2.87.74.25.05Z"/><path class="cls-66" d="M.25,36.84c2.57-.7,4.62-8.67,4.62-18.39S2.82.75.25.05Z"/><path class="cls-67" d="M.25,36.83c2.53-.7,4.54-8.67,4.54-18.38S2.78.77.25.06Z"/><path class="cls-68" d="M.25,36.83c2.49-.72,4.47-8.67,4.47-18.38S2.74.78.25.06Z"/><path class="cls-69" d="M.25,36.83c2.45-.73,4.4-8.68,4.4-18.38S2.7.79.25.06Z"/><path class="cls-70" d="M.25,36.83c2.41-.74,4.32-8.69,4.32-18.38S2.66.8.25.06Z"/><path class="cls-71" d="M.25,36.82c2.37-.75,4.25-8.69,4.25-18.37S2.62.82.25.07Z"/><path class="cls-72" d="M.25,36.82c2.33-.76,4.17-8.7,4.17-18.37S2.58.83.25.07Z"/><path class="cls-73" d="M.25,36.82c2.29-.77,4.1-8.7,4.1-18.37S2.54.84.25.07Z"/><path class="cls-74" d="M.25,36.82c2.25-.79,4-8.71,4-18.37S2.5.86.25.07Z"/><path class="cls-75" d="M.25,36.81c2.2-.79,4-8.71,4-18.36S2.45.87.25.08Z"/><path class="cls-76" d="M.25,36.81c2.16-.8,3.88-8.72,3.88-18.36S2.41.88.25.08Z"/><path class="cls-77" d="M.25,36.81c2.12-.82,3.8-8.73,3.8-18.36S2.37.9.25.08Z"/><path class="cls-78" d="M.25,36.81C2.33,36,4,28.08,4,18.45S2.33.91.25.08Z"/><path class="cls-79" d="M.25,36.81c2-.84,3.66-8.74,3.66-18.36S2.29.92.25.08Z"/><path class="cls-80" d="M.25,36.8c2-.85,3.58-8.74,3.58-18.35S2.25.94.25.09Z"/><path class="cls-81" d="M.25,36.8c2-.86,3.51-8.75,3.51-18.35S2.21,1,.25.09Z"/><path class="cls-82" d="M.25,36.8C2.17,35.93,3.68,28,3.68,18.45S2.17,1,.25.09Z"/><path class="cls-83" d="M.25,36.8C2.12,35.91,3.61,28,3.61,18.45S2.12,1,.25.09Z"/><path class="cls-84" d="M.25,36.79C2.08,35.9,3.54,28,3.54,18.45S2.08,1,.25.1Z"/><path class="cls-85" d="M.25,36.79C2,35.89,3.46,28,3.46,18.45S2,1,.25.1Z"/><path class="cls-86" d="M.25,36.79C2,35.88,3.39,28,3.39,18.45S2,1,.25.1Z"/><path class="cls-87" d="M.25,36.79C2,35.86,3.31,28,3.31,18.45S2,1,.25.1Z"/><path class="cls-88" d="M.25,36.78c1.67-.93,3-8.78,3-18.33S1.92,1,.25.11Z"/><path class="cls-89" d="M.25,36.78C1.88,35.84,3.17,28,3.17,18.45S1.88,1.05.25.11Z"/><path class="cls-90" d="M.25,36.78c1.59-1,2.84-8.8,2.84-18.33S1.84,1.07.25.11Z"/><path class="cls-91" d="M.25,36.78C1.79,35.81,3,28,3,18.45S1.79,1.08.25.11Z"/><path class="cls-92" d="M.25,36.78c1.5-1,2.69-8.82,2.69-18.33S1.75,1.09.25.12Z"/><path class="cls-93" d="M.25,36.77c1.46-1,2.62-8.81,2.62-18.32S1.71,1.11.25.12Z"/><path class="cls-94" d="M.25,36.77C1.67,35.77,2.8,28,2.8,18.45S1.67,1.12.25.12Z"/><path class="cls-95" d="M.25,36.77c1.38-1,2.47-8.83,2.47-18.32S1.63,1.13.25.12Z"/><path class="cls-96" d="M.25,36.77c1.34-1,2.4-8.84,2.4-18.32S1.59,1.15.25.12Z"/><path class="cls-97" d="M.25,36.76c1.3-1,2.32-8.84,2.32-18.31S1.55,1.16.25.13Z"/><path class="cls-98" d="M.25,36.76c1.26-1,2.25-8.84,2.25-18.31S1.51,1.17.25.13Z"/><path class="cls-99" d="M.25,36.76c1.22-1.06,2.18-8.85,2.18-18.31S1.47,1.19.25.13Z"/><path class="cls-100" d="M.25,36.76c1.17-1.07,2.1-8.86,2.1-18.31S1.42,1.2.25.13Z"/><path class="cls-101" d="M.25,36.75c1.13-1.07,2-8.86,2-18.3S1.38,1.21.25.14Z"/><path class="cls-102" d="M.25,36.75c1.09-1.08,2-8.87,2-18.3S1.34,1.23.25.14Z"/><path class="cls-103" d="M.25,36.75c1.05-1.1,1.88-8.87,1.88-18.3S1.3,1.24.25.14Z"/><path class="cls-104" d="M.25,36.75c1-1.11,1.81-8.88,1.81-18.3S1.26,1.25.25.14Z"/><path class="cls-105" d="M.25,36.74C1.22,35.63,2,27.86,2,18.45S1.22,1.26.25.15Z"/><path class="cls-106" d="M.25,36.74c.93-1.13,1.66-8.89,1.66-18.29S1.18,1.28.25.15Z"/><path class="cls-107" d="M.25,36.74c.89-1.14,1.58-8.9,1.58-18.29S1.14,1.29.25.15Z"/><path class="cls-108" d="M.25,36.74c.84-1.15,1.51-8.9,1.51-18.29S1.09,1.3.25.15Z"/><path class="cls-109" d="M.25,36.74c.8-1.17,1.44-8.91,1.44-18.29S1.05,1.32.25.16Z"/><path class="cls-110" d="M.25,36.73C1,35.56,1.61,27.82,1.61,18.45S1,1.33.25.16Z"/><path class="cls-111" d="M.25,36.73C1,35.55,1.54,27.81,1.54,18.45S1,1.34.25.16Z"/><path class="cls-112" d="M.25,36.73c.68-1.2,1.21-8.93,1.21-18.28S.93,1.36.25.16Z"/><path class="cls-113" d="M.25,36.73c.64-1.21,1.14-8.93,1.14-18.28S.89,1.37.25.16Z"/><path class="cls-114" d="M.25,36.72c.6-1.21,1.07-8.93,1.07-18.27S.85,1.38.25.17Z"/><path class="cls-115" d="M.25,36.72c.56-1.23,1-8.94,1-18.27S.81,1.4.25.17Z"/><path class="cls-116" d="M.25,36.72c.51-1.24.92-8.95.92-18.27S.76,1.41.25.17Z"/><path class="cls-117" d="M.25,36.72c.47-1.25.84-9,.84-18.27S.72,1.42.25.17Z"/><path class="cls-118" d="M.25,36.71C.68,35.45,1,27.76,1,18.45S.68,1.44.25.18Z"/><path class="cls-119" d="M.25,36.71c.39-1.27.7-9,.7-18.26S.64,1.45.25.18Z"/><path class="cls-120" d="M.25,36.71c.35-1.28.62-9,.62-18.26S.6,1.46.25.18Z"/><path class="cls-121" d="M.25,36.71c.31-1.29.55-9,.55-18.26S.56,1.48.25.18Z"/><path class="cls-122" d="M.25,36.7c.27-1.3.47-9,.47-18.25S.52,1.49.25.19Z"/></g><line class="cls-123" x1="0.25" x2="0.25" y2="36.89"/></g></g></g></svg>