<svg xmlns="http://www.w3.org/2000/svg" viewBox="0 0 10.64 36.89"><defs><style>.cls-1{isolation:isolate;}.cls-2{mix-blend-mode:multiply;}.cls-3{fill:#fff;}.cls-4{fill:#feffff;}.cls-5{fill:#fefeff;}.cls-6{fill:#fdfefe;}.cls-7{fill:#fcfdfe;}.cls-8{fill:#fbfdfe;}.cls-9{fill:#fbfcfe;}.cls-10{fill:#fafcfd;}.cls-11{fill:#f9fbfd;}.cls-12{fill:#f8fbfd;}.cls-13{fill:#f8fafd;}.cls-14{fill:#f7fafc;}.cls-15{fill:#f6f9fc;}.cls-16{fill:#f5f9fc;}.cls-17{fill:#f5f8fc;}.cls-18{fill:#f4f8fb;}.cls-19{fill:#f3f7fb;}.cls-20{fill:#f2f7fb;}.cls-21{fill:#f2f6fb;}.cls-22{fill:#f1f6fa;}.cls-23{fill:#f0f5fa;}.cls-24{fill:#eff5fa;}.cls-25{fill:#eff4fa;}.cls-26{fill:#eef4f9;}.cls-27{fill:#edf3f9;}.cls-28{fill:#ecf2f9;}.cls-29{fill:#ebf2f8;}.cls-30{fill:#ebf1f8;}.cls-31{fill:#eaf1f8;}.cls-32{fill:#e9f0f8;}.cls-33{fill:#e8f0f7;}.cls-34{fill:#e8eff7;}.cls-35{fill:#e7eff7;}.cls-36{fill:#e6eef7;}.cls-37{fill:#e5eef6;}.cls-38{fill:#e5edf6;}.cls-39{fill:#e4edf6;}.cls-40{fill:#e3ecf6;}.cls-41{fill:#e2ecf5;}.cls-42{fill:#e2ebf5;}.cls-43{fill:#e1ebf5;}.cls-44{fill:#e0eaf5;}.cls-45{fill:#dfeaf4;}.cls-46{fill:#dfe9f4;}.cls-47{fill:#dee9f4;}.cls-48{fill:#dde8f4;}.cls-49{fill:#dce8f3;}.cls-50{fill:#dce7f3;}.cls-51{fill:#dbe7f3;}.cls-52{fill:#d9e5f1;}.cls-53{fill:#d7e3ef;}.cls-54{fill:#d5e1ed;}.cls-55{fill:#d3dfeb;}.cls-56{fill:#d1dde9;}.cls-57{fill:#cfdbe7;}.cls-58{fill:#cdd9e5;}.cls-59{fill:#cbd7e3;}.cls-60{fill:#c9d6e2;}.cls-61{fill:#c7d4e0;}.cls-62{fill:#c5d2de;}.cls-63{fill:#c4d0dc;}.cls-64{fill:#c2ceda;}.cls-65{fill:#c0ccd8;}.cls-66{fill:#becad6;}.cls-67{fill:#bcc8d4;}.cls-68{fill:#bac6d2;}.cls-69{fill:#b8c4d0;}.cls-70{fill:#b6c2ce;}.cls-71{fill:#b4c0cc;}.cls-72{fill:#b2beca;}.cls-73{fill:#b0bcc8;}.cls-74{fill:#aebac6;}.cls-75{fill:#acb8c4;}.cls-76{fill:#aab6c2;}.cls-77{fill:#a8b4c0;}.cls-78{fill:#a6b3bf;}.cls-79{fill:#a4b1bd;}.cls-80{fill:#a2afbb;}.cls-81{fill:#a0adb9;}.cls-82{fill:#9eabb7;}.cls-83{fill:#9ca9b5;}.cls-84{fill:#9aa7b3;}.cls-85{fill:#98a5b1;}.cls-86{fill:#96a3af;}.cls-87{fill:#95a1ad;}.cls-88{fill:#939fab;}.cls-89{fill:#919da9;}.cls-90{fill:#8f9ba7;}.cls-91{fill:#8d99a5;}.cls-92{fill:#8b97a3;}.cls-93{fill:#8995a1;}.cls-94{fill:#87939f;}.cls-95{fill:#85919d;}.cls-96{fill:#83909c;}.cls-97{fill:#818e9a;}.cls-98{fill:#7f8c98;}.cls-99{fill:#7d8a96;}.cls-100{fill:#7b8894;}.cls-101{fill:#798692;}.cls-102{fill:#778490;}.cls-103{fill:#75828e;}.cls-104{fill:#73808c;}.cls-105{fill:#717e8a;}.cls-106{fill:#6f7c88;}.cls-107{fill:#6d7a86;}.cls-108{fill:#6b7884;}.cls-109{fill:#697682;}.cls-110{fill:#677480;}.cls-111{fill:#66727e;}.cls-112{fill:#64707c;}.cls-113{fill:#626e7a;}.cls-114{fill:#606d79;}.cls-115{fill:#5e6b77;}.cls-116{fill:#5c6975;}.cls-117{fill:#5a6773;}.cls-118{fill:#586571;}.cls-119{fill:#56636f;}.cls-120{fill:#54616d;}.cls-121{fill:#525f6b;}.cls-122{fill:#505d69;}.cls-123{fill:none;stroke:#646e87;stroke-miterlimit:10;stroke-width:0.5px;}</style></defs><g class="cls-1"><g id="Layer_2" data-name="Layer 2"><g id="Layer_1-2" data-name="Layer 1"><g class="cls-2"><path class="cls-3" d="M10.39,0C4.62.31,0,8.45,0,18.45S4.62,36.58,10.39,36.89Z"/><path class="cls-4" d="M10.39,0C4.66.31.07,8.45.07,18.45S4.66,36.58,10.39,36.89Z"/><path class="cls-5" d="M10.39,0C4.69.32.13,8.45.13,18.45S4.69,36.57,10.39,36.89Z"/><path class="cls-6" d="M10.39,0C4.73.32.2,8.45.2,18.45S4.73,36.57,10.39,36.89Z"/><path class="cls-6" d="M10.39,0C4.77.32.26,8.46.26,18.45S4.77,36.57,10.39,36.89Z"/><path class="cls-7" d="M10.39,0C4.8.33.33,8.46.33,18.45S4.8,36.56,10.39,36.89Z"/><path class="cls-7" d="M10.39,0C4.84.33.39,8.46.39,18.45s4.45,18.11,10,18.44Z"/><path class="cls-8" d="M10.39,0C4.87.33.46,8.46.46,18.45s4.41,18.11,9.93,18.44Z"/><path class="cls-9" d="M10.39,0C4.91.34.53,8.47.53,18.45s4.38,18.1,9.86,18.44Z"/><path class="cls-10" d="M10.39,0C5,.34.59,8.47.59,18.45S5,36.55,10.39,36.89Z"/><path class="cls-10" d="M10.39,0C5,.34.66,8.47.66,18.45S5,36.55,10.39,36.89Z"/><path class="cls-11" d="M10.39,0C5,.35.72,8.47.72,18.45S5,36.54,10.39,36.89Z"/><path class="cls-11" d="M10.39,0C5.06.35.79,8.47.79,18.45s4.27,18.09,9.6,18.44Z"/><path class="cls-12" d="M10.39,0C5.09.35.85,8.48.85,18.45s4.24,18.09,9.54,18.44Z"/><path class="cls-13" d="M10.39,0C5.13.36.92,8.48.92,18.45s4.21,18.08,9.47,18.44Z"/><path class="cls-14" d="M10.39,0C5.16.36,1,8.48,1,18.45s4.18,18.08,9.41,18.44Z"/><path class="cls-14" d="M10.39,0C5.2.36,1.05,8.48,1.05,18.45S5.2,36.53,10.39,36.89Z"/><path class="cls-15" d="M10.39,0C5.24.37,1.12,8.48,1.12,18.45s4.12,18.07,9.27,18.44Z"/><path class="cls-15" d="M10.39,0C5.27.37,1.18,8.49,1.18,18.45s4.09,18.07,9.21,18.44Z"/><path class="cls-16" d="M10.39,0C5.31.37,1.25,8.49,1.25,18.45s4.06,18.07,9.14,18.44Z"/><path class="cls-17" d="M10.39,0c-5,.37-9.08,8.48-9.08,18.44s4,18.06,9.08,18.44Z"/><path class="cls-18" d="M10.39,0c-5,.37-9,8.48-9,18.44s4,18.06,9,18.43Z"/><path class="cls-18" d="M10.39,0c-5,.38-9,8.49-9,18.44s4,18.06,9,18.43Z"/><path class="cls-19" d="M10.39,0C5.45.39,1.51,8.5,1.51,18.45S5.45,36.5,10.39,36.88Z"/><path class="cls-19" d="M10.39,0C5.49.39,1.58,8.5,1.58,18.45S5.49,36.5,10.39,36.88Z"/><path class="cls-20" d="M10.39,0C5.53.4,1.64,8.5,1.64,18.45s3.89,18,8.75,18.43Z"/><path class="cls-21" d="M10.39,0C5.56.4,1.71,8.5,1.71,18.45s3.85,18,8.68,18.43Z"/><path class="cls-22" d="M10.39,0C5.6.4,1.77,8.51,1.77,18.45s3.83,18,8.62,18.43Z"/><path class="cls-22" d="M10.39,0c-4.75.4-8.55,8.5-8.55,18.44s3.8,18,8.55,18.43Z"/><path class="cls-23" d="M10.39,0C5.67.41,1.9,8.51,1.9,18.45s3.77,18,8.49,18.43Z"/><path class="cls-23" d="M10.39,0C5.71.41,2,8.51,2,18.45s3.74,18,8.42,18.43Z"/><path class="cls-24" d="M10.39,0C5.74.42,2,8.51,2,18.45s3.71,18,8.36,18.43Z"/><path class="cls-25" d="M10.39,0C5.78.42,2.1,8.52,2.1,18.45s3.68,18,8.29,18.43Z"/><path class="cls-26" d="M10.39,0C5.82.42,2.17,8.52,2.17,18.45s3.65,18,8.22,18.43Z"/><path class="cls-26" d="M10.39,0C5.85.43,2.23,8.52,2.23,18.45s3.62,18,8.16,18.43Z"/><path class="cls-27" d="M10.39,0C5.89.43,2.3,8.52,2.3,18.45s3.59,18,8.09,18.43Z"/><path class="cls-27" d="M10.39,0c-4.46.42-8,8.51-8,18.44s3.57,18,8,18.43Z"/><path class="cls-28" d="M10.39,0c-4.43.43-8,8.52-8,18.44s3.53,18,8,18.43Z"/><path class="cls-28" d="M10.39,0C6,.44,2.49,8.53,2.49,18.45s3.51,18,7.9,18.43Z"/><path class="cls-29" d="M10.39,0C6,.44,2.56,8.53,2.56,18.45s3.48,18,7.83,18.43Z"/><path class="cls-30" d="M10.39,0C6.07.45,2.63,8.53,2.63,18.45s3.44,18,7.76,18.43Z"/><path class="cls-31" d="M10.39,0c-4.28.44-7.7,8.53-7.7,18.44s3.42,18,7.7,18.43Z"/><path class="cls-31" d="M10.39,0C6.14.45,2.76,8.54,2.76,18.45s3.38,18,7.63,18.43Z"/><path class="cls-32" d="M10.39,0C6.18.46,2.82,8.54,2.82,18.45s3.36,18,7.57,18.43Z"/><path class="cls-32" d="M10.39,0c-4.17.45-7.5,8.53-7.5,18.44s3.33,18,7.5,18.43Z"/><path class="cls-33" d="M10.39,0C6.25.46,3,8.54,3,18.45s3.3,18,7.44,18.43Z"/><path class="cls-34" d="M10.39,0C6.29.47,3,8.55,3,18.45s3.27,18,7.37,18.43Z"/><path class="cls-35" d="M10.39,0C6.33.47,3.08,8.55,3.08,18.45s3.25,18,7.31,18.43Z"/><path class="cls-35" d="M10.39,0c-4,.47-7.24,8.54-7.24,18.44s3.21,18,7.24,18.43Z"/><path class="cls-36" d="M10.39,0C6.4.48,3.22,8.55,3.22,18.45s3.18,18,7.17,18.43Z"/><path class="cls-36" d="M10.39,0c-4,.47-7.11,8.54-7.11,18.44s3.15,18,7.11,18.43Z"/><path class="cls-37" d="M10.39,0c-3.92.48-7,8.55-7,18.44s3.12,18,7,18.43Z"/><path class="cls-38" d="M10.39,0c-3.88.48-7,8.55-7,18.44s3.1,18,7,18.43Z"/><path class="cls-39" d="M10.39,0C6.54.49,3.48,8.56,3.48,18.45s3.06,18,6.91,18.43Z"/><path class="cls-39" d="M10.39,0C6.58.5,3.54,8.56,3.54,18.45s3,17.94,6.85,18.43Z"/><path class="cls-40" d="M10.39,0C6.62.5,3.61,8.57,3.61,18.45s3,17.94,6.78,18.43Z"/><path class="cls-40" d="M10.39,0C6.65.5,3.68,8.57,3.68,18.45s3,17.94,6.71,18.43Z"/><path class="cls-41" d="M10.39,0C6.69.51,3.74,8.57,3.74,18.45s3,17.93,6.65,18.43Z"/><path class="cls-42" d="M10.39,0C6.72.51,3.81,8.57,3.81,18.45s2.91,17.93,6.58,18.42Z"/><path class="cls-43" d="M10.39,0C6.76.51,3.87,8.57,3.87,18.45s2.89,17.93,6.52,18.42Z"/><path class="cls-43" d="M10.39,0C6.8.52,3.94,8.58,3.94,18.45S6.8,36.37,10.39,36.87Z"/><path class="cls-44" d="M10.39,0C6.83.52,4,8.58,4,18.45s2.83,17.92,6.39,18.42Z"/><path class="cls-44" d="M10.39,0C6.87.52,4.07,8.58,4.07,18.45s2.8,17.92,6.32,18.42Z"/><path class="cls-45" d="M10.39,0C6.91.53,4.13,8.58,4.13,18.45s2.78,17.91,6.26,18.42Z"/><path class="cls-46" d="M10.39,0C6.94.53,4.2,8.58,4.2,18.45s2.74,17.91,6.19,18.42Z"/><path class="cls-47" d="M10.39,0C7,.53,4.27,8.59,4.27,18.45S7,36.36,10.39,36.87Z"/><path class="cls-47" d="M10.39,0C7,.54,4.33,8.59,4.33,18.45S7,36.35,10.39,36.87Z"/><path class="cls-48" d="M10.39,0c-3.34.52-6,8.57-6,18.43s2.65,17.9,6,18.42Z"/><path class="cls-48" d="M10.39,0C7.09.54,4.46,8.59,4.46,18.45s2.63,17.9,5.93,18.42Z"/><path class="cls-49" d="M10.39,0C7.12.55,4.53,8.6,4.53,18.45s2.59,17.89,5.86,18.42Z"/><path class="cls-50" d="M10.39,0C7.16.55,4.59,8.6,4.59,18.45s2.57,17.89,5.8,18.42Z"/><path class="cls-51" d="M10.39,0C7.2.56,4.66,8.6,4.66,18.45S7.2,36.34,10.39,36.87Z"/><path class="cls-52" d="M10.39,0C7.24.57,4.73,8.61,4.73,18.45s2.51,17.87,5.66,18.42Z"/><path class="cls-53" d="M10.39,0C7.28.58,4.81,8.62,4.81,18.45s2.47,17.86,5.58,18.42Z"/><path class="cls-54" d="M10.39,0C7.32.59,4.88,8.62,4.88,18.45S7.32,36.3,10.39,36.86Z"/><path class="cls-55" d="M10.39,0C7.36.61,5,8.63,5,18.45s2.4,17.83,5.43,18.41Z"/><path class="cls-56" d="M10.39,0C7.4.62,5,8.64,5,18.45S7.4,36.27,10.39,36.86Z"/><path class="cls-57" d="M10.39,0C7.44.63,5.1,8.65,5.1,18.45s2.34,17.81,5.29,18.41Z"/><path class="cls-58" d="M10.39,0C7.48.65,5.18,8.66,5.18,18.45s2.3,17.79,5.21,18.4Z"/><path class="cls-59" d="M10.39,0C7.52.66,5.25,8.66,5.25,18.45s2.27,17.78,5.14,18.4Z"/><path class="cls-60" d="M10.39,0C7.57.67,5.33,8.67,5.33,18.45s2.24,17.77,5.06,18.4Z"/><path class="cls-61" d="M10.39,0c-2.78.65-5,8.64-5,18.41s2.21,17.75,5,18.4Z"/><path class="cls-62" d="M10.39,0C7.65.7,5.47,8.69,5.47,18.45s2.18,17.74,4.92,18.4Z"/><path class="cls-63" d="M10.39.05C7.69.71,5.55,8.7,5.55,18.45s2.14,17.73,4.84,18.39Z"/><path class="cls-64" d="M10.39.05C7.73.73,5.62,8.7,5.62,18.45s2.11,17.71,4.77,18.39Z"/><path class="cls-65" d="M10.39.05C7.77.74,5.7,8.71,5.7,18.45s2.07,17.7,4.69,18.39Z"/><path class="cls-66" d="M10.39.05c-2.58.7-4.62,8.67-4.62,18.4s2,17.69,4.62,18.39Z"/><path class="cls-67" d="M10.39.06C7.85.77,5.84,8.73,5.84,18.45s2,17.68,4.55,18.38Z"/><path class="cls-68" d="M10.39.06C7.9.78,5.92,8.74,5.92,18.45s2,17.66,4.47,18.38Z"/><path class="cls-69" d="M10.39.06C7.94.79,6,8.74,6,18.45s2,17.65,4.4,18.38Z"/><path class="cls-70" d="M10.39.06C8,.8,6.07,8.75,6.07,18.45S8,36.09,10.39,36.83Z"/><path class="cls-71" d="M10.39.07C8,.82,6.14,8.76,6.14,18.45S8,36.07,10.39,36.82Z"/><path class="cls-72" d="M10.39.07C8.06.83,6.21,8.77,6.21,18.45s1.85,17.61,4.18,18.37Z"/><path class="cls-73" d="M10.39.07C8.1.84,6.29,8.78,6.29,18.45s1.81,17.6,4.1,18.37Z"/><path class="cls-74" d="M10.39.07c-2.25.79-4,8.71-4,18.38s1.78,17.58,4,18.37Z"/><path class="cls-75" d="M10.39.08C8.18.87,6.44,8.79,6.44,18.45s1.74,17.57,4,18.36Z"/><path class="cls-76" d="M10.39.08C8.23.88,6.51,8.8,6.51,18.45S8.23,36,10.39,36.81Z"/><path class="cls-77" d="M10.39.08C8.27.9,6.58,8.81,6.58,18.45S8.27,36,10.39,36.81Z"/><path class="cls-78" d="M10.39.08C8.31.91,6.66,8.82,6.66,18.45S8.31,36,10.39,36.81Z"/><path class="cls-79" d="M10.39.08c-2,.84-3.66,8.74-3.66,18.37S8.35,36,10.39,36.81Z"/><path class="cls-80" d="M10.39.09c-2,.85-3.58,8.74-3.58,18.36S8.39,36,10.39,36.8Z"/><path class="cls-81" d="M10.39.09C8.43,1,6.88,8.84,6.88,18.45S8.43,35.94,10.39,36.8Z"/><path class="cls-82" d="M10.39.09C8.47,1,7,8.85,7,18.45S8.47,35.93,10.39,36.8Z"/><path class="cls-83" d="M10.39.09C8.51,1,7,8.85,7,18.45S8.51,35.91,10.39,36.8Z"/><path class="cls-84" d="M10.39.1C8.55,1,7.1,8.86,7.1,18.45S8.55,35.9,10.39,36.79Z"/><path class="cls-85" d="M10.39.1C8.6,1,7.18,8.87,7.18,18.45S8.6,35.89,10.39,36.79Z"/><path class="cls-86" d="M10.39.1C8.64,1,7.25,8.88,7.25,18.45s1.39,17.43,3.14,18.34Z"/><path class="cls-87" d="M10.39.1C8.68,1,7.32,8.89,7.32,18.45s1.36,17.41,3.07,18.34Z"/><path class="cls-88" d="M10.39.11c-1.67.93-3,8.78-3,18.34s1.32,17.4,3,18.33Z"/><path class="cls-89" d="M10.39.11C8.76,1.05,7.47,8.9,7.47,18.45s1.29,17.39,2.92,18.33Z"/><path class="cls-90" d="M10.39.11c-1.59,1-2.84,8.8-2.84,18.34S8.8,35.82,10.39,36.78Z"/><path class="cls-91" d="M10.39.11c-1.55,1-2.77,8.81-2.77,18.34s1.22,17.36,2.77,18.33Z"/><path class="cls-92" d="M10.39.12c-1.51,1-2.7,8.81-2.7,18.33s1.19,17.35,2.7,18.33Z"/><path class="cls-93" d="M10.39.12c-1.46,1-2.62,8.81-2.62,18.33s1.16,17.33,2.62,18.32Z"/><path class="cls-94" d="M10.39.12C9,1.12,7.84,8.94,7.84,18.45S9,35.77,10.39,36.77Z"/><path class="cls-95" d="M10.39.12C9,1.13,7.92,9,7.92,18.45S9,35.76,10.39,36.77Z"/><path class="cls-96" d="M10.39.12C9.05,1.15,8,9,8,18.45s1.06,17.29,2.4,18.32Z"/><path class="cls-97" d="M10.39.13C9.09,1.16,8.06,9,8.06,18.45s1,17.28,2.33,18.31Z"/><path class="cls-98" d="M10.39.13C9.13,1.17,8.14,9,8.14,18.45s1,17.27,2.25,18.31Z"/><path class="cls-99" d="M10.39.13C9.17,1.19,8.21,9,8.21,18.45s1,17.25,2.18,18.31Z"/><path class="cls-100" d="M10.39.13C9.21,1.2,8.29,9,8.29,18.45s.92,17.24,2.1,18.31Z"/><path class="cls-101" d="M10.39.14c-1.13,1.07-2,8.86-2,18.31s.9,17.23,2,18.3Z"/><path class="cls-102" d="M10.39.14c-1.09,1.09-2,8.87-2,18.31s.87,17.22,2,18.3Z"/><path class="cls-103" d="M10.39.14C9.34,1.24,8.51,9,8.51,18.45s.83,17.2,1.88,18.3Z"/><path class="cls-104" d="M10.39.14C9.38,1.25,8.58,9,8.58,18.45s.8,17.19,1.81,18.3Z"/><path class="cls-105" d="M10.39.15C9.42,1.26,8.66,9,8.66,18.45s.76,17.18,1.73,18.29Z"/><path class="cls-106" d="M10.39.15C9.46,1.28,8.73,9,8.73,18.45s.73,17.16,1.66,18.29Z"/><path class="cls-107" d="M10.39.15C9.5,1.29,8.8,9.05,8.8,18.45s.7,17.15,1.59,18.29Z"/><path class="cls-108" d="M10.39.15c-.85,1.15-1.51,8.9-1.51,18.3s.66,17.14,1.51,18.29Z"/><path class="cls-109" d="M10.39.16C9.58,1.32,9,9.06,9,18.45s.63,17.12,1.44,18.29Z"/><path class="cls-110" d="M10.39.16C9.63,1.33,9,9.07,9,18.45s.6,17.11,1.36,18.28Z"/><path class="cls-111" d="M10.39.16C9.67,1.34,9.1,9.08,9.1,18.45s.57,17.1,1.29,18.28Z"/><path class="cls-112" d="M10.39.16c-.68,1.2-1.22,8.93-1.22,18.29s.54,17.08,1.22,18.28Z"/><path class="cls-113" d="M10.39.16C9.75,1.37,9.25,9.09,9.25,18.45s.5,17.07,1.14,18.28Z"/><path class="cls-114" d="M10.39.17C9.79,1.38,9.32,9.1,9.32,18.45s.47,17.06,1.07,18.27Z"/><path class="cls-115" d="M10.39.17c-.56,1.23-1,8.94-1,18.28s.43,17,1,18.27Z"/><path class="cls-116" d="M10.39.17c-.52,1.24-.92,9-.92,18.28s.4,17,.92,18.27Z"/><path class="cls-117" d="M10.39.17c-.48,1.25-.85,9-.85,18.28s.37,17,.85,18.27Z"/><path class="cls-118" d="M10.39.18c-.43,1.26-.77,9-.77,18.27s.34,17,.77,18.26Z"/><path class="cls-119" d="M10.39.18c-.39,1.27-.7,9-.7,18.27s.31,17,.7,18.26Z"/><path class="cls-120" d="M10.39.18c-.35,1.28-.62,9-.62,18.27s.27,17,.62,18.26Z"/><path class="cls-121" d="M10.39.18c-.31,1.3-.55,9-.55,18.27s.24,17,.55,18.26Z"/><path class="cls-122" d="M10.39.19c-.27,1.3-.48,9-.48,18.26s.21,17,.48,18.25Z"/></g><line class="cls-123" x1="10.39" y1="36.89" x2="10.39"/></g></g></g></svg>