<svg xmlns="http://www.w3.org/2000/svg" viewBox="0 0 18.27 15.07"><defs><style>.cls-1{fill:#7384c9;}</style></defs><g id="Layer_2" data-name="Layer 2"><g id="Layer_1-2" data-name="Layer 1"><path class="cls-1" d="M18.24.32A.42.42,0,0,0,18,0a1.35,1.35,0,0,0-.72.06S1.24,5.84.33,6.48c-.2.13-.27.21-.3.31-.16.45.34.65.34.65L4.49,8.79s.16,0,.21,0c.94-.59,9.44-6,9.94-6.14.07,0,.13,0,.11.06-.19.68-7.58,7.25-7.58,7.25a.27.27,0,0,0,0,.08h0L6.73,14.1s-.16,1.26,1.09,0c.89-.88,1.74-1.62,2.17-2,1.42,1,2.95,2.06,3.61,2.63a1.14,1.14,0,0,0,.83.32c.63,0,.8-.71.8-.71s2.92-11.74,3-13.31c0-.16,0-.26,0-.36A1.7,1.7,0,0,0,18.24.32Z"/></g></g>
</svg>