<svg xmlns="http://www.w3.org/2000/svg" viewBox="0 0 20.28 23.09"><defs><style>.cls-1{fill:#fff;}</style></defs><g id="Layer_2" data-name="Layer 2"><g id="Layer_1-2" data-name="Layer 1"><path class="cls-1" d="M10.83,12.77a6.31,6.31,0,0,1-3.55-1.08,6.37,6.37,0,1,1,3.55,1.08Zm0-11.1A4.71,4.71,0,0,0,9.91,11a4.61,4.61,0,0,0,2.72-.27,4.71,4.71,0,0,0,2.92-4.36,4.79,4.79,0,0,0-1.39-3.33,4.72,4.72,0,0,0-3.33-1.38Z"/><path class="cls-1" d="M.83,21.65a.83.83,0,0,1-.58-.24A.83.83,0,0,1,0,20.82,9.75,9.75,0,0,1,9.72,11.1h2.22a.83.83,0,0,1,.59.25.85.85,0,0,1,.24.59.82.82,0,0,1-.83.83H9.72a8.06,8.06,0,0,0-8,8.05.93.93,0,0,1-.25.59A.87.87,0,0,1,.83,21.65Z"/><path class="cls-1" d="M20,19.12h0l-2.54-2.54a.83.83,0,0,0-1.18,1.18l1.13,1.13H10.48a.83.83,0,1,0,0,1.66h7L16.3,21.67a.85.85,0,0,0,0,1.18.83.83,0,0,0,1.18,0L20,20.31h0a.79.79,0,0,0,.25-.59A.81.81,0,0,0,20,19.12Z"/></g></g></svg>