<svg xmlns="http://www.w3.org/2000/svg" viewBox="0 0 19.1 22.62"><defs><style>.cls-1{fill:#fff;}</style></defs><g id="Layer_2" data-name="Layer 2"><g id="Layer_1-2" data-name="Layer 1"><path class="cls-1" d="M9.8,11.56A5.78,5.78,0,0,1,4.13,4.65a5.83,5.83,0,0,1,1.58-3A5.78,5.78,0,0,1,12,.44,5.78,5.78,0,0,1,9.8,11.56Zm0-10a4.29,4.29,0,0,0-4,2.64A4.27,4.27,0,0,0,6.78,8.8,4.23,4.23,0,0,0,9,10a4.34,4.34,0,0,0,2.47-.24A4.27,4.27,0,0,0,9.8,1.51Z"/><path class="cls-1" d="M.75,19.6a.92.92,0,0,1-.53-.15A.45.45,0,0,1,0,19.09a5.26,5.26,0,0,1,2.58-4.22A11.22,11.22,0,0,1,8.8,13.12h2a.92.92,0,0,1,.53.15.4.4,0,0,1,0,.72.92.92,0,0,1-.53.15H8c-4,.4-6.47,2.59-6.47,4.95a.46.46,0,0,1-.23.36A.92.92,0,0,1,.75,19.6Z"/><path class="cls-1" d="M14.32,22.62a.85.85,0,0,1-.53-.23.75.75,0,0,1-.22-.53v-8a.75.75,0,0,1,.75-.75.77.77,0,0,1,.54.22.75.75,0,0,1,.22.53v8a.72.72,0,0,1-.23.53A.8.8,0,0,1,14.32,22.62Z"/><path class="cls-1" d="M18.35,18.6h-8a.75.75,0,0,1-.53-.22.79.79,0,0,1-.22-.54.75.75,0,0,1,.75-.75h8.05a.75.75,0,0,1,.75.75.79.79,0,0,1-.22.54A.75.75,0,0,1,18.35,18.6Z"/></g></g></svg>