<svg xmlns="http://www.w3.org/2000/svg" viewBox="0 0 21.82 14.93"><defs><style>.cls-1{fill:#7384c9;}</style></defs><g id="Layer_2" data-name="Layer 2"><g id="Layer_1-2" data-name="Layer 1"><path class="cls-1" d="M21.37,2.33A2.68,2.68,0,0,0,19.44.45C17.74,0,10.91,0,10.91,0S4.09,0,2.39.45A2.68,2.68,0,0,0,.46,2.33,27,27,0,0,0,0,7.47,26.86,26.86,0,0,0,.46,12.6a2.71,2.71,0,0,0,1.93,1.89c1.7.44,8.52.44,8.52.44s6.83,0,8.53-.44a2.71,2.71,0,0,0,1.93-1.89,27.44,27.44,0,0,0,.45-5.13A27.53,27.53,0,0,0,21.37,2.33ZM8.73,10.66V4.27l5.67,3.2Z"/></g></g>
</svg>