<svg xmlns="http://www.w3.org/2000/svg" viewBox="0 0 142.18 41.5"><defs><style>.cls-1{fill:none;stroke:gray;stroke-miterlimit:10;}.cls-2{fill:gray;}</style></defs><g id="Layer_2" data-name="Layer 2"><g id="Layer_1-2" data-name="Layer 1"><path class="cls-1" d="M141.68,36.94A4.06,4.06,0,0,1,137.62,41H4.57A4.06,4.06,0,0,1,.5,36.94V4.57A4.07,4.07,0,0,1,4.57.5h133a4.07,4.07,0,0,1,4.07,4.06h0V36.94Z"/><path class="cls-2" d="M31.5,20.53a6.15,6.15,0,0,1,2.93-5.16,6.33,6.33,0,0,0-5-2.68c-2.08-.22-4.11,1.25-5.17,1.25s-2.72-1.23-4.48-1.19a6.63,6.63,0,0,0-5.56,3.39c-2.4,4.16-.61,10.27,1.69,13.63,1.15,1.65,2.5,3.48,4.26,3.42s2.37-1.1,4.45-1.1,2.66,1.1,4.46,1.06,3-1.66,4.12-3.32A13.5,13.5,0,0,0,35.13,26a6,6,0,0,1-3.63-5.46Zm-3.39-10a6,6,0,0,0,1.38-4.33,6.14,6.14,0,0,0-4,2.06,5.71,5.71,0,0,0-1.42,4.17A5.1,5.1,0,0,0,28.11,10.48Z"/><path class="cls-2" d="M56.46,33H54.05l-1.32-4.14H48.15L46.89,33H44.55l4.54-14.1H51.9L56.46,33Zm-4.13-5.88-1.19-3.68c-.12-.38-.36-1.27-.71-2.66h0c-.14.6-.37,1.49-.67,2.66l-1.17,3.68Zm15.79.67a5.75,5.75,0,0,1-1.41,4.1,4.11,4.11,0,0,1-3.14,1.34,3.14,3.14,0,0,1-2.9-1.44v5.34H58.41v-11c0-1.08,0-2.2-.09-3.34h2l.13,1.61h0a4,4,0,0,1,6.44-.4,5.63,5.63,0,0,1,1.2,3.75Zm-2.3.08a4.19,4.19,0,0,0-.67-2.45,2.34,2.34,0,0,0-2-1,2.41,2.41,0,0,0-1.52.55,2.64,2.64,0,0,0-.89,1.46,3.19,3.19,0,0,0-.1.69v1.7a2.74,2.74,0,0,0,.68,1.87,2.24,2.24,0,0,0,1.77.76,2.34,2.34,0,0,0,2-1A4.37,4.37,0,0,0,65.82,27.82Zm14-.08a5.75,5.75,0,0,1-1.41,4.1,4.09,4.09,0,0,1-3.13,1.34,3.15,3.15,0,0,1-2.91-1.44v5.34H70.11v-11c0-1.08,0-2.2-.08-3.34h2l.13,1.61h0a4,4,0,0,1,6.44-.4,5.63,5.63,0,0,1,1.2,3.75Zm-2.3.08a4.19,4.19,0,0,0-.67-2.45,2.33,2.33,0,0,0-2-1,2.43,2.43,0,0,0-1.52.55,2.57,2.57,0,0,0-.88,1.46,3,3,0,0,0-.11.69v1.7a2.74,2.74,0,0,0,.68,1.87,2.24,2.24,0,0,0,1.77.76,2.34,2.34,0,0,0,2-1A4.37,4.37,0,0,0,77.52,27.82ZM92.91,29a3.76,3.76,0,0,1-1.26,2.93,5.55,5.55,0,0,1-3.84,1.23,6.66,6.66,0,0,1-3.65-.88l.52-1.88a6.26,6.26,0,0,0,3.27.88,3,3,0,0,0,2-.58,1.85,1.85,0,0,0,.72-1.53,2,2,0,0,0-.59-1.45,5.54,5.54,0,0,0-2-1.09c-2.47-.92-3.7-2.26-3.7-4a3.56,3.56,0,0,1,1.3-2.84,5.2,5.2,0,0,1,3.47-1.11,6.8,6.8,0,0,1,3.2.67l-.56,1.84a5.67,5.67,0,0,0-2.72-.65,2.78,2.78,0,0,0-1.87.59,1.68,1.68,0,0,0-.56,1.27,1.73,1.73,0,0,0,.65,1.39,7.37,7.37,0,0,0,2.05,1.08,6.93,6.93,0,0,1,2.68,1.72A3.59,3.59,0,0,1,92.91,29Zm7.49-4.52H97.91v4.94c0,1.25.44,1.88,1.32,1.88a4,4,0,0,0,1-.11l.07,1.72a5.09,5.09,0,0,1-1.76.25,2.72,2.72,0,0,1-2.1-.82,4,4,0,0,1-.75-2.74V24.47H94.21V22.78h1.48V20.91l2.22-.67v2.54h2.49v1.7Zm11.22,3.3a5.52,5.52,0,0,1-1.34,3.85,4.74,4.74,0,0,1-3.72,1.55A4.53,4.53,0,0,1,103,31.7,5.39,5.39,0,0,1,101.66,28,5.5,5.5,0,0,1,103,24.08a4.75,4.75,0,0,1,3.69-1.51,4.63,4.63,0,0,1,3.6,1.49,5.32,5.32,0,0,1,1.3,3.72Zm-2.34,0a4.51,4.51,0,0,0-.61-2.4,2.24,2.24,0,0,0-2-1.21,2.28,2.28,0,0,0-2.07,1.21,4.62,4.62,0,0,0-.61,2.45,4.51,4.51,0,0,0,.61,2.4,2.28,2.28,0,0,0,2.05,1.21,2.25,2.25,0,0,0,2-1.23,4.56,4.56,0,0,0,.63-2.43ZM119,24.77a3.35,3.35,0,0,0-.71-.06,2.11,2.11,0,0,0-1.84.9,3.36,3.36,0,0,0-.57,2V33h-2.26V26c0-1.06,0-2.13-.06-3.2h2l.08,1.95h.06a3.5,3.5,0,0,1,1.13-1.61,2.7,2.7,0,0,1,1.64-.55,4.6,4.6,0,0,1,.56,0v2.16Zm10.11,2.62a5,5,0,0,1-.08,1h-6.78a2.94,2.94,0,0,0,1,2.3,3.35,3.35,0,0,0,2.22.72,7.36,7.36,0,0,0,2.75-.49l.35,1.57a8.47,8.47,0,0,1-3.41.63,4.93,4.93,0,0,1-3.72-1.39A5.14,5.14,0,0,1,120,28a5.78,5.78,0,0,1,1.26-3.82,4.33,4.33,0,0,1,3.56-1.64,3.81,3.81,0,0,1,3.33,1.64,5.53,5.53,0,0,1,.89,3.2Zm-2.15-.59a3.09,3.09,0,0,0-.44-1.74,2,2,0,0,0-1.8-.94,2.13,2.13,0,0,0-1.8.92,3.37,3.37,0,0,0-.67,1.76Z"/><path class="cls-2" d="M47.5,13.86a15,15,0,0,1-1.63-.08V7a13.53,13.53,0,0,1,1.91-.14c2.6,0,3.79,1.28,3.79,3.35C51.57,12.56,50.16,13.86,47.5,13.86Zm.38-6.17a4.7,4.7,0,0,0-.9.07v5.18a6.11,6.11,0,0,0,.75,0A2.45,2.45,0,0,0,50.4,10.2,2.26,2.26,0,0,0,47.88,7.69Zm7.41,6.22a2.38,2.38,0,0,1-2.41-2.57,2.44,2.44,0,0,1,2.49-2.65,2.37,2.37,0,0,1,2.41,2.57A2.45,2.45,0,0,1,55.29,13.91Zm0-4.4c-.8,0-1.31.75-1.31,1.8s.52,1.78,1.3,1.78,1.31-.81,1.31-1.8-.52-1.78-1.3-1.78ZM66.11,8.8l-1.56,5h-1l-.65-2.17c-.16-.54-.29-1.07-.4-1.62h0a11.27,11.27,0,0,1-.4,1.62l-.69,2.17h-1l-1.47-5H60l.57,2.37c.13.57.24,1.1.34,1.61h0a15.18,15.18,0,0,1,.41-1.6l.71-2.38H63l.68,2.33c.17.57.3,1.13.41,1.65h0a13.13,13.13,0,0,1,.34-1.65L65,8.8Zm5.76,5H70.76V10.93c0-.89-.34-1.33-1-1.33a1.15,1.15,0,0,0-1.11,1.22v3H67.53V10.23c0-.45,0-.92,0-1.43h1l0,.77h0a1.78,1.78,0,0,1,1.58-.88c1.05,0,1.74.81,1.74,2.11v3Zm3.07,0H73.82V6.5h1.12Zm4,.11a2.38,2.38,0,0,1-2.41-2.57,2.44,2.44,0,0,1,2.49-2.65,2.37,2.37,0,0,1,2.41,2.57A2.45,2.45,0,0,1,79,13.91Zm0-4.4c-.8,0-1.32.75-1.32,1.8s.53,1.78,1.31,1.78,1.3-.81,1.3-1.8S79.81,9.51,79,9.51Zm6.83,4.29-.08-.58h0a1.72,1.72,0,0,1-1.46.69,1.46,1.46,0,0,1-1.54-1.47c0-1.24,1.07-1.87,2.93-1.87v-.1c0-.65-.35-1-1-1a2.33,2.33,0,0,0-1.31.37l-.22-.73a3.17,3.17,0,0,1,1.71-.44c1.31,0,2,.69,2,2.07V12.6a7.63,7.63,0,0,0,.07,1.2Zm-.15-2.49c-1.24,0-1.86.3-1.86,1a.71.71,0,0,0,.76.79,1.08,1.08,0,0,0,1.1-1Zm6.47,2.49L92.13,13h0a1.67,1.67,0,0,1-1.6.92,2.28,2.28,0,0,1-2.1-2.55c0-1.57.92-2.67,2.19-2.67A1.51,1.51,0,0,1,92,9.37h0V6.5h1.11v5.95c0,.48,0,.94,0,1.35Zm-.16-3a1.21,1.21,0,0,0-1.17-1.29c-.82,0-1.33.73-1.33,1.76S90,13,90.83,13A1.25,1.25,0,0,0,92,11.69v-.84Zm8.16,3.06a2.37,2.37,0,0,1-2.4-2.57,2.44,2.44,0,0,1,2.49-2.65,2.37,2.37,0,0,1,2.41,2.57,2.45,2.45,0,0,1-2.5,2.65Zm0-4.4c-.81,0-1.32.75-1.32,1.8s.53,1.78,1.31,1.78,1.3-.81,1.3-1.8-.51-1.78-1.29-1.78Zm8.42,4.29h-1.11V10.93c0-.89-.34-1.33-1-1.33a1.15,1.15,0,0,0-1.11,1.22v3h-1.11V10.23c0-.45,0-.92,0-1.43h1l.06.77h0a1.78,1.78,0,0,1,1.58-.88c1,0,1.74.81,1.74,2.11Zm7.48-4.17h-1.22v2.43c0,.62.21.92.64.92a2.34,2.34,0,0,0,.5-.05l0,.85a2.6,2.6,0,0,1-.87.12c-.87,0-1.4-.48-1.4-1.75V9.63h-.72V8.8h.72V7.88l1.1-.33V8.8h1.22v.83ZM122,13.8H120.9V11c0-.9-.34-1.35-1-1.35a1.09,1.09,0,0,0-1.11,1.18v3h-1.11V6.5h1.11v3h0a1.69,1.69,0,0,1,1.51-.82c1,0,1.7.83,1.7,2.13v3Zm6-2.24H124.7A1.43,1.43,0,0,0,126.28,13a3.86,3.86,0,0,0,1.35-.23l.17.77a4.1,4.1,0,0,1-1.68.31,2.32,2.32,0,0,1-2.49-2.52A2.45,2.45,0,0,1,126,8.68a2.11,2.11,0,0,1,2.08,2.38,2.74,2.74,0,0,1,0,.5Zm-1-.79c0-.77-.39-1.31-1.1-1.31a1.32,1.32,0,0,0-1.22,1.31Z"/></g></g></svg>