<svg xmlns="http://www.w3.org/2000/svg" viewBox="0 0 68.91 18.94"><defs><style>.cls-1{fill:#8c8d91;fill-rule:evenodd;}</style></defs><g id="Layer_2" data-name="Layer 2"><g id="Layer_1-2" data-name="Layer 1"><path class="cls-1" d="M65.74,7.09a10.32,10.32,0,0,1-2,.66L62.57,8a2.91,2.91,0,0,0-1.33.66,2.19,2.19,0,0,0-.37,1.1A1.93,1.93,0,0,0,61.32,11a1.8,1.8,0,0,0,1.32.44,3.05,3.05,0,0,0,2.22-.8,3.2,3.2,0,0,0,.81-2.27V7.09Zm.81,6.29a6.11,6.11,0,0,1-2.28.66,20.73,20.73,0,0,1-2.14.15,5.33,5.33,0,0,1-3.18-1,3.88,3.88,0,0,1-1.4-3.29A3.54,3.54,0,0,1,58.81,6.8,7.8,7.8,0,0,1,62,5.56a1.34,1.34,0,0,0,.59-.08c.29-.07.52-.07.81-.14,1.48-.22,2.21-.66,2.21-1.32a1,1,0,0,0-.81-1,4.67,4.67,0,0,0-1.47-.22A3.4,3.4,0,0,0,62.05,3a1.45,1.45,0,0,0-.81.8H57.85a4,4,0,0,1,1.4-2.63A5.68,5.68,0,0,1,63.16,0a7.54,7.54,0,0,1,4.28,1A3.27,3.27,0,0,1,68.91,3.8V8.48a5.87,5.87,0,0,1-.73,3.22A3.29,3.29,0,0,1,66.55,13.38ZM50,14V7.39A8.89,8.89,0,0,1,50.54,4a5.31,5.31,0,0,1,1.63-2.19A6.05,6.05,0,0,1,54.45.73,11.06,11.06,0,0,1,57.11.37h.44V4H56.37a3,3,0,0,0-2.21.73A3.37,3.37,0,0,0,53.42,7v7ZM46.12,7.09a10.4,10.4,0,0,1-2,.66L42.94,8a2.91,2.91,0,0,0-1.33.66,2.17,2.17,0,0,0-.36,1.1A1.92,1.92,0,0,0,41.69,11a1.82,1.82,0,0,0,1.33.44,3,3,0,0,0,2.21-.8A3.16,3.16,0,0,0,46,8.41Zm.81,6.29a6.21,6.21,0,0,1-2.29.66,20.34,20.34,0,0,1-2.14.15,5.27,5.27,0,0,1-3.17-1,3.85,3.85,0,0,1-1.4-3.29A3.56,3.56,0,0,1,39.18,6.8a7.86,7.86,0,0,1,3.17-1.24,1.32,1.32,0,0,0,.59-.08c.3-.07.52-.07.81-.14Q46,5,46,4a1,1,0,0,0-.81-1,4.73,4.73,0,0,0-1.48-.22A3.39,3.39,0,0,0,42.43,3a1.46,1.46,0,0,0-.82.8H38.37a4.08,4.08,0,0,1,1.4-2.63A5.69,5.69,0,0,1,43.68,0,7.54,7.54,0,0,1,48,1,3.28,3.28,0,0,1,49.44,3.8V8.48a5.86,5.86,0,0,1-.74,3.22A4.33,4.33,0,0,1,46.93,13.38ZM34.24,7.17a5.36,5.36,0,0,0-.74-3.08A2.56,2.56,0,0,0,31.28,3a2.51,2.51,0,0,0-2.14,1.09,5.6,5.6,0,0,0-.73,3.08,4.68,4.68,0,0,0,.73,2.92,2.57,2.57,0,0,0,2.22,1.1,2.38,2.38,0,0,0,2.06-1.1A4.89,4.89,0,0,0,34.24,7.17Zm-5.83,10a1.72,1.72,0,0,1-.52,1.25,1.54,1.54,0,0,1-1.25.51h-1.7V6.22c0-2.42.66-4,2.07-4.9A8.23,8.23,0,0,1,31.51,0a6.36,6.36,0,0,1,2.58.51A4.87,4.87,0,0,1,36.15,1.9,8.11,8.11,0,0,1,37.7,7a8.18,8.18,0,0,1-1.55,5.19,4.69,4.69,0,0,1-3.91,2A5.73,5.73,0,0,1,30,13.75a3.87,3.87,0,0,1-1.62-1.61ZM21.18,7.09a10.4,10.4,0,0,1-2,.66L18,8a2.82,2.82,0,0,0-1.32.66,2.06,2.06,0,0,0-.37,1.09A2,2,0,0,0,16.75,11a1.82,1.82,0,0,0,1.33.44,3,3,0,0,0,2.21-.81,3.12,3.12,0,0,0,.81-2.26ZM22,13.38A6.21,6.21,0,0,1,19.7,14a20.34,20.34,0,0,1-2.14.15,5.27,5.27,0,0,1-3.17-1A3.85,3.85,0,0,1,13,9.87,3.56,3.56,0,0,1,14.24,6.8a7.86,7.86,0,0,1,3.17-1.24A1.32,1.32,0,0,0,18,5.48c.22-.07.52-.07.82-.14C20.29,5.12,21,4.68,21,4a1,1,0,0,0-.81-1,4.73,4.73,0,0,0-1.48-.22A3.39,3.39,0,0,0,17.49,3a1.42,1.42,0,0,0-.81.8h-3.4a4.08,4.08,0,0,1,1.4-2.63A5.71,5.71,0,0,1,18.59,0a7.54,7.54,0,0,1,4.28,1A3.28,3.28,0,0,1,24.35,3.8V8.48a5.78,5.78,0,0,1-.74,3.22A3.23,3.23,0,0,1,22,13.38ZM3.47,17.18A1.72,1.72,0,0,1,3,18.43a1.54,1.54,0,0,1-1.25.51H0V6.22c0-2.42.66-4,2.07-4.9A8.23,8.23,0,0,1,6.57,0,6.36,6.36,0,0,1,9.15.51,5,5,0,0,1,11.22,1.9,8.16,8.16,0,0,1,12.76,7a8.24,8.24,0,0,1-1.54,5.19,4.72,4.72,0,0,1-3.92,2,5.77,5.77,0,0,1-2.21-.44,3.87,3.87,0,0,1-1.62-1.61Zm5.75-10a5.36,5.36,0,0,0-.73-3.08A2.56,2.56,0,0,0,6.27,3,2.51,2.51,0,0,0,4.13,4.09a5.59,5.59,0,0,0-.74,3.08,4.68,4.68,0,0,0,.74,2.92,2.57,2.57,0,0,0,2.22,1.1,2.38,2.38,0,0,0,2.06-1.1A4.45,4.45,0,0,0,9.22,7.17Z"/></g></g></svg>