<svg xmlns="http://www.w3.org/2000/svg" viewBox="0 0 71.24 16.23"><defs><style>.cls-1,.cls-2{fill:#8c8d91;}.cls-2{fill-rule:evenodd;}</style></defs><g id="Layer_2" data-name="Layer 2"><g id="Layer_1-2" data-name="Layer 1"><path class="cls-1" d="M27.18,10h.67v4h-.67Z"/><path class="cls-1" d="M33.13,10v4H32.4L30.17,11V13.9H29.5V10h.67l2.29,3V10Z"/><path class="cls-1" d="M36.27,10.56V13.9h-.66V10.56h-1.2V10h3.06v.61Z"/><path class="cls-1" d="M41.53,10v.63H39.42v1h1.89v.6H39.42v1h2.17v.63H38.76V10Z"/><path class="cls-1" d="M46.16,11.23a1.16,1.16,0,0,1-.85,1.24l1,1.43h-.85l-.94-1.33h-.88V13.9H43V10h1.47a2.15,2.15,0,0,1,1.29.3,1.18,1.18,0,0,1,.39,1Zm-.89.56a.67.67,0,0,0,.2-.56.61.61,0,0,0-.2-.53,1.36,1.36,0,0,0-.75-.15h-.84V12h.82a1.18,1.18,0,0,0,.77-.18Z"/><path class="cls-1" d="M48.24,13l-.4.9h-.71l1.74-4h.71l1.74,4h-.71l-.4-.9Zm1.7-.61-.71-1.63-.72,1.63Z"/><path class="cls-1" d="M54.23,13.3a1.32,1.32,0,0,0,.59-.12,2,2,0,0,0,.52-.37l.43.44a2,2,0,0,1-1.52.7,2,2,0,0,1-1.48-.58,1.92,1.92,0,0,1-.59-1.46,2,2,0,0,1,.6-1.47,2.07,2.07,0,0,1,1.51-.59,2,2,0,0,1,1.54.68L55.4,11a1.65,1.65,0,0,0-.53-.38,1.35,1.35,0,0,0-.59-.11,1.38,1.38,0,0,0-1,.39,1.26,1.26,0,0,0-.41,1,1.35,1.35,0,0,0,.4,1,1.32,1.32,0,0,0,1,.41Z"/><path class="cls-1" d="M58.63,10.56V13.9H58V10.56h-1.2V10h3.06v.61Z"/><path class="cls-1" d="M61.12,10h.66v4h-.66Z"/><path class="cls-1" d="M65.24,13.9H64.5l-1.59-4h.75l1.21,3,1.21-3h.75l-1.59,4Z"/><path class="cls-1" d="M70.72,10v.63h-2.1v1h1.89v.6H68.62v1h2.17v.63H68V10h2.77Z"/><path class="cls-2" d="M4.78,8.3c0-2.17,2.06-5,5.54-6.48C16.45-.87,20,1.61,20.87,4c.85,2.18-.83,6-3.73,8.87a23.15,23.15,0,0,0,4.93-4.64c1.56-2.06,2.21-4,1.61-5.58C22.81.33,19.4-.41,15.07.21a32.46,32.46,0,0,0-10.33,3C1.77,4.76.24,6.56,0,8.61c-.32,3,2.87,7,10.15,7.48a41.84,41.84,0,0,0,14.6-1.38C23.93,14.73,4.7,17.13,4.78,8.3Z"/><path class="cls-2" d="M11.85,11.77A4.16,4.16,0,1,0,7.71,7.62,4.15,4.15,0,0,0,11.85,11.77Z"/><path class="cls-1" d="M31.22,6.5H29l-.42,1H27L29.36,2.2h1.49L33.2,7.54H31.64Zm-.44-1.11-.69-1.71-.68,1.71Z"/><path class="cls-1" d="M39.09,7.54V4.71L37.71,7H37L35.68,4.78V7.54H34.29V2.2h1.24L37.4,5.28,39.22,2.2h1.24l0,5.34Z"/><path class="cls-1" d="M42.82,7a2.48,2.48,0,0,1-.66-1.84v-3h1.5V5.11c0,.86.34,1.28,1,1.28s1-.42,1-1.28V2.2h1.48v3A2.48,2.48,0,0,1,46.5,7a3,3,0,0,1-3.68,0Z"/><path class="cls-1" d="M49.46,7.48a2.84,2.84,0,0,1-1-.42L49,5.94a3.22,3.22,0,0,0,1.76.53c.58,0,.87-.14.87-.43a.36.36,0,0,0-.25-.34,4.72,4.72,0,0,0-.8-.24,6.68,6.68,0,0,1-1-.27,1.66,1.66,0,0,1-.69-.48,1.31,1.31,0,0,1-.29-.89,1.55,1.55,0,0,1,.27-.88,1.73,1.73,0,0,1,.79-.62,3.29,3.29,0,0,1,1.3-.23,4.46,4.46,0,0,1,1,.12,3.31,3.31,0,0,1,.9.35l-.47,1.12a3,3,0,0,0-1.47-.41,1.26,1.26,0,0,0-.66.13.41.41,0,0,0-.2.35.34.34,0,0,0,.24.32,4.94,4.94,0,0,0,.79.22,6.26,6.26,0,0,1,1,.28,1.64,1.64,0,0,1,.69.47,1.25,1.25,0,0,1,.3.88,1.49,1.49,0,0,1-.27.87,1.76,1.76,0,0,1-.8.62,3.1,3.1,0,0,1-1.29.23,4.71,4.71,0,0,1-1.25-.16Z"/><path class="cls-1" d="M59.48,2.2V7.54H58.24L55.89,4.69V7.54H54.42V2.2h1.24L58,5V2.2Z"/><path class="cls-1" d="M65.48,6.37V7.54H61.21V2.2h4.17V3.37H62.7v.9h2.36V5.4H62.7v1Z"/><path class="cls-1" d="M66.48,3.4V2.2h4.76V3.4H69.62V7.54H68.11V3.4Z"/></g></g></svg>