<svg xmlns="http://www.w3.org/2000/svg" viewBox="0 0 69.44 17.13"><defs><style>.cls-1{fill:#8c8d91;}</style></defs><g id="Layer_2" data-name="Layer 2"><g id="Layer_1-2" data-name="Layer 1"><path class="cls-1" d="M22.6,10.07c0,.42-.31,1.94-2.92,1.94H16.94V4.54h2.74c2.32,0,2.59,1.62,2.59,2A1.71,1.71,0,0,1,21,8.19,1.87,1.87,0,0,1,22.6,10.07ZM19.51,4.9H18.06V8h1.66a1.42,1.42,0,0,0,1.43-1.44A1.53,1.53,0,0,0,19.51,4.9ZM21.35,10c0-1.54-1.63-1.68-2-1.68H18.06v3.27h1.61S21.35,11.56,21.35,10Z"/><path class="cls-1" d="M32.75,8.25c0,2.69-1.62,3.88-3.63,3.88s-3.63-1.19-3.63-3.88,1.62-3.88,3.63-3.88S32.75,5.62,32.75,8.25Zm-1.24,0c0-2.4-1.07-3.54-2.4-3.54s-2.4,1.17-2.4,3.54,1.08,3.53,2.4,3.53S31.51,10.72,31.51,8.25Z"/><path class="cls-1" d="M43.8,12H42.7l-.9-5.12L39,12,36.45,7.23,35.9,12h-.47l.86-7.47,3.08,5.79,3.18-5.79L43.85,12Z"/><path class="cls-1" d="M52.4,10.07c0,.42-.31,1.94-2.92,1.94H46.73V4.54h2.75c2.32,0,2.59,1.62,2.59,2a1.71,1.71,0,0,1-1.31,1.7A1.87,1.87,0,0,1,52.4,10.07ZM49.31,4.9H47.86V8h1.66a1.42,1.42,0,0,0,1.42-1.44A1.53,1.53,0,0,0,49.31,4.9ZM51.15,10c0-1.54-1.63-1.68-1.95-1.68H47.86v3.27h1.61S51.15,11.56,51.15,10Z"/><path class="cls-1" d="M54.76,12l3.38-7.47L61.6,12H60.35l-.64-1.42h-3.8L55.28,12Zm1.32-1.8h3.44L57.78,6.47Z"/><path class="cls-1" d="M69.44,4.54,66.72,8.78V12H65.58V8.92L62.63,4.54H64l2.51,3.72L68.9,4.54Z"/><path class="cls-1" d="M12.15,9.9A6.12,6.12,0,0,0,8.92,4.53a3,3,0,0,0,.35-1.38A2.91,2.91,0,0,0,8.08.8,3.57,3.57,0,0,0,5.37,0,3.33,3.33,0,0,0,3.28.9l-.1.1a2,2,0,0,0-.51,1.32,2,2,0,0,0,.71,1.55,1.94,1.94,0,0,0,.29.21A.26.26,0,0,0,4,4l.19-.49,0-.06h0l-.09-.05a1.53,1.53,0,0,1-.73-1.52,1.56,1.56,0,0,1,.18-.54A2.18,2.18,0,0,1,5.77.47a3.23,3.23,0,0,1,.74.19,1.58,1.58,0,0,1,.35.16h0A2.25,2.25,0,0,1,8,2.78a2.31,2.31,0,0,1-.71,1.76h0l-.23.18a3,3,0,0,1-.94.32V2.51a.3.3,0,0,0-.21-.29L5.16,2V5.11H4.48a.41.41,0,0,0-.39.26l-.19.54H5.07a6.56,6.56,0,0,1,2.06.41,6,6,0,0,1,.58.25A4.35,4.35,0,0,1,9.77,8.87a4.29,4.29,0,0,1,.28,1.53,3.75,3.75,0,0,1-.05.68,4.7,4.7,0,0,1-.41,1.35,4.78,4.78,0,0,1-4.33,2.71,4.87,4.87,0,0,1-2.75-.85c-.12-.08-.24-.18-.35-.27a4.27,4.27,0,0,1-.44-.41,3.15,3.15,0,0,1-.83-2.1A3.11,3.11,0,0,1,4.12,8.45a3.11,3.11,0,0,1,1.19.23,2.32,2.32,0,0,1,.88.61,1.82,1.82,0,0,1,0,2.25,1.29,1.29,0,0,1-1,.41,2.61,2.61,0,0,1-.67-.12.27.27,0,0,0-.34.16l-.12.32a2.46,2.46,0,0,0,.89.25h.42A2.9,2.9,0,0,0,8,9.69,2.93,2.93,0,0,0,6.1,7L6,6.93a4.73,4.73,0,0,0-1.56-.27A4.44,4.44,0,0,0,1.05,8.18,4.31,4.31,0,0,0,0,11v.13a.38.38,0,0,0,0,.1H0a2.29,2.29,0,0,0,0,.25,5.16,5.16,0,0,0,5.12,4.57v1.08l.8-.19a.26.26,0,0,0,.19-.24v-.6a6.15,6.15,0,0,0,6-6.09v0A.11.11,0,0,0,12.15,9.9Z"/></g></g></svg>