<svg xmlns="http://www.w3.org/2000/svg" viewBox="0 0 49.34 26.75"><defs><style>.cls-1{fill:#8c8d91;fill-rule:evenodd;}</style></defs><g id="Layer_2" data-name="Layer 2"><g id="Layer_1-2" data-name="Layer 1"><path class="cls-1" d="M3.73,11.42,6.35,8.89l7.78-7.51A1.58,1.58,0,0,1,14.8.91,1,1,0,0,1,16,1.33a1,1,0,0,1-.17,1.31l-2.58,2.5-9.58,9.3-.24.24a1.06,1.06,0,0,1-1.21.19,1,1,0,0,1-.6-1L1.69,7.3V2a1,1,0,0,1,.47-1,1,1,0,0,1,1.13,0,1.06,1.06,0,0,1,.46,1c0,3,0,5.89-.07,8.84Z"/><path class="cls-1" d="M22.58,11.34l10.35-10a1.4,1.4,0,0,1,.85-.49,1,1,0,0,1,1,.54,1,1,0,0,1-.18,1.23c-.38.39-.78.77-1.18,1.16L22.52,14.36c-.11.11-.22.22-.34.32a1.06,1.06,0,0,1-1.78-.86c0-1.88,0-3.77.05-5.65l0-6.25a1.09,1.09,0,0,1,.24-.8,1,1,0,0,1,.74-.36,1,1,0,0,1,.79.32,1,1,0,0,1,.27.81V11C22.5,11.11,22.45,11.22,22.58,11.34Z"/><path class="cls-1" d="M20,19.32v6.24c0,.53-.26.86-.68.86s-.68-.3-.68-.85q0-3.86,0-7.68c0-.38.05-.72.45-.89s.7.05,1,.33l3,3.13c.22.24.34.23.56,0,1-1,2-2,3-3.06.28-.28.6-.51,1-.33s.42.57.41.95c0,2.54,0,5.09-.07,7.63,0,.55-.25.84-.71.82a.72.72,0,0,1-.75-.79c0-1.83.05-3.6.06-5.41v-.76c-.21,0-.29.18-.4.29-.73.74-1.45,1.49-2.18,2.24-.55.56-.91.56-1.48,0-.73-.76-1.47-1.52-2.2-2.29C20.34,19.57,20.23,19.5,20,19.32Z"/><path class="cls-1" d="M39.28,24.08V18c0-.54.27-.86.7-.85s.68.31.67.86c0,2.54,0,5.09-.06,7.63,0,.39,0,.78-.43.93s-.71-.08-1-.37c-2-2.1-4-4.18-6-6.27-.11-.13-.21-.26-.31-.4l-.18.06v6.23a.7.7,0,0,1-.38.69.65.65,0,0,1-.73-.07.69.69,0,0,1-.27-.61l.06-8.06a.68.68,0,0,1,.42-.61.71.71,0,0,1,.84.2l2.34,2.44L39,24A.26.26,0,0,0,39.28,24.08Z"/><path class="cls-1" d="M49.29,23.7a2.41,2.41,0,0,0,0,.38,1.8,1.8,0,0,1-1.21,2,4.78,4.78,0,0,1-7-5.23,4.8,4.8,0,0,1,3.23-3.51,4.74,4.74,0,0,1,4.63,1.06c.41.39.45.75.16,1.08s-.7.33-1.12-.05a3.38,3.38,0,0,0-3.62-.55,3.43,3.43,0,0,0-2,3.1,3.26,3.26,0,0,0,1.82,2.95,3.3,3.3,0,0,0,3.4-.13.62.62,0,0,0,.36-.66q0-.72,0-1.44c0-.51.28-.79.71-.78s.66.28.66.81v1Z"/><path class="cls-1" d="M8.34,23.42a1.71,1.71,0,0,0,0,.32,1.82,1.82,0,0,1-1.14,2,4.77,4.77,0,0,1-5.29-.3A4.83,4.83,0,0,1,.15,20.38a4.71,4.71,0,0,1,3.9-3.57,4.59,4.59,0,0,1,4,1.22c.4.39.43.77.12,1.09a.74.74,0,0,1-.56.2.73.73,0,0,1-.53-.27,3.27,3.27,0,0,0-3.69-.61,3.3,3.3,0,0,0-2,3.2,3.23,3.23,0,0,0,1.81,3,3.28,3.28,0,0,0,3.43-.14A.62.62,0,0,0,7,23.85c0-.54,0-1.08,0-1.61a.61.61,0,0,1,.2-.46.63.63,0,0,1,.46-.16.71.71,0,0,1,.48.19.65.65,0,0,1,.19.49v1.12Z"/><path class="cls-1" d="M19.21,8v5.74a3.47,3.47,0,0,1-.06.64,1,1,0,0,1-1.94-.06,4.05,4.05,0,0,1,0-1.1q0-5.55.08-11.1A1.06,1.06,0,0,1,18.16.9a1,1,0,0,1,.89.25,1.07,1.07,0,0,1,.32.87c0,1.45,0,2.9,0,4.35V7.94Z"/><path class="cls-1" d="M30.43,21.18v4.48c0,.57-.23.84-.69.83s-.7-.3-.7-.85c.08-2.59,0-5.18.07-7.77,0-.53.28-.85.7-.84s.67.31.67.86v3.29Z"/><path class="cls-1" d="M41.2,0A8.19,8.19,0,0,0,33,8.24a8.15,8.15,0,1,0,16.3,0A8.21,8.21,0,0,0,41.2,0Zm-.26,11v3.1c0,.61-.28.74-.79.44-1.4-.8-2.8-1.63-4.24-2.44a1.61,1.61,0,0,1-.82-1.51V5.33c0-.66.25-.82.82-.54L40.38,7A.94.94,0,0,1,41,8C40.93,9,40.94,10,40.94,11Zm-.33-4.48c-1.46-.74-2.93-1.45-4.39-2.17-.17-.08-.38-.13-.39-.35s.22-.27.38-.33L40.32,2A2.29,2.29,0,0,1,42.1,2l4.15,1.67c.14.05.35.07.37.29s-.21.27-.37.35l-4.43,2.2a1.24,1.24,0,0,1-1.21,0ZM46.54,12l-4.23,2.45c-.61.34-.88.18-.89-.51V8.09a1.14,1.14,0,0,1,.72-1.16c1.43-.69,2.84-1.41,4.23-2.12.61-.3.88-.14.88.57v5.36a1.34,1.34,0,0,1-.71,1.31Z"/><path class="cls-1" d="M17.75,17.86c0-.36,0-.69-.39-.86a.78.78,0,0,0-.95.25L8.39,25c-.41.39-.45.77-.16,1.08s.72.3,1.13-.09l2.42-2.32a.58.58,0,0,1,.48-.21H16c.28,0,.38.07.36.36,0,.57,0,1.15,0,1.71s.26.8.7.79.66-.25.66-.8V21.67h.07Zm-1.47,4.28c-.25.26-.78.06-1.21.08H13.34l3-2.92v1.63c0,.39.18.93-.08,1.19Z"/><path class="cls-1" d="M43.7,11.74a1.91,1.91,0,0,1-.22.88c-.11.22-.26.42-.52.38s-.33-.24-.4-.46a1.81,1.81,0,0,1,.15-1.33c.1-.21.25-.41.52-.38s.34.24.4.46S43.68,11.59,43.7,11.74Z"/><path class="cls-1" d="M46.52,6.78a1.81,1.81,0,0,1-.29,1.1c-.26.38-.6.35-.79-.08a1.69,1.69,0,0,1,.11-1.47.52.52,0,0,1,.5-.35c.26,0,.34.22.4.44A1.91,1.91,0,0,1,46.52,6.78Z"/><path class="cls-1" d="M45.25,9.36a1.6,1.6,0,0,1-.33,1.1.41.41,0,0,1-.75-.14,1.7,1.7,0,0,1,.2-1.59c.24-.38.6-.32.79.11A1.3,1.3,0,0,1,45.25,9.36Z"/><path class="cls-1" d="M38.72,8.51c0-.37,0-.84.44-.9s.61.39.69.77a1.67,1.67,0,0,1,0,1c-.08.19-.19.38-.41.39A.46.46,0,0,1,39,9.47,1.72,1.72,0,0,1,38.72,8.51Z"/><path class="cls-1" d="M39.93,12.28c0,.3,0,.77-.45.83s-.56-.42-.67-.79a1.49,1.49,0,0,1,.08-1.08.38.38,0,0,1,.32-.27.39.39,0,0,1,.38.17A1.56,1.56,0,0,1,39.93,12.28Z"/><path class="cls-1" d="M37.18,11.06a.43.43,0,0,1,0,.16c-.06.22-.12.46-.39.51s-.41-.17-.51-.39A1.59,1.59,0,0,1,36.2,10c.17-.39.48-.42.74-.07A1.69,1.69,0,0,1,37.18,11.06Z"/><path class="cls-1" d="M36.06,7.2c0-.33,0-.76.4-.83s.54.35.64.69a1.44,1.44,0,0,1,0,.87c-.06.2-.15.4-.37.42s-.38-.15-.49-.35A1.57,1.57,0,0,1,36.06,7.2Z"/><path class="cls-1" d="M41.35,3.11a1.47,1.47,0,0,1,1,.3.62.62,0,0,1,0,1,1.88,1.88,0,0,1-2.13,0,.63.63,0,0,1,0-1A1.67,1.67,0,0,1,41.35,3.11Z"/></g></g></svg>