<svg xmlns="http://www.w3.org/2000/svg" viewBox="0 0 66.56 17.51"><defs><style>.cls-1{fill:#8c8d91;}</style></defs><g id="Layer_2" data-name="Layer 2"><g id="Layer_1-2" data-name="Layer 1"><path class="cls-1" d="M49.44,12.65a1.69,1.69,0,0,0,1.22-.44,2.21,2.21,0,0,0,.45-1.59A5,5,0,0,0,49.88,7a4.87,4.87,0,0,0-3.65-1.27h0a5.31,5.31,0,0,0-2.12.4,4.33,4.33,0,0,0-1.63,1.17,5.44,5.44,0,0,0-1,1.88,8,8,0,0,0-.36,2.5,6.32,6.32,0,0,0,1.31,4.41,5.29,5.29,0,0,0,4,1.4,8.48,8.48,0,0,0,1.87-.22,5.24,5.24,0,0,0,1.79-.74.6.6,0,0,0,.26-.27.46.46,0,0,0,0-.41l-.65-1.51a.51.51,0,0,0-.26-.28.74.74,0,0,0-.43.06h0a6.88,6.88,0,0,1-1.11.37,4.89,4.89,0,0,1-1.15.14h0a4,4,0,0,1-.91-.1,1.66,1.66,0,0,1-1.17-1,2.74,2.74,0,0,1-.19-.9ZM44.5,10.41a2.4,2.4,0,0,1,.55-1.3,1.53,1.53,0,0,1,1.24-.56,2.12,2.12,0,0,1,.83.15,1.41,1.41,0,0,1,.49.41,1.85,1.85,0,0,1,.27.62,4.7,4.7,0,0,1,.08.68Zm-14.77,7H26.64V1.38a1.37,1.37,0,0,1,.4-1A1.39,1.39,0,0,1,28,0h5c4.49,0,7,2.86,7,6.58s-2.53,6.56-7,6.56H31.11v2.93a1.41,1.41,0,0,1-.4,1,1.39,1.39,0,0,1-1,.41Zm3-8.11A2.45,2.45,0,0,0,35.5,6.58,2.45,2.45,0,0,0,32.75,3.8h-.66a1,1,0,0,0-1,1V9.34Zm23.54,8.11H53.2V1.38a1.35,1.35,0,0,1,.4-1,1.39,1.39,0,0,1,1-.41h5c4.5,0,7,2.86,7,6.58s-2.53,6.56-7,6.56H57.67v2.93a1.37,1.37,0,0,1-.4,1,1.39,1.39,0,0,1-1,.41Zm3-8.11a2.45,2.45,0,0,0,2.75-2.76A2.45,2.45,0,0,0,59.31,3.8h-.66a1,1,0,0,0-1,1V9.34Z"/><path class="cls-1" d="M10,2.37A1.3,1.3,0,0,0,8.05,1L1.94,3.2a5.41,5.41,0,0,0-1,.41s0,.13,0,.18c-.26.69-.11,1,.56,1.3h0c.74.28,1.48.54,2.22.8l.76.28a2.11,2.11,0,0,1,.8.51l0,0a2.11,2.11,0,0,1,.32.48v0a2.14,2.14,0,0,1,.2.92v2.34c0,.39,0,.77,0,1.16l2.59-.91A2.1,2.1,0,0,0,10,8.56V2.37Zm-9,1.3h0Z"/><path class="cls-1" d="M5.85,9.41V8.13a2.24,2.24,0,0,0-.2-.92v0a1.86,1.86,0,0,0-.32-.47l0,0a2,2,0,0,0-.8-.52l-.76-.28L1.5,5.1h0C.83,4.84.69,4.48.94,3.79c0,0,.07-.17.05-.18H1l0,0h0A2.06,2.06,0,0,0,0,5.29C0,7.87,0,10.44,0,13a2,2,0,0,0,.88,1.61l0,0c.16.08.33.19.47.25.92.34,1.84.7,2.77,1a1.26,1.26,0,0,0,1.69-1.08c0-1,0-2.09,0-3.13l0-.06V10.47c0-.35,0-.71,0-1.06Z"/><path class="cls-1" d="M15.63,5.83h0L16,5.69l.11-.05L17.84,5l.85-.31h0l1.07-.38,0,0c.63-.23.67-.55.64-1.23a1.62,1.62,0,0,0,0-.2c-.16-.09-.31-.14-.49-.22-.92-.34-1.82-.72-2.76-1a1.25,1.25,0,0,0-1.68,1.08c0,1,0,2.12,0,3.15l.09,0Zm4.85-2.9s0,0,0,0,0,0,0,0Z"/><path class="cls-1" d="M20.45,2.91l0,0h0a1.38,1.38,0,0,1,0,.2c0,.67,0,1-.64,1.23l0,0-1.07.38h0L17.84,5l-1.72.61L16,5.69l-.38.13h0l-.09,0-.7.25c-.68.23-1.3.46-2,.7A2.1,2.1,0,0,0,11.34,9c0,2.06,0,4.13,0,6.19a1.31,1.31,0,0,0,1.92,1.35c2-.72,4.08-1.44,6.11-2.18a5.48,5.48,0,0,0,.91-.45,2,2,0,0,0,.89-1.64c0-2.57.16-5.15.14-7.72a1.83,1.83,0,0,0-.87-1.6Z"/></g></g></svg>