<svg xmlns="http://www.w3.org/2000/svg" viewBox="0 0 72.69 19.48"><defs><style>.cls-1{fill:#8c8d91;}</style></defs><g id="Layer_2" data-name="Layer 2"><g id="Layer_1-2" data-name="Layer 1"><path class="cls-1" d="M17.93,19.48V0h1V19.48ZM28.11,2.53V2.44H32v9.74a4.85,4.85,0,1,1-9.69,0h3.88a1,1,0,0,0,1.94,0Zm14,5.14a4.76,4.76,0,0,1,1,1.68,6.66,6.66,0,0,1,.33,2.16c0,.19,0,.37,0,.52a1,1,0,0,1-.08.38l-.11.22h-6.7a2,2,0,0,0,.14.43,2.72,2.72,0,0,0,.48.67,2.23,2.23,0,0,0,.69.43A2.4,2.4,0,0,0,40,13.94l.15-.14,2.85.8-.31.45a4.11,4.11,0,0,1-1,1,4.33,4.33,0,0,1-1.35.7,5.18,5.18,0,0,1-1.67.26,5.48,5.48,0,0,1-2-.37A4.86,4.86,0,0,1,35,15.6a5.35,5.35,0,0,1-1.15-1.72,6,6,0,0,1-.42-2.31,5.7,5.7,0,0,1,.4-2.19,5.1,5.1,0,0,1,1.1-1.69,5,5,0,0,1,1.6-1.1,4.69,4.69,0,0,1,1.88-.39,5.56,5.56,0,0,1,2.09.37A4.4,4.4,0,0,1,42.1,7.67Zm-5.5,2.52h3.72a2,2,0,0,0-.08-.26,1.73,1.73,0,0,0-.35-.54A2.07,2.07,0,0,0,39.3,9a2.24,2.24,0,0,0-.86-.15,2,2,0,0,0-.79.16,1.72,1.72,0,0,0-.58.4,2,2,0,0,0-.39.57A1.67,1.67,0,0,0,36.6,10.19Zm24-2.45a5.42,5.42,0,0,1,1.11,1.72,5.79,5.79,0,0,1,.39,2.15,5.84,5.84,0,0,1-.39,2.16,5.25,5.25,0,0,1-1.11,1.73,5.47,5.47,0,0,1-5.89,1.14,5.31,5.31,0,0,1-1.68-1.14A5.41,5.41,0,0,1,52,13.77a5.65,5.65,0,0,1-.4-2.16A5.6,5.6,0,0,1,52,9.46a5.08,5.08,0,0,1,1.1-1.71,4.87,4.87,0,0,1,1.67-1.14,5.28,5.28,0,0,1,2.1-.41,5.25,5.25,0,0,1,3.79,1.54Zm-1.73,5a3.19,3.19,0,0,0,.19-1.17,3.08,3.08,0,0,0-.19-1.15,2.5,2.5,0,0,0-.49-.81,2,2,0,0,0-.71-.47,2.39,2.39,0,0,0-1.72,0,1.89,1.89,0,0,0-.69.47,2.71,2.71,0,0,0-.5.81,3.07,3.07,0,0,0-.2,1.15,3.16,3.16,0,0,0,.2,1.16,2.53,2.53,0,0,0,.5.82,2,2,0,0,0,.7.49,2.22,2.22,0,0,0,.85.16,2.12,2.12,0,0,0,1.57-.65A2.4,2.4,0,0,0,58.89,12.78Zm13.57-4a5.39,5.39,0,0,1,.23,1.58v6.39h-3v-6a2.15,2.15,0,0,0-.36-1.26A1.37,1.37,0,0,0,68.11,9a1.32,1.32,0,0,0-1.15.5,2.15,2.15,0,0,0-.42,1.35v5.87h-3V6.49h3v.56a3.76,3.76,0,0,1,.68-.44,4.26,4.26,0,0,1,3.4-.07,3.32,3.32,0,0,1,1.2.92,4.22,4.22,0,0,1,.7,1.33ZM49.69,14.06,50,14l.49-.12v2.63l-.25.1a4,4,0,0,1-.47.14,4.12,4.12,0,0,1-1,.1,3,3,0,0,1-3.22-3.21V9.27H44.29V6.49h1.16V3.58h3V6.49h2V9.27h-2v4a.88.88,0,0,0,.17.62.91.91,0,0,0,.64.18ZM1,6.39a.1.1,0,0,1-.11-.14A7.25,7.25,0,0,1,11.06,3.51a.1.1,0,0,1,0,.18Zm12.3-.73a7.25,7.25,0,0,1,1,2.19,7.53,7.53,0,0,1,.23,2.39.1.1,0,0,1-.07.09L1.34,13.86a.1.1,0,0,1-.1,0,7.14,7.14,0,0,1-1-2.19A7,7,0,0,1,0,9.24a.11.11,0,0,1,.07-.09l13.1-3.52A.09.09,0,0,1,13.3,5.66Zm.24,7.43a.1.1,0,0,1,.11.15,7.27,7.27,0,0,1-4.5,3.56A7.2,7.2,0,0,1,3.48,16a.09.09,0,0,1,0-.17Z"/></g></g></svg>