<svg xmlns="http://www.w3.org/2000/svg" viewBox="0 0 142.18 41.5"><defs><style>.cls-1{fill:none;stroke:gray;stroke-miterlimit:10;}.cls-2{fill:gray;}</style></defs><g id="Layer_2" data-name="Layer 2"><g id="Layer_1-2" data-name="Layer 1"><path class="cls-1" d="M141.68,36.94A4.06,4.06,0,0,1,137.62,41H4.57A4.06,4.06,0,0,1,.5,36.94V4.57A4.07,4.07,0,0,1,4.57.5h133a4.07,4.07,0,0,1,4.07,4.06h0V36.94Z"/><path id="AppGallery" class="cls-2" d="M50.24,26.91,48.16,21.3,46.1,26.91ZM43,31.07l4.31-11.28H49l4.3,11.28H51.74l-1-2.9H45.64l-1,2.9ZM56.25,29.8v4.48H54.87V22.61h1.38v1.28a2.91,2.91,0,0,1,1.11-1.12A3.23,3.23,0,0,1,59,22.4a3,3,0,0,1,2.5,1.23,5,5,0,0,1,1,3.22,5,5,0,0,1-1,3.22A3,3,0,0,1,59,31.29a3.23,3.23,0,0,1-1.6-.37A3,3,0,0,1,56.25,29.8ZM61,26.85a4.06,4.06,0,0,0-.64-2.41,2,2,0,0,0-1.73-.88,2.05,2.05,0,0,0-1.74.88,4.06,4.06,0,0,0-.63,2.41,4.08,4.08,0,0,0,.63,2.41,2.06,2.06,0,0,0,1.74.86,2,2,0,0,0,1.73-.86A4.08,4.08,0,0,0,61,26.85Zm5.09,2.95v4.48h-1.4V22.61h1.4v1.28a2.82,2.82,0,0,1,1.1-1.12,3.23,3.23,0,0,1,1.6-.37,3,3,0,0,1,2.5,1.23,5,5,0,0,1,1,3.22,5,5,0,0,1-1,3.22,3.05,3.05,0,0,1-2.5,1.22,3.23,3.23,0,0,1-1.6-.37A2.89,2.89,0,0,1,66.08,29.8Zm4.72-2.95a4,4,0,0,0-.64-2.41,2,2,0,0,0-1.72-.88,2,2,0,0,0-1.74.88,4.06,4.06,0,0,0-.62,2.41,4.08,4.08,0,0,0,.62,2.41,2,2,0,0,0,1.74.86,2,2,0,0,0,1.72-.86A4,4,0,0,0,70.8,26.85Zm11.44,2.61v-3H79.76V25.18h4V30a6.54,6.54,0,0,1-2,.95,7.93,7.93,0,0,1-2.27.32,5.47,5.47,0,0,1-4.14-1.55,6,6,0,0,1-1.49-4.3,6,6,0,0,1,1.49-4.3,5.45,5.45,0,0,1,4.14-1.55,7.8,7.8,0,0,1,2.08.27,6.75,6.75,0,0,1,1.84.8v1.63a6,6,0,0,0-1.8-1.09,5.57,5.57,0,0,0-2-.36A4,4,0,0,0,76.55,22a5.11,5.11,0,0,0-1,3.45,5,5,0,0,0,1,3.43A4,4,0,0,0,79.67,30a7,7,0,0,0,1.44-.13A3.64,3.64,0,0,0,82.24,29.46Zm9.42-2.65H90.28A4.89,4.89,0,0,0,88,27.2a1.39,1.39,0,0,0-.65,1.31,1.48,1.48,0,0,0,.49,1.18,1.89,1.89,0,0,0,1.32.43A2.32,2.32,0,0,0,91,29.3a3.26,3.26,0,0,0,.69-2.18v-.31Zm1.39-.57v4.83H91.66V29.78a3,3,0,0,1-1.18,1.14,3.73,3.73,0,0,1-1.74.37,2.9,2.9,0,0,1-2.07-.73,2.58,2.58,0,0,1-.76-2,2.55,2.55,0,0,1,1-2.15,4.66,4.66,0,0,1,2.86-.73h1.94v-.13A1.84,1.84,0,0,0,91,24.1a2.74,2.74,0,0,0-1.77-.52,6,6,0,0,0-1.41.17,5.49,5.49,0,0,0-1.32.52V23A8.93,8.93,0,0,1,88,22.55a6.62,6.62,0,0,1,1.38-.15,3.62,3.62,0,0,1,2.75,1A4.09,4.09,0,0,1,93.05,26.24Zm2.86,4.83V19.32H97.3V31.07Zm4.3,0V19.32h1.39V31.07Zm11.49-4.58v.68h-6.39a3.21,3.21,0,0,0,.86,2.19,3,3,0,0,0,2.16.74,6,6,0,0,0,1.54-.19,6.77,6.77,0,0,0,1.5-.59v1.32a8.33,8.33,0,0,1-1.54.48,7.57,7.57,0,0,1-1.58.17A4.37,4.37,0,0,1,105,30.11a4.26,4.26,0,0,1-1.18-3.18,4.66,4.66,0,0,1,1.12-3.3,3.9,3.9,0,0,1,3-1.23,3.43,3.43,0,0,1,2.69,1.11A4.23,4.23,0,0,1,111.7,26.49Zm-6.35-.4h5a2.67,2.67,0,0,0-.65-1.83,2.13,2.13,0,0,0-1.65-.68,2.61,2.61,0,0,0-1.86.66A2.76,2.76,0,0,0,105.35,26.09Zm13.47-3.61v1.43a1.81,1.81,0,0,0-.52-.2,2.25,2.25,0,0,0-.6-.07,2.22,2.22,0,0,0-1.81.77,3.37,3.37,0,0,0-.63,2.2v4.45h-1.39V22.61h1.39v1.32a2.81,2.81,0,0,1,1.14-1.15,3.6,3.6,0,0,1,1.71-.38l.32,0A3.07,3.07,0,0,1,118.82,22.48Zm8.7.13-3.71,9.24a5.21,5.21,0,0,1-1.15,2,2.35,2.35,0,0,1-1.5.45h-1.11V33.12h.81a1.36,1.36,0,0,0,.9-.27,3.53,3.53,0,0,0,.7-1.29l.25-.63-3.42-8.32h1.47l2.65,6.61L126,22.61Z"/><path id="EXPLORE_IT_ON" data-name="EXPLORE IT ON" class="cls-2" d="M42.92,15.83V10h3.67v.66H43.7V12.4h2.77v.67H43.7v2.1h3v.67H42.92Zm6.57-3.1L47.68,10h.85L50,12.18,51.42,10h.85L50.4,12.81l2,3h-.85l-1.62-2.47-1.66,2.47h-.85Zm5.71-2.06h-1v2.18h1a1.24,1.24,0,0,0,.85-.28,1.07,1.07,0,0,0,.3-.82,1.06,1.06,0,0,0-.3-.8A1.19,1.19,0,0,0,55.2,10.67Zm-1.77,5.16V10H55.2a2.16,2.16,0,0,1,1.48.44,1.64,1.64,0,0,1,.5,1.29,1.67,1.67,0,0,1-.5,1.31,2.2,2.2,0,0,1-1.48.43h-1v2.35h-.78Zm4.81,0V10H59v5.15h2.83v.66Zm6.52-5.28a1.66,1.66,0,0,0-1.36.64,2.79,2.79,0,0,0-.5,1.74,2.76,2.76,0,0,0,.5,1.75,1.66,1.66,0,0,0,1.36.64,1.64,1.64,0,0,0,1.36-.64,2.8,2.8,0,0,0,.5-1.75,2.79,2.79,0,0,0-.5-1.74A1.61,1.61,0,0,0,64.76,10.55Zm0-.64a2.52,2.52,0,0,1,2,.82,3.18,3.18,0,0,1,.73,2.2,3.23,3.23,0,0,1-.73,2.2,2.52,2.52,0,0,1-2,.82,2.57,2.57,0,0,1-2-.82,3.18,3.18,0,0,1-.73-2.2,3.23,3.23,0,0,1,.73-2.2A2.57,2.57,0,0,1,64.76,9.91Zm6.68,3.19a1.16,1.16,0,0,1,.49.37,4.13,4.13,0,0,1,.49.77l.8,1.59h-.85l-.74-1.49a2,2,0,0,0-.56-.77,1.25,1.25,0,0,0-.74-.19h-.86v2.45h-.79V10h1.78a2.28,2.28,0,0,1,1.5.42,1.55,1.55,0,0,1,.48,1.25,1.56,1.56,0,0,1-.25.92A1.36,1.36,0,0,1,71.44,13.1Zm-1-2.43h-1v2.06h1a1.22,1.22,0,0,0,.86-.27,1,1,0,0,0,.29-.77,1,1,0,0,0-.29-.77A1.26,1.26,0,0,0,70.46,10.67Zm3.77,5.16V10H77.9v.66H75V12.4h2.77v.67H75v2.1h3v.67H74.23Zm7.58,0V10h.78v5.81Zm1.55-5.15V10h4.92v.66H86.21v5.15h-.79V10.68Zm10.57-.13a1.66,1.66,0,0,0-1.36.64,2.79,2.79,0,0,0-.5,1.74,2.82,2.82,0,0,0,.5,1.75,1.66,1.66,0,0,0,1.36.64,1.64,1.64,0,0,0,1.36-.64,2.8,2.8,0,0,0,.5-1.75,2.73,2.73,0,0,0-.5-1.74A1.61,1.61,0,0,0,93.93,10.55Zm0-.64a2.54,2.54,0,0,1,2,.82,3.18,3.18,0,0,1,.73,2.2,3.23,3.23,0,0,1-.73,2.2,2.76,2.76,0,0,1-3.93,0,3.18,3.18,0,0,1-.73-2.2,3.23,3.23,0,0,1,.73-2.2A2.53,2.53,0,0,1,93.93,9.91Zm3.93,5.92V10h1l2.58,4.86V10h.77v5.81H101.2L98.62,11v4.86Z"/><path class="cls-2" d="M26.09,29.3s0-.06-.07-.06-.05,0-.06.05l-.3.7c0,.08,0,.12.08.12h.56c.1,0,.12-.05.09-.14Z"/><path class="cls-2" d="M38.68,13.35a5.73,5.73,0,0,0-.47-1.25,4.14,4.14,0,0,0-2.17-2,7,7,0,0,0-1.8-.48,10.15,10.15,0,0,0-1.55-.14H22.18a19.51,19.51,0,0,0-2.42.09,7.93,7.93,0,0,0-2.1.49,4.23,4.23,0,0,0-2.06,1.7,5.87,5.87,0,0,0-.71,1.85,10.89,10.89,0,0,0-.23,2.28V27.11a12.17,12.17,0,0,0,.14,2.09,7.5,7.5,0,0,0,.45,1.67A4.32,4.32,0,0,0,18,33.36a7.35,7.35,0,0,0,1.25.3,7,7,0,0,0,1.21.13H32.32a12.77,12.77,0,0,0,2-.14,6.85,6.85,0,0,0,1.73-.49,4.23,4.23,0,0,0,2.28-2.31,7.36,7.36,0,0,0,.45-1.67A11.6,11.6,0,0,0,39,27.43V16A11,11,0,0,0,38.68,13.35ZM20.56,11.59a.28.28,0,0,1,.39.12c.09.14.17.29.27.42a4.75,4.75,0,0,0,.63.79,6.62,6.62,0,0,0,3.25,2,6.85,6.85,0,0,0,2.47.17,6.67,6.67,0,0,0,4.18-2.13,5.62,5.62,0,0,0,.58-.71s.05-.05,0-.09a2.16,2.16,0,0,0,.27-.4.32.32,0,0,1,.22-.17.29.29,0,0,1,.29.42c-.1.16-.2.32-.29.48s-.24.32-.37.47a7.3,7.3,0,0,1-6.67,2.67A7.43,7.43,0,0,1,22.7,14.4a6.79,6.79,0,0,1-1.25-1.08,9.2,9.2,0,0,1-.63-.77s0-.08-.08-.1L20.47,12A.28.28,0,0,1,20.56,11.59Zm7.24,13a28.86,28.86,0,0,1,1.63-3A29.18,29.18,0,0,1,31.25,19c.13-.17.14-.18.28,0a3.3,3.3,0,0,1,.83,1.42,1.62,1.62,0,0,1,.08.49,2,2,0,0,1-.7,1.43A14.68,14.68,0,0,1,29.21,24c-.43.24-.87.47-1.31.69,0,0-.08.06-.12,0S27.78,24.67,27.8,24.63Zm-.45-.33c0,.05-.06.13-.12.12s0-.1-.05-.15c0-.36-.06-.71-.08-1.07,0-.64-.08-1.27-.07-1.91a14.9,14.9,0,0,1,.25-2.67,5.17,5.17,0,0,1,.42-1.35c0-.08.09-.14.19-.13a2.19,2.19,0,0,1,1.37.55A1.69,1.69,0,0,1,29.81,19a4,4,0,0,1-.36,1.59A16.76,16.76,0,0,1,28.2,23C27.93,23.43,27.65,23.87,27.35,24.3Zm-1.77-1.12a21.23,21.23,0,0,1-1.1-2,6.37,6.37,0,0,1-.59-1.63,2,2,0,0,1,.45-1.82,1.7,1.7,0,0,1,.89-.51l.44-.09c.19,0,.23,0,.31.16a6.32,6.32,0,0,1,.47,1.7,14.94,14.94,0,0,1,.17,2.53c0,.62,0,1.28-.07,1.94,0,.27-.05.54-.07.81,0,0,0,0,0,0s0,.09,0,.09-.05,0-.07-.06C26.09,24,25.83,23.58,25.58,23.18Zm.31,1.58s-.08,0-.12,0c-.26-.13-.52-.26-.77-.4A22.13,22.13,0,0,1,22.7,23a7.78,7.78,0,0,1-.94-.78,1.91,1.91,0,0,1-.53-1.37,2.45,2.45,0,0,1,.47-1.24,4,4,0,0,1,.48-.61c.1-.1.11-.1.2,0,.54.68,1,1.39,1.51,2.12a28.72,28.72,0,0,1,1.81,3.19,3.73,3.73,0,0,1,.16.35S25.94,24.72,25.89,24.76Zm-5.52-2.44c0-.1.05-.11.14-.06,1,.52,1.91,1,2.86,1.59.69.41,1.38.81,2.05,1.25l.07,0s.09,0,.08.09-.08,0-.13,0H22.66a2.35,2.35,0,0,1-2.29-3ZM21.43,31c-.35,0-.3,0-.31-.3v-.58c0-.1,0-.14-.13-.14h-.91c-.1,0-.14.05-.14.15s0,.49,0,.74,0,.13-.14.13c-.37,0-.31.05-.31-.31,0-.65,0-1.3,0-1.95,0-.18,0-.18.17-.18.33,0,.28,0,.29.28s0,.38,0,.58,0,.15.15.15H21c.11,0,.15-.05.14-.15s0-.48,0-.73c0-.09,0-.13.13-.13.38,0,.32,0,.32.32s0,.6,0,.9,0,.71,0,1.07C21.58,31,21.54,31,21.43,31Zm.13-5.19c-.06-.09,0-.11.06-.12h.2l2.2-.07,1.38-.05s.08,0,.1,0,0,.05-.06.07a14.57,14.57,0,0,1-1.64,1,1.4,1.4,0,0,1-1.71-.25A2.51,2.51,0,0,1,21.56,25.85Zm2.87,3.6h0c0,.23,0,.46,0,.69a.84.84,0,0,1-.66.87,1.13,1.13,0,0,1-1.14-.23.84.84,0,0,1-.25-.6c0-.48,0-1,0-1.45,0-.1,0-.13.14-.13.37,0,.31,0,.31.32s0,.75,0,1.13a.57.57,0,0,0,.85.53c.27-.11.31-.36.32-.62V28.72c0-.09,0-.12.11-.12h.24c.07,0,.09,0,.09.11C24.42,29,24.43,29.2,24.43,29.45ZM27.17,31h-.12c-.23,0-.21,0-.32-.22s-.08-.3-.46-.31-.46,0-.69,0a.18.18,0,0,0-.19.13c0,.1-.09.2-.13.31s0,.09-.07.09a2.54,2.54,0,0,1-.39,0c-.06,0,0-.06,0-.08l.39-.89c.2-.44.39-.88.58-1.32A.2.2,0,0,1,26,28.6a.34.34,0,0,1,.4.25c.28.69.59,1.37.9,2C27.29,31,27.27,31,27.17,31Zm3.59-2.3-.54,1.54c-.07.21-.15.42-.21.63a.17.17,0,0,1-.19.13c-.3,0-.24,0-.33-.24-.15-.42-.31-.84-.43-1.27a.07.07,0,0,0-.07-.06s0,.05-.07.08c-.15.45-.31.89-.45,1.34a.19.19,0,0,1-.22.15c-.23,0-.22,0-.3-.21-.24-.68-.48-1.36-.71-2l0-.07c0-.08,0-.1.08-.1h.23c.12,0,.17,0,.2.15.14.47.29.94.44,1.41,0,0,0,.07.07.07s.05,0,.06-.07c.16-.48.33-1,.48-1.45a.15.15,0,0,1,.14-.11c.26,0,.27,0,.35.23.15.44.29.88.44,1.32,0,0,0,.09.06.08s.06-.05.07-.08c.15-.48.31-1,.46-1.44a.14.14,0,0,1,.15-.11h.24C30.77,28.6,30.79,28.63,30.76,28.72ZM30,26.8a15.16,15.16,0,0,1-1.76-1.09s-.07,0-.05-.07.05,0,.07,0h.22l2.3.07c.42,0,.84,0,1.26,0,.15,0,.16,0,.08.15a2.49,2.49,0,0,1-.94.91A1.29,1.29,0,0,1,30,26.8ZM33,31H31.43c-.1,0-.14,0-.14-.14V28.76c0-.12,0-.16.15-.16h1.48c.1,0,.14,0,.14.14,0,.31,0,.27-.27.27H31.9c-.12,0-.17,0-.16.15a1.77,1.77,0,0,1,0,.23c0,.16,0,.17.17.17h.62c.1,0,.15,0,.13.13a.49.49,0,0,0,0,.12c0,.15,0,.15-.14.15h-.62c-.11,0-.15.05-.15.15s0,.23,0,.35,0,.17.18.17h1c.18,0,.18,0,.18.17v.06C33.12,31,33.08,31,33,31Zm.37-7.7a2.31,2.31,0,0,1-1.56,1.83,3,3,0,0,1-1,.12c-.42,0-.84,0-1.26,0h0c-.44,0-.88,0-1.32,0-.05,0-.11,0-.12,0s.05-.07.08-.09c.65-.42,1.31-.82,2-1.21.87-.51,1.76-1,2.65-1.5l.36-.19c.08-.05.12,0,.14.06A2.15,2.15,0,0,1,33.33,23.32Zm.85,7.54c0,.15,0,.16-.15.16s-.28,0-.28-.28v-.93h0V28.69c0-.06,0-.08.07-.09h0c.41,0,.34-.05.34.33C34.19,29.57,34.18,30.22,34.18,30.86Z"/></g></g></svg>