<svg xmlns="http://www.w3.org/2000/svg" viewBox="0 0 147.34 76.88"><defs><style>.cls-1{font-size:19.65px;font-family:HelveticaNeueLTPro-LtEx, HelveticaNeueLTPro LtEx;letter-spacing:0.05em;}.cls-1,.cls-5{fill:#b3b3b3;}.cls-2{letter-spacing:0.05em;}.cls-3{fill:#7c227c;}.cls-4{fill:#c32b26;}.cls-6{fill:#3c5399;}.cls-7{fill:#d57c2c;}.cls-8{fill:#5b82bd;}.cls-9{fill:#f8e437;}.cls-10{fill:#61a244;}</style></defs><g id="Layer_2" data-name="Layer 2"><g id="Layer_1-2" data-name="Layer 1"><text class="cls-1" transform="translate(1.79 71.97)">R<tspan class="cls-2" x="11.63" y="0">esmi Sponsoru</tspan></text><path class="cls-3" d="M16.74.25A4.81,4.81,0,0,1,18.46,0c.51,2.66,1,5.33,1.5,8,0,.19.08.49-.21.49a9.4,9.4,0,0,0-6.09,4,4.41,4.41,0,0,1-.53.75,2.91,2.91,0,0,1-.77-.38L6.56,9.49A5.51,5.51,0,0,1,5.69,9,.58.58,0,0,1,5.8,8.6,18.1,18.1,0,0,1,16.74.25Z"/><path class="cls-4" d="M20.45,2.15A18,18,0,0,1,35.1,6.39a.24.24,0,0,1,0,.39c-1.74,2-3.49,4-5.22,6-.13.18-.38.37-.55.14a9.34,9.34,0,0,0-6.11-2.29c-.59,0-1.17.1-1.75.1C21.07,8,20.68,5.3,20.27,2.57c0-.15,0-.42.18-.42Z"/><path class="cls-5" d="M94.2,7.65a2.8,2.8,0,0,1,3.25,1.69,2.81,2.81,0,0,1-3.68,3.59A2.75,2.75,0,0,1,92.12,10,2.79,2.79,0,0,1,94.2,7.65ZM49.08,10.47H54c0,4.87,0,9.73,0,14.59,2,0,4,0,6,0,0,1.44,0,2.87,0,4.3H49.08q0-9.45,0-18.9Zm30.56,0c1.64,0,3.28,0,4.93,0,0,4.86,0,9.72,0,14.58,2,0,4,0,6,0v4.29H79.64V10.47ZM62.55,16.65A7.08,7.08,0,0,1,66.93,14a6.17,6.17,0,0,1,3.6.41,8.49,8.49,0,0,1,1.88,1.32c0-.51,0-1,0-1.53h4.53q0,7.59,0,15.16H72.34c0-.49,0-1,0-1.45a6.55,6.55,0,0,1-4.24,1.82,6.85,6.85,0,0,1-5.19-1.89,8,8,0,0,1-2.15-5.42,8.46,8.46,0,0,1,1.78-5.78m5.84,1.56a3.38,3.38,0,0,0-2.26,1.32,4.09,4.09,0,0,0,.57,5.33,3.67,3.67,0,0,0,5-.48,3.93,3.93,0,0,0-.23-5.27,3.7,3.7,0,0,0-3-.9ZM101.5,15.5a6.16,6.16,0,0,1,8-.26c.25.21.48.43.71.66,0-.57,0-1.13,0-1.69h4.38V27.67a6.89,6.89,0,0,1-1.86,4.83A8.08,8.08,0,0,1,107,34.7a8.62,8.62,0,0,1-5.77-1.83,5.63,5.63,0,0,1-1.9-3.45c1.71,0,3.42,0,5.12,0a2.6,2.6,0,0,0,1.34,1.11,4.7,4.7,0,0,0,2.55-.12,2.33,2.33,0,0,0,1.49-1.4,5.88,5.88,0,0,0,.1-1.87,6.83,6.83,0,0,1-4.54,1.74A6.13,6.13,0,0,1,101.16,27a7.84,7.84,0,0,1-2.09-5.64,8,8,0,0,1,2.43-5.89M105.8,18a2.85,2.85,0,0,0-1.66,1.23,4.43,4.43,0,0,0-.51,3.28,3.19,3.19,0,0,0,1.68,2.24,3.47,3.47,0,0,0,4-.88,3.75,3.75,0,0,0,.81-2.92,3.36,3.36,0,0,0-1.5-2.58A3.82,3.82,0,0,0,105.8,18ZM120.07,15a6.86,6.86,0,0,1,5.2-1,6.7,6.7,0,0,1,2.91,1.69V14.21c1.51,0,3,0,4.53,0V29.37h-4.62V27.93a7.24,7.24,0,0,1-1.72,1.19,7.11,7.11,0,0,1-5.49.15,6.44,6.44,0,0,1-3.61-3.49,9.72,9.72,0,0,1-.66-5.22A8,8,0,0,1,120.07,15m4,3.19a3.41,3.41,0,0,0-2.61,2,4.14,4.14,0,0,0,1,4.63,3.67,3.67,0,0,0,5-.52,3.93,3.93,0,0,0-.29-5.29,3.68,3.68,0,0,0-3.07-.85Zm-31.54-4h4.58V29.37H92.53Z"/><path class="cls-6" d="M2.73,9c.16,0,.29.1.44.16,2.31,1.25,4.63,2.48,6.94,3.74.23.06.23.3.11.46A9.31,9.31,0,0,0,9.6,20.7a3.4,3.4,0,0,1,.2.69c-.06.16-.25.18-.38.25L2.1,24.46c-.15.05-.39.15-.44-.07A18.09,18.09,0,0,1,2.51,9.26.78.78,0,0,1,2.73,9Z"/><path class="cls-7" d="M34.52,9.53c.12-.14.3-.07.41.06a18.05,18.05,0,0,1,5.61,14.13c0,.25-.29.19-.44.2l-8-.4c-.27,0-.24-.32-.24-.5A9.28,9.28,0,0,0,31,18.84a10.31,10.31,0,0,0-2.3-3.14c.16-.2.31-.39.48-.57C31,13.27,32.73,11.39,34.52,9.53Z"/><path class="cls-5" d="M18.65,13.91a6.83,6.83,0,1,1-5.33,5,6.86,6.86,0,0,1,5.33-5M14.82,17c.24-.11.47-.23.7-.35a4.62,4.62,0,0,0-.4,2.14,19.09,19.09,0,0,1,1.77.84c-.64-.1-1.27-.25-1.91-.37a4.84,4.84,0,0,0-1,2q-.19-.37-.36-.75a6.66,6.66,0,0,0,1.28,3.92c-.06-.27-.11-.55-.16-.82a4.42,4.42,0,0,0,1.94,1c.44-.48.85-1,1.33-1.42-.27.59-.62,1.13-.94,1.7a4.48,4.48,0,0,0,1.59,1.53l-.81.12a8.27,8.27,0,0,0,2.09.32,8.35,8.35,0,0,0,2-.32l-.81-.12a4.46,4.46,0,0,0,1.59-1.52c-.31-.57-.66-1.12-.93-1.71.48.44.89.95,1.33,1.42a4.49,4.49,0,0,0,1.93-1c0,.27-.1.54-.16.81a6.68,6.68,0,0,0,1.29-3.9c-.12.24-.24.49-.35.73a5.32,5.32,0,0,0-1-2c-.64.12-1.27.27-1.91.37.56-.33,1.18-.56,1.77-.84a4.62,4.62,0,0,0-.4-2.14L25,17a6.5,6.5,0,0,0-3.29-2.4c.21.2.4.4.6.61a4.31,4.31,0,0,0-2.16.28c-.09.66-.13,1.32-.25,2-.1-.65-.16-1.31-.24-2a4.23,4.23,0,0,0-2.17-.29,4.57,4.57,0,0,1,.68-.64A6.71,6.71,0,0,0,14.82,17Z"/><path class="cls-5" d="M17.17,19.69c.93-.66,1.84-1.34,2.77-2,.92.69,1.86,1.33,2.77,2C22.35,20.8,22,21.88,21.65,23H18.21C17.88,21.87,17.48,20.79,17.17,19.69Z"/><path class="cls-8" d="M7.1,23.72a3.74,3.74,0,0,1,.81-.3,5.13,5.13,0,0,1,.48.86A9.44,9.44,0,0,0,14.18,29c0,.25-.1.49-.17.73q-1,3.2-2,6.39a9.44,9.44,0,0,1-.36,1.06c-.12.17-.31.05-.47,0A18.08,18.08,0,0,1,0,26.93v-.11c2.34-1.09,4.74-2.05,7.1-3.1Z"/><path class="cls-9" d="M29.3,24.54a1.14,1.14,0,0,1,.55,0c2.69.23,5.37.41,8,.64l0,.43a18.09,18.09,0,0,1-7.39,13.14c-.18.18-.38,0-.48-.19-1.57-2.16-3.16-4.3-4.72-6.45-.19-.19,0-.39.17-.5a9.28,9.28,0,0,0,3.61-5.86,11.38,11.38,0,0,1,.18-1.17Z"/><path class="cls-10" d="M22.68,30.38c.15-.11.25.1.34.19L27.4,37.1a3.37,3.37,0,0,1,.19.32c0,.17-.18.25-.29.35a18.26,18.26,0,0,1-7.56,2.84,4.58,4.58,0,0,1-1.38.07c-.93,0-1.87,0-2.79.06a25,25,0,0,1-3.23-.67c-.19,0-.09-.3-.07-.43.71-2.55,1.41-5.11,2.12-7.66a.31.31,0,0,1,.48-.25,9.34,9.34,0,0,0,5.24-.11,11.28,11.28,0,0,0,2.57-1.24Z"/></g></g></svg>