<svg xmlns="http://www.w3.org/2000/svg" viewBox="0 0 142.18 41.5"><defs><style>.cls-1{fill:gray;}.cls-2{fill:#b3b3b3;}.cls-3{fill:#666;}.cls-4{fill:#4d4d4d;}.cls-5{opacity:0.2;}.cls-5,.cls-6,.cls-7{isolation:isolate;}.cls-6{opacity:0.12;}.cls-7{fill:#fff;opacity:0.25;}.cls-8{fill:none;stroke:gray;stroke-miterlimit:10;}</style></defs><g id="Layer_2" data-name="Layer 2"><g id="Layer_1-2" data-name="Layer 1"><path class="cls-1" d="M71.09,22.61a4.46,4.46,0,0,0-4.56,4.55,4.53,4.53,0,0,0,4.56,4.56,4.47,4.47,0,0,0,4.56-4.56A4.4,4.4,0,0,0,71.09,22.61Zm0,7.2a2.76,2.76,0,0,1,0-5.51,2.56,2.56,0,0,1,2.54,2.76A2.63,2.63,0,0,1,71.09,29.81Zm-9.85-7.2a4.45,4.45,0,0,0-4.56,4.55,4.53,4.53,0,0,0,4.56,4.56,4.46,4.46,0,0,0,4.55-4.56A4.39,4.39,0,0,0,61.24,22.61Zm0,7.2a2.76,2.76,0,0,1,0-5.51,2.57,2.57,0,0,1,2.54,2.76A2.63,2.63,0,0,1,61.24,29.81ZM49.48,24v1.91H54A4,4,0,0,1,53,28.33a4.69,4.69,0,0,1-3.49,1.37,4.93,4.93,0,0,1-5-5.08,5,5,0,0,1,5-5.09A5.24,5.24,0,0,1,53,20.91l1.38-1.38a6.78,6.78,0,0,0-4.77-1.9,7.14,7.14,0,0,0-7.1,7,7.15,7.15,0,0,0,7.1,7,6.1,6.1,0,0,0,4.88-2,6.37,6.37,0,0,0,1.69-4.45,4.22,4.22,0,0,0-.1-1.17Zm48.1,1.49a4.13,4.13,0,0,0-3.82-2.86,4.26,4.26,0,0,0-4.23,4.55A4.43,4.43,0,0,0,94,31.72a4.31,4.31,0,0,0,3.7-2L96.2,28.64A2.56,2.56,0,0,1,94,29.92a2.31,2.31,0,0,1-2.23-1.38l6-2.54-.21-.53ZM91.43,27a2.57,2.57,0,0,1,2.33-2.65,1.87,1.87,0,0,1,1.7.95l-4,1.7Zm-5,4.34h2V18.05h-2Zm-3.18-7.73a3.45,3.45,0,0,0-2.43-1.06,4.55,4.55,0,0,0-4.35,4.56,4.39,4.39,0,0,0,4.35,4.45,3,3,0,0,0,2.33-1.06h.1v.63a2.41,2.41,0,0,1-4.66,1.06l-1.69.74a4.36,4.36,0,0,0,4,2.65c2.33,0,4.24-1.38,4.24-4.66v-8H83.27v.74Zm-2.33,6.25a2.76,2.76,0,0,1,0-5.51,2.55,2.55,0,0,1,2.44,2.76A2.55,2.55,0,0,1,80.94,29.81ZM106.8,18.05H102V31.29h2v-5h2.76a4.14,4.14,0,1,0,0-8.26Zm.1,6.36H104V19.85h2.86a2.33,2.33,0,0,1,2.33,2.23,2.42,2.42,0,0,1-2.33,2.33Zm12.19-1.91a3.57,3.57,0,0,0-3.5,2l1.8.74a1.87,1.87,0,0,1,1.8-.95,2,2,0,0,1,2.12,1.7v.1a4.21,4.21,0,0,0-2-.53c-1.91,0-3.82,1.06-3.82,3a3.11,3.11,0,0,0,3.29,3,3,3,0,0,0,2.54-1.28h.11v1.06h1.9V26.21a4,4,0,0,0-4.23-3.71Zm-.22,7.31c-.63,0-1.59-.32-1.59-1.17,0-1.05,1.17-1.37,2.12-1.37a4.11,4.11,0,0,1,1.8.42A2.47,2.47,0,0,1,118.87,29.81Zm11.13-7-2.23,5.72h-.1l-2.33-5.72h-2.12l3.49,8.05-2,4.45h2l5.41-12.5Zm-17.8,8.47h2V18.05h-2Z"/><path class="cls-2" d="M10,7.45a2.08,2.08,0,0,0-.43,1.49V32.35a2.15,2.15,0,0,0,.53,1.49l.11.1L23.31,20.8v-.21Z"/><path class="cls-3" d="M27.55,25.25,23.2,20.91v-.32l4.35-4.34.1.1,5.19,3c1.49.85,1.49,2.23,0,3.07Z"/><path class="cls-1" d="M27.65,25.15,23.2,20.7,10,33.94c.53.53,1.27.53,2.22.11l15.47-8.9"/><path class="cls-4" d="M27.65,16.25,12.18,7.45A1.72,1.72,0,0,0,10,7.56L23.2,20.7l4.45-4.45Z"/><path class="cls-5" d="M27.55,25,12.18,33.73a1.74,1.74,0,0,1-2.12,0l-.1.11.1.1a1.73,1.73,0,0,0,2.12,0Z"/><path class="cls-6" d="M10,33.73a2.07,2.07,0,0,1-.43-1.48v.1a2.15,2.15,0,0,0,.53,1.49v-.11ZM32.84,22.08l-5.29,3,.1.11,5.19-3A1.76,1.76,0,0,0,33.9,20.7C33.9,21.23,33.48,21.65,32.84,22.08Z"/><path class="cls-7" d="M12.18,7.56,32.84,19.32c.64.42,1.06.85,1.06,1.38a1.76,1.76,0,0,0-1.06-1.48L12.18,7.45c-1.48-.84-2.65-.21-2.65,1.49V9C9.53,7.45,10.7,6.71,12.18,7.56Z"/><path class="cls-1" d="M47.89,12.43a3.29,3.29,0,0,1-5.62-2.33,3.29,3.29,0,1,1,6.57,0A3.11,3.11,0,0,1,47.89,12.43Zm-4-.53a2.5,2.5,0,0,0,1.7.75,2.11,2.11,0,0,0,1.69-.75A2.5,2.5,0,0,0,48,10.1a2.19,2.19,0,0,0-.74-1.8,2.51,2.51,0,0,0-1.69-.74,2.12,2.12,0,0,0-1.7.74,2.58,2.58,0,0,0-.74,1.8A2.16,2.16,0,0,0,43.86,11.9ZM50,13.28V6.93h1l3.07,5v-5h.85v6.35H54L50.85,8.09v5.19Zm8.47,0h-.84V7.67H55.83V6.93h4.35v.74h-1.8v5.61Zm2.86,0V6.93h1.91a3.3,3.3,0,0,1,2.33.84,3,3,0,0,1,.85,2.33,3.47,3.47,0,0,1-.85,2.33,3,3,0,0,1-2.33.85Zm.75-.74h1.16A2.24,2.24,0,0,0,65,11.9a2.48,2.48,0,0,0,.63-1.8A2.52,2.52,0,0,0,65,8.3a2.43,2.43,0,0,0-1.7-.63H62.09ZM71.3,7.67H68.44v2h2.65v.74H68.44v2H71.3v.85H67.59V6.93H71.3Zm6-.74L75,9.68l2.54,3.6h-1l-2.12-3-1,1.16v1.8h-.85V6.93h.85v3.28l2.75-3.28Zm3.07,6.35V6.93h.85V9.68h3.18V6.93h.85v6.35h-.85V10.42H81.26v2.86ZM90.48,7.67H87.62v2h2.65v.74H87.62v2h2.86v.85H86.77V6.93h3.71Zm3.39,5.61H93V7.67h-1.8V6.93h4.34v.74h-1.8v5.61Zm10.06-.85a3.31,3.31,0,0,1-4.66,0,3.11,3.11,0,0,1-1-2.33,3.29,3.29,0,1,1,6.57,0A3.08,3.08,0,0,1,103.93,12.43Zm-4-.53a2.47,2.47,0,0,0,1.69.75,2.11,2.11,0,0,0,1.7-.75,2.55,2.55,0,0,0,.74-1.8,2.19,2.19,0,0,0-.74-1.8,2.51,2.51,0,0,0-1.7-.74,2.1,2.1,0,0,0-1.69.74,2.58,2.58,0,0,0-.74,1.8A2.16,2.16,0,0,0,99.91,11.9Zm6.89,1.38H106V6.93h2.12a2.24,2.24,0,0,1,1.37.52,1.7,1.7,0,0,1,.64,1.38,1.85,1.85,0,0,1-.64,1.38,2.19,2.19,0,0,1-1.37.53h-1.38v2.54Zm0-3.39h1.37a1.17,1.17,0,0,0,.85-.32,1.15,1.15,0,0,0,.32-.74,1.15,1.15,0,0,0-.32-.74,1.21,1.21,0,0,0-.85-.32H106.8Z"/><path class="cls-8" d="M141.68,36.94A4.06,4.06,0,0,1,137.62,41H4.57A4.06,4.06,0,0,1,.5,36.94V4.57A4.07,4.07,0,0,1,4.57.5h133a4.07,4.07,0,0,1,4.07,4.06h0V36.94Z"/></g></g></svg>