<svg xmlns="http://www.w3.org/2000/svg" viewBox="0 0 68.43 69.1"><defs><style>.cls-1{fill:gray;}</style></defs><g id="Layer_2" data-name="Layer 2"><g id="Layer_1-2" data-name="Layer 1"><rect class="cls-1" width="2.74" height="2.76"/><rect class="cls-1" x="2.74" width="2.74" height="2.76"/><rect class="cls-1" x="5.47" width="2.74" height="2.76"/><rect class="cls-1" x="8.21" width="2.74" height="2.76"/><rect class="cls-1" x="10.95" width="2.74" height="2.76"/><rect class="cls-1" x="13.69" width="2.74" height="2.76"/><rect class="cls-1" x="16.42" width="2.74" height="2.76"/><rect class="cls-1" x="21.9" width="2.74" height="2.76"/><rect class="cls-1" x="24.63" width="2.74" height="2.76"/><rect class="cls-1" x="27.37" width="2.74" height="2.76"/><rect class="cls-1" x="30.11" width="2.74" height="2.76"/><rect class="cls-1" x="49.27" width="2.74" height="2.76"/><rect class="cls-1" x="52.01" width="2.74" height="2.76"/><rect class="cls-1" x="54.74" width="2.74" height="2.76"/><rect class="cls-1" x="57.48" width="2.74" height="2.76"/><rect class="cls-1" x="60.22" width="2.74" height="2.76"/><rect class="cls-1" x="62.95" width="2.74" height="2.76"/><rect class="cls-1" x="65.69" width="2.74" height="2.76"/><rect class="cls-1" y="2.76" width="2.74" height="2.76"/><rect class="cls-1" x="16.42" y="2.76" width="2.74" height="2.76"/><rect class="cls-1" x="30.11" y="2.76" width="2.74" height="2.76"/><rect class="cls-1" x="32.85" y="2.76" width="2.74" height="2.76"/><rect class="cls-1" x="35.58" y="2.76" width="2.74" height="2.76"/><rect class="cls-1" x="38.32" y="2.76" width="2.74" height="2.76"/><rect class="cls-1" x="43.79" y="2.76" width="2.74" height="2.76"/><rect class="cls-1" x="49.27" y="2.76" width="2.74" height="2.76"/><rect class="cls-1" x="65.69" y="2.76" width="2.74" height="2.76"/><rect class="cls-1" y="5.53" width="2.74" height="2.76"/><rect class="cls-1" x="5.47" y="5.53" width="2.74" height="2.76"/><rect class="cls-1" x="8.21" y="5.53" width="2.74" height="2.76"/><rect class="cls-1" x="10.95" y="5.53" width="2.74" height="2.76"/><rect class="cls-1" x="16.42" y="5.53" width="2.74" height="2.76"/><rect class="cls-1" x="24.63" y="5.53" width="2.74" height="2.76"/><rect class="cls-1" x="30.11" y="5.53" width="2.74" height="2.76"/><rect class="cls-1" x="35.58" y="5.53" width="2.74" height="2.76"/><rect class="cls-1" x="41.06" y="5.53" width="2.74" height="2.76"/><rect class="cls-1" x="43.79" y="5.53" width="2.74" height="2.76"/><rect class="cls-1" x="49.27" y="5.53" width="2.74" height="2.76"/><rect class="cls-1" x="54.74" y="5.53" width="2.74" height="2.76"/><rect class="cls-1" x="57.48" y="5.53" width="2.74" height="2.76"/><rect class="cls-1" x="60.22" y="5.53" width="2.74" height="2.76"/><rect class="cls-1" x="65.69" y="5.53" width="2.74" height="2.76"/><rect class="cls-1" y="8.29" width="2.74" height="2.76"/><rect class="cls-1" x="5.47" y="8.29" width="2.74" height="2.76"/><rect class="cls-1" x="8.21" y="8.29" width="2.74" height="2.76"/><rect class="cls-1" x="10.95" y="8.29" width="2.74" height="2.76"/><rect class="cls-1" x="16.42" y="8.29" width="2.74" height="2.76"/><rect class="cls-1" x="27.37" y="8.29" width="2.74" height="2.76"/><rect class="cls-1" x="30.11" y="8.29" width="2.74" height="2.76"/><rect class="cls-1" x="35.58" y="8.29" width="2.74" height="2.76"/><rect class="cls-1" x="41.06" y="8.29" width="2.74" height="2.76"/><rect class="cls-1" x="43.79" y="8.29" width="2.74" height="2.76"/><rect class="cls-1" x="49.27" y="8.29" width="2.74" height="2.76"/><rect class="cls-1" x="54.74" y="8.29" width="2.74" height="2.76"/><rect class="cls-1" x="57.48" y="8.29" width="2.74" height="2.76"/><rect class="cls-1" x="60.22" y="8.29" width="2.74" height="2.76"/><rect class="cls-1" x="65.69" y="8.29" width="2.74" height="2.76"/><rect class="cls-1" y="11.06" width="2.74" height="2.76"/><rect class="cls-1" x="5.47" y="11.06" width="2.74" height="2.76"/><rect class="cls-1" x="8.21" y="11.06" width="2.74" height="2.76"/><rect class="cls-1" x="10.95" y="11.06" width="2.74" height="2.76"/><rect class="cls-1" x="16.42" y="11.06" width="2.74" height="2.76"/><rect class="cls-1" x="27.37" y="11.06" width="2.74" height="2.76"/><rect class="cls-1" x="30.11" y="11.06" width="2.74" height="2.76"/><rect class="cls-1" x="32.85" y="11.06" width="2.74" height="2.76"/><rect class="cls-1" x="38.32" y="11.06" width="2.74" height="2.76"/><rect class="cls-1" x="43.79" y="11.06" width="2.74" height="2.76"/><rect class="cls-1" x="49.27" y="11.06" width="2.74" height="2.76"/><rect class="cls-1" x="54.74" y="11.06" width="2.74" height="2.76"/><rect class="cls-1" x="57.48" y="11.06" width="2.74" height="2.76"/><rect class="cls-1" x="60.22" y="11.06" width="2.74" height="2.76"/><rect class="cls-1" x="65.69" y="11.06" width="2.74" height="2.76"/><rect class="cls-1" y="13.82" width="2.74" height="2.76"/><rect class="cls-1" x="16.42" y="13.82" width="2.74" height="2.76"/><rect class="cls-1" x="24.63" y="13.82" width="2.74" height="2.76"/><rect class="cls-1" x="30.11" y="13.82" width="2.74" height="2.76"/><rect class="cls-1" x="38.32" y="13.82" width="2.74" height="2.76"/><rect class="cls-1" x="43.79" y="13.82" width="2.74" height="2.76"/><rect class="cls-1" x="49.27" y="13.82" width="2.74" height="2.76"/><rect class="cls-1" x="65.69" y="13.82" width="2.74" height="2.76"/><rect class="cls-1" y="16.58" width="2.74" height="2.76"/><rect class="cls-1" x="2.74" y="16.58" width="2.74" height="2.76"/><rect class="cls-1" x="5.47" y="16.58" width="2.74" height="2.76"/><rect class="cls-1" x="8.21" y="16.58" width="2.74" height="2.76"/><rect class="cls-1" x="10.95" y="16.58" width="2.74" height="2.76"/><rect class="cls-1" x="13.69" y="16.58" width="2.74" height="2.76"/><rect class="cls-1" x="16.42" y="16.58" width="2.74" height="2.76"/><rect class="cls-1" x="21.9" y="16.58" width="2.74" height="2.76"/><rect class="cls-1" x="27.37" y="16.58" width="2.74" height="2.76"/><rect class="cls-1" x="32.85" y="16.58" width="2.74" height="2.76"/><rect class="cls-1" x="38.32" y="16.58" width="2.74" height="2.76"/><rect class="cls-1" x="43.79" y="16.58" width="2.74" height="2.76"/><rect class="cls-1" x="49.27" y="16.58" width="2.74" height="2.76"/><rect class="cls-1" x="52.01" y="16.58" width="2.74" height="2.76"/><rect class="cls-1" x="54.74" y="16.58" width="2.74" height="2.76"/><rect class="cls-1" x="57.48" y="16.58" width="2.74" height="2.76"/><rect class="cls-1" x="60.22" y="16.58" width="2.74" height="2.76"/><rect class="cls-1" x="62.95" y="16.58" width="2.74" height="2.76"/><rect class="cls-1" x="65.69" y="16.58" width="2.74" height="2.76"/><rect class="cls-1" x="21.9" y="19.35" width="2.74" height="2.76"/><rect class="cls-1" x="24.63" y="19.35" width="2.74" height="2.76"/><rect class="cls-1" x="32.85" y="19.35" width="2.74" height="2.76"/><rect class="cls-1" x="35.58" y="19.35" width="2.74" height="2.76"/><rect class="cls-1" y="22.11" width="2.74" height="2.76"/><rect class="cls-1" x="2.74" y="22.11" width="2.74" height="2.76"/><rect class="cls-1" x="8.21" y="22.11" width="2.74" height="2.76"/><rect class="cls-1" x="10.95" y="22.11" width="2.74" height="2.76"/><rect class="cls-1" x="16.42" y="22.11" width="2.74" height="2.76"/><rect class="cls-1" x="24.63" y="22.11" width="2.74" height="2.76"/><rect class="cls-1" x="32.85" y="22.11" width="2.74" height="2.76"/><rect class="cls-1" x="38.32" y="22.11" width="2.74" height="2.76"/><rect class="cls-1" x="41.06" y="22.11" width="2.74" height="2.76"/><rect class="cls-1" x="49.27" y="22.11" width="2.74" height="2.76"/><rect class="cls-1" x="65.69" y="22.11" width="2.74" height="2.76"/><rect class="cls-1" y="24.87" width="2.74" height="2.76"/><rect class="cls-1" x="2.74" y="24.87" width="2.74" height="2.76"/><rect class="cls-1" x="5.47" y="24.87" width="2.74" height="2.76"/><rect class="cls-1" x="10.95" y="24.87" width="2.74" height="2.76"/><rect class="cls-1" x="13.69" y="24.87" width="2.74" height="2.76"/><rect class="cls-1" x="19.16" y="24.87" width="2.74" height="2.76"/><rect class="cls-1" x="27.37" y="24.87" width="2.74" height="2.76"/><rect class="cls-1" x="35.58" y="24.87" width="2.74" height="2.76"/><rect class="cls-1" x="38.32" y="24.87" width="2.74" height="2.76"/><rect class="cls-1" x="41.06" y="24.87" width="2.74" height="2.76"/><rect class="cls-1" x="46.53" y="24.87" width="2.74" height="2.76"/><rect class="cls-1" x="52.01" y="24.87" width="2.74" height="2.76"/><rect class="cls-1" x="54.74" y="24.87" width="2.74" height="2.76"/><rect class="cls-1" x="57.48" y="24.87" width="2.74" height="2.76"/><rect class="cls-1" x="60.22" y="24.87" width="2.74" height="2.76"/><rect class="cls-1" x="62.95" y="24.87" width="2.74" height="2.76"/><rect class="cls-1" y="27.64" width="2.74" height="2.76"/><rect class="cls-1" x="5.47" y="27.64" width="2.74" height="2.76"/><rect class="cls-1" x="10.95" y="27.64" width="2.74" height="2.76"/><rect class="cls-1" x="16.42" y="27.64" width="2.74" height="2.76"/><rect class="cls-1" x="19.16" y="27.64" width="2.74" height="2.76"/><rect class="cls-1" x="21.9" y="27.64" width="2.74" height="2.76"/><rect class="cls-1" x="24.63" y="27.64" width="2.74" height="2.76"/><rect class="cls-1" x="32.85" y="27.64" width="2.74" height="2.76"/><rect class="cls-1" x="41.06" y="27.64" width="2.74" height="2.76"/><rect class="cls-1" x="43.79" y="27.64" width="2.74" height="2.76"/><rect class="cls-1" x="49.27" y="27.64" width="2.74" height="2.76"/><rect class="cls-1" x="52.01" y="27.64" width="2.74" height="2.76"/><rect class="cls-1" x="57.48" y="27.64" width="2.74" height="2.76"/><rect class="cls-1" x="65.69" y="27.64" width="2.74" height="2.76"/><rect class="cls-1" y="30.4" width="2.74" height="2.76"/><rect class="cls-1" x="2.74" y="30.4" width="2.74" height="2.76"/><rect class="cls-1" x="19.16" y="30.4" width="2.74" height="2.76"/><rect class="cls-1" x="21.9" y="30.4" width="2.74" height="2.76"/><rect class="cls-1" x="41.06" y="30.4" width="2.74" height="2.76"/><rect class="cls-1" x="52.01" y="30.4" width="2.74" height="2.76"/><rect class="cls-1" x="57.48" y="30.4" width="2.74" height="2.76"/><rect class="cls-1" x="60.22" y="30.4" width="2.74" height="2.76"/><rect class="cls-1" x="62.95" y="30.4" width="2.74" height="2.76"/><rect class="cls-1" x="65.69" y="30.4" width="2.74" height="2.76"/><rect class="cls-1" x="5.47" y="33.17" width="2.74" height="2.76"/><rect class="cls-1" x="8.21" y="33.17" width="2.74" height="2.76"/><rect class="cls-1" x="16.42" y="33.17" width="2.74" height="2.76"/><rect class="cls-1" x="21.9" y="33.17" width="2.74" height="2.76"/><rect class="cls-1" x="24.63" y="33.17" width="2.74" height="2.76"/><rect class="cls-1" x="27.37" y="33.17" width="2.74" height="2.76"/><rect class="cls-1" x="38.32" y="33.17" width="2.74" height="2.76"/><rect class="cls-1" x="41.06" y="33.17" width="2.74" height="2.76"/><rect class="cls-1" x="49.27" y="33.17" width="2.74" height="2.76"/><rect class="cls-1" x="65.69" y="33.17" width="2.74" height="2.76"/><rect class="cls-1" y="35.93" width="2.74" height="2.76"/><rect class="cls-1" x="5.47" y="35.93" width="2.74" height="2.76"/><rect class="cls-1" x="8.21" y="35.93" width="2.74" height="2.76"/><rect class="cls-1" x="13.69" y="35.93" width="2.74" height="2.76"/><rect class="cls-1" x="19.16" y="35.93" width="2.74" height="2.76"/><rect class="cls-1" x="27.37" y="35.93" width="2.74" height="2.76"/><rect class="cls-1" x="32.85" y="35.93" width="2.74" height="2.76"/><rect class="cls-1" x="38.32" y="35.93" width="2.74" height="2.76"/><rect class="cls-1" x="41.06" y="35.93" width="2.74" height="2.76"/><rect class="cls-1" x="43.79" y="35.93" width="2.74" height="2.76"/><rect class="cls-1" x="46.53" y="35.93" width="2.74" height="2.76"/><rect class="cls-1" x="54.74" y="35.93" width="2.74" height="2.76"/><rect class="cls-1" x="62.95" y="35.93" width="2.74" height="2.76"/><rect class="cls-1" y="38.69" width="2.74" height="2.76"/><rect class="cls-1" x="2.74" y="38.69" width="2.74" height="2.76"/><rect class="cls-1" x="8.21" y="38.69" width="2.74" height="2.76"/><rect class="cls-1" x="10.95" y="38.69" width="2.74" height="2.76"/><rect class="cls-1" x="13.69" y="38.69" width="2.74" height="2.76"/><rect class="cls-1" x="16.42" y="38.69" width="2.74" height="2.76"/><rect class="cls-1" x="19.16" y="38.69" width="2.74" height="2.76"/><rect class="cls-1" x="24.63" y="38.69" width="2.74" height="2.76"/><rect class="cls-1" x="38.32" y="38.69" width="2.74" height="2.76"/><rect class="cls-1" x="41.06" y="38.69" width="2.74" height="2.76"/><rect class="cls-1" x="46.53" y="38.69" width="2.74" height="2.76"/><rect class="cls-1" x="49.27" y="38.69" width="2.74" height="2.76"/><rect class="cls-1" x="54.74" y="38.69" width="2.74" height="2.76"/><rect class="cls-1" x="57.48" y="38.69" width="2.74" height="2.76"/><rect class="cls-1" x="60.22" y="38.69" width="2.74" height="2.76"/><rect class="cls-1" x="62.95" y="38.69" width="2.74" height="2.76"/><rect class="cls-1" x="65.69" y="38.69" width="2.74" height="2.76"/><rect class="cls-1" y="41.46" width="2.74" height="2.76"/><rect class="cls-1" x="13.69" y="41.46" width="2.74" height="2.76"/><rect class="cls-1" x="19.16" y="41.46" width="2.74" height="2.76"/><rect class="cls-1" x="24.63" y="41.46" width="2.74" height="2.76"/><rect class="cls-1" x="32.85" y="41.46" width="2.74" height="2.76"/><rect class="cls-1" x="38.32" y="41.46" width="2.74" height="2.76"/><rect class="cls-1" x="43.79" y="41.46" width="2.74" height="2.76"/><rect class="cls-1" x="46.53" y="41.46" width="2.74" height="2.76"/><rect class="cls-1" x="52.01" y="41.46" width="2.74" height="2.76"/><rect class="cls-1" x="57.48" y="41.46" width="2.74" height="2.76"/><rect class="cls-1" x="60.22" y="41.46" width="2.74" height="2.76"/><rect class="cls-1" x="65.69" y="41.46" width="2.74" height="2.76"/><rect class="cls-1" y="44.22" width="2.74" height="2.76"/><rect class="cls-1" x="5.47" y="44.22" width="2.74" height="2.76"/><rect class="cls-1" x="8.21" y="44.22" width="2.74" height="2.76"/><rect class="cls-1" x="10.95" y="44.22" width="2.74" height="2.76"/><rect class="cls-1" x="16.42" y="44.22" width="2.74" height="2.76"/><rect class="cls-1" x="19.16" y="44.22" width="2.74" height="2.76"/><rect class="cls-1" x="27.37" y="44.22" width="2.74" height="2.76"/><rect class="cls-1" x="30.11" y="44.22" width="2.74" height="2.76"/><rect class="cls-1" x="32.85" y="44.22" width="2.74" height="2.76"/><rect class="cls-1" x="35.58" y="44.22" width="2.74" height="2.76"/><rect class="cls-1" x="41.06" y="44.22" width="2.74" height="2.76"/><rect class="cls-1" x="43.79" y="44.22" width="2.74" height="2.76"/><rect class="cls-1" x="46.53" y="44.22" width="2.74" height="2.76"/><rect class="cls-1" x="49.27" y="44.22" width="2.74" height="2.76"/><rect class="cls-1" x="52.01" y="44.22" width="2.74" height="2.76"/><rect class="cls-1" x="54.74" y="44.22" width="2.74" height="2.76"/><rect class="cls-1" x="60.22" y="44.22" width="2.74" height="2.76"/><rect class="cls-1" x="62.95" y="44.22" width="2.74" height="2.76"/><rect class="cls-1" x="21.9" y="46.99" width="2.74" height="2.76"/><rect class="cls-1" x="24.63" y="46.99" width="2.74" height="2.76"/><rect class="cls-1" x="30.11" y="46.99" width="2.74" height="2.76"/><rect class="cls-1" x="43.79" y="46.99" width="2.74" height="2.76"/><rect class="cls-1" x="54.74" y="46.99" width="2.74" height="2.76"/><rect class="cls-1" x="60.22" y="46.99" width="2.74" height="2.76"/><rect class="cls-1" x="62.95" y="46.99" width="2.74" height="2.76"/><rect class="cls-1" y="49.75" width="2.74" height="2.76"/><rect class="cls-1" x="2.74" y="49.75" width="2.74" height="2.76"/><rect class="cls-1" x="5.47" y="49.75" width="2.74" height="2.76"/><rect class="cls-1" x="8.21" y="49.75" width="2.74" height="2.76"/><rect class="cls-1" x="10.95" y="49.75" width="2.74" height="2.76"/><rect class="cls-1" x="13.69" y="49.75" width="2.74" height="2.76"/><rect class="cls-1" x="16.42" y="49.75" width="2.74" height="2.76"/><rect class="cls-1" x="27.37" y="49.75" width="2.74" height="2.76"/><rect class="cls-1" x="32.85" y="49.75" width="2.74" height="2.76"/><rect class="cls-1" x="38.32" y="49.75" width="2.74" height="2.76"/><rect class="cls-1" x="43.79" y="49.75" width="2.74" height="2.76"/><rect class="cls-1" x="49.27" y="49.75" width="2.74" height="2.76"/><rect class="cls-1" x="54.74" y="49.75" width="2.74" height="2.76"/><rect class="cls-1" x="65.69" y="49.75" width="2.74" height="2.76"/><rect class="cls-1" y="52.51" width="2.74" height="2.76"/><rect class="cls-1" x="16.42" y="52.51" width="2.74" height="2.76"/><rect class="cls-1" x="30.11" y="52.51" width="2.74" height="2.76"/><rect class="cls-1" x="35.58" y="52.51" width="2.74" height="2.76"/><rect class="cls-1" x="41.06" y="52.51" width="2.74" height="2.76"/><rect class="cls-1" x="43.79" y="52.51" width="2.74" height="2.76"/><rect class="cls-1" x="54.74" y="52.51" width="2.74" height="2.76"/><rect class="cls-1" x="65.69" y="52.51" width="2.74" height="2.76"/><rect class="cls-1" y="55.28" width="2.74" height="2.76"/><rect class="cls-1" x="5.47" y="55.28" width="2.74" height="2.76"/><rect class="cls-1" x="8.21" y="55.28" width="2.74" height="2.76"/><rect class="cls-1" x="10.95" y="55.28" width="2.74" height="2.76"/><rect class="cls-1" x="16.42" y="55.28" width="2.74" height="2.76"/><rect class="cls-1" x="21.9" y="55.28" width="2.74" height="2.76"/><rect class="cls-1" x="27.37" y="55.28" width="2.74" height="2.76"/><rect class="cls-1" x="30.11" y="55.28" width="2.74" height="2.76"/><rect class="cls-1" x="32.85" y="55.28" width="2.74" height="2.76"/><rect class="cls-1" x="38.32" y="55.28" width="2.74" height="2.76"/><rect class="cls-1" x="41.06" y="55.28" width="2.74" height="2.76"/><rect class="cls-1" x="43.79" y="55.28" width="2.74" height="2.76"/><rect class="cls-1" x="46.53" y="55.28" width="2.74" height="2.76"/><rect class="cls-1" x="49.27" y="55.28" width="2.74" height="2.76"/><rect class="cls-1" x="52.01" y="55.28" width="2.74" height="2.76"/><rect class="cls-1" x="54.74" y="55.28" width="2.74" height="2.76"/><rect class="cls-1" y="58.04" width="2.74" height="2.76"/><rect class="cls-1" x="5.47" y="58.04" width="2.74" height="2.76"/><rect class="cls-1" x="8.21" y="58.04" width="2.74" height="2.76"/><rect class="cls-1" x="10.95" y="58.04" width="2.74" height="2.76"/><rect class="cls-1" x="16.42" y="58.04" width="2.74" height="2.76"/><rect class="cls-1" x="21.9" y="58.04" width="2.74" height="2.76"/><rect class="cls-1" x="24.63" y="58.04" width="2.74" height="2.76"/><rect class="cls-1" x="32.85" y="58.04" width="2.74" height="2.76"/><rect class="cls-1" x="35.58" y="58.04" width="2.74" height="2.76"/><rect class="cls-1" x="38.32" y="58.04" width="2.74" height="2.76"/><rect class="cls-1" x="49.27" y="58.04" width="2.74" height="2.76"/><rect class="cls-1" x="62.95" y="58.04" width="2.74" height="2.76"/><rect class="cls-1" x="65.69" y="58.04" width="2.74" height="2.76"/><rect class="cls-1" y="60.8" width="2.74" height="2.76"/><rect class="cls-1" x="5.47" y="60.8" width="2.74" height="2.76"/><rect class="cls-1" x="8.21" y="60.8" width="2.74" height="2.76"/><rect class="cls-1" x="10.95" y="60.8" width="2.74" height="2.76"/><rect class="cls-1" x="16.42" y="60.8" width="2.74" height="2.76"/><rect class="cls-1" x="24.63" y="60.8" width="2.74" height="2.76"/><rect class="cls-1" x="30.11" y="60.8" width="2.74" height="2.76"/><rect class="cls-1" x="35.58" y="60.8" width="2.74" height="2.76"/><rect class="cls-1" x="41.06" y="60.8" width="2.74" height="2.76"/><rect class="cls-1" x="46.53" y="60.8" width="2.74" height="2.76"/><rect class="cls-1" x="54.74" y="60.8" width="2.74" height="2.76"/><rect class="cls-1" x="57.48" y="60.8" width="2.74" height="2.76"/><rect class="cls-1" x="60.22" y="60.8" width="2.74" height="2.76"/><rect class="cls-1" x="62.95" y="60.8" width="2.74" height="2.76"/><rect class="cls-1" x="65.69" y="60.8" width="2.74" height="2.76"/><rect class="cls-1" y="63.57" width="2.74" height="2.76"/><rect class="cls-1" x="16.42" y="63.57" width="2.74" height="2.76"/><rect class="cls-1" x="21.9" y="63.57" width="2.74" height="2.76"/><rect class="cls-1" x="27.37" y="63.57" width="2.74" height="2.76"/><rect class="cls-1" x="30.11" y="63.57" width="2.74" height="2.76"/><rect class="cls-1" x="38.32" y="63.57" width="2.74" height="2.76"/><rect class="cls-1" x="41.06" y="63.57" width="2.74" height="2.76"/><rect class="cls-1" x="52.01" y="63.57" width="2.74" height="2.76"/><rect class="cls-1" x="54.74" y="63.57" width="2.74" height="2.76"/><rect class="cls-1" x="60.22" y="63.57" width="2.74" height="2.76"/><rect class="cls-1" x="62.95" y="63.57" width="2.74" height="2.76"/><rect class="cls-1" x="65.69" y="63.57" width="2.74" height="2.76"/><rect class="cls-1" y="66.33" width="2.74" height="2.76"/><rect class="cls-1" x="2.74" y="66.33" width="2.74" height="2.76"/><rect class="cls-1" x="5.47" y="66.33" width="2.74" height="2.76"/><rect class="cls-1" x="8.21" y="66.33" width="2.74" height="2.76"/><rect class="cls-1" x="10.95" y="66.33" width="2.74" height="2.76"/><rect class="cls-1" x="13.69" y="66.33" width="2.74" height="2.76"/><rect class="cls-1" x="16.42" y="66.33" width="2.74" height="2.76"/><rect class="cls-1" x="21.9" y="66.33" width="2.74" height="2.76"/><rect class="cls-1" x="24.63" y="66.33" width="2.74" height="2.76"/><rect class="cls-1" x="27.37" y="66.33" width="2.74" height="2.76"/><rect class="cls-1" x="32.85" y="66.33" width="2.74" height="2.76"/><rect class="cls-1" x="43.79" y="66.33" width="2.74" height="2.76"/><rect class="cls-1" x="46.53" y="66.33" width="2.74" height="2.76"/><rect class="cls-1" x="57.48" y="66.33" width="2.74" height="2.76"/><rect class="cls-1" x="65.69" y="66.33" width="2.74" height="2.76"/></g></g></svg>