<svg xmlns="http://www.w3.org/2000/svg" xmlns:xlink="http://www.w3.org/1999/xlink" viewBox="0 0 142.18 41.5"><defs><style>.cls-1,.cls-2{fill:none;}.cls-2{stroke:gray;stroke-miterlimit:10;}.cls-3{clip-path:url(#clip-path);}.cls-4{fill:#fff;}.cls-5,.cls-6{fill:gray;}.cls-6{font-size:9.19px;font-family:GothamNarrow-Medium, GothamNarrow Medium;font-weight:500;}</style><clipPath id="clip-path"><polyline class="cls-1" points="132.3 36.18 132.3 4.21 9.2 4.21 9.2 36.18"/></clipPath></defs><g id="Layer_2" data-name="Layer 2"><g id="Layer_1-2" data-name="Layer 1"><path class="cls-2" d="M141.68,36.94A4.06,4.06,0,0,1,137.62,41H4.57A4.06,4.06,0,0,1,.5,36.94V4.57A4.07,4.07,0,0,1,4.57.5h133a4.07,4.07,0,0,1,4.07,4.06h0V36.94Z"/><g class="cls-3"><path class="cls-4" d="M25.3,10.25a3.06,3.06,0,0,1,.06.65c-.92.4-1.27.69-1.25,2v.83l-.63.13v-1c0-2,.76-2.32,1.82-2.69m1.83-.43a5.61,5.61,0,0,1,.09.63c1.65-.23,1.62.45,1.62,1.86v.53l.62-.13v-.4c0-2.2-.34-2.79-2.33-2.49m-6.49,4.66v-2.9c0-1.79.9-2.34,2.62-2.74C25.83,8.23,26,9.89,26,11v2.46l.63-.13V11c0-2-.63-3.5-3.5-2.85C21.58,8.51,20,8.9,20,11.52V14.6Zm7.55,7.61H23.34V18.58l4.85-.71Zm0,5-4.85-.71V22.57h4.85Zm-5.34-5H19V19.15l3.84-.54Zm0,4.22L19,25.77v-3.2h3.84Zm9.77-13.47L15.28,16.31V28.92l17.34,3.46,3.46-1.25v-17Z"/></g><path class="cls-5" d="M25.3,10.25a3.06,3.06,0,0,1,.06.65c-.92.4-1.27.69-1.25,2v.83l-.63.13v-1c0-2,.76-2.32,1.82-2.69m1.83-.43a5.61,5.61,0,0,1,.09.63c1.65-.23,1.62.45,1.62,1.86v.53l.62-.13v-.4c0-2.2-.34-2.79-2.33-2.49m-6.49,4.66v-2.9c0-1.79.9-2.34,2.62-2.74C25.83,8.23,26,9.89,26,11v2.46l.63-.13V11c0-2-.63-3.5-3.5-2.85C21.58,8.51,20,8.9,20,11.52V14.6Zm7.55,7.61H23.34V18.58l4.85-.71Zm0,5-4.85-.71V22.57h4.85Zm-5.34-5H19V19.15l3.84-.54Zm0,4.22L19,25.77v-3.2h3.84Zm9.77-13.47L15.28,16.31V28.92l17.34,3.46,3.46-1.25v-17Z"/><path class="cls-5" d="M54.34,20.63l-2.66,9.44h-1.3l-1.94-6.91a4,4,0,0,1-.14-.95h0a7.1,7.1,0,0,1-.18.94l-2,6.92H44.85l-2.76-9.44h1.22l2,7.24a5.43,5.43,0,0,1,.17.95h0a4.5,4.5,0,0,1,.2-.95l2.1-7.24h1.06l2,7.29a5.76,5.76,0,0,1,.15.88h0a5.43,5.43,0,0,1,.18-.9l1.93-7.27Zm2.15.48a.63.63,0,0,1-.22.5.66.66,0,0,1-.5.2.71.71,0,0,1-.5-.19.72.72,0,0,1,0-1,.67.67,0,0,1,.5-.21.66.66,0,0,1,.51.21.65.65,0,0,1,.21.49m-.19,9H55.22V23.33H56.3Zm7.23,0H62.45V26.22c0-1.42-.52-2.14-1.57-2.14a1.72,1.72,0,0,0-1.33.61A2.2,2.2,0,0,0,59,26.22v3.85H57.94V23.33H59v1.12h0a2.42,2.42,0,0,1,2.21-1.29,2,2,0,0,1,1.7.73,3.17,3.17,0,0,1,.58,2.05Zm7.49,0H69.94V28.92h0a2.71,2.71,0,0,1-4.36.39,3.73,3.73,0,0,1-.75-2.45,4.06,4.06,0,0,1,.84-2.68,2.76,2.76,0,0,1,2.24-1,2.18,2.18,0,0,1,2,1.1h0V20.09H71ZM69.94,27V26a1.94,1.94,0,0,0-3.45-1.22,3,3,0,0,0-.58,2,2.86,2.86,0,0,0,.54,1.84,1.77,1.77,0,0,0,1.46.67,1.84,1.84,0,0,0,1.46-.65A2.36,2.36,0,0,0,69.94,27m9-.35a3.61,3.61,0,0,1-.91,2.58,3.16,3.16,0,0,1-2.45,1,3.12,3.12,0,0,1-2.38-.95,3.48,3.48,0,0,1-.89-2.5,3.71,3.71,0,0,1,.91-2.65,3.32,3.32,0,0,1,2.52-1,3,3,0,0,1,2.35.94A3.67,3.67,0,0,1,79,26.67m-1.11,0a3,3,0,0,0-.56-1.95,2,2,0,0,0-1.61-.68,2.07,2.07,0,0,0-1.64.7,2.84,2.84,0,0,0-.61,2,2.75,2.75,0,0,0,.61,1.89,2.1,2.1,0,0,0,1.64.68,2,2,0,0,0,1.61-.67,2.9,2.9,0,0,0,.56-1.93m10.94-3.38-2,6.74H85.68l-1.39-4.83a2.9,2.9,0,0,1-.11-.62h0a3.36,3.36,0,0,1-.14.61l-1.51,4.84H81.43l-2-6.74h1.13l1.39,5.07A4.26,4.26,0,0,1,82,29h0a2.64,2.64,0,0,1,.13-.62l1.55-5.05h1l1.4,5.08a3.12,3.12,0,0,1,.1.6h0a2.35,2.35,0,0,1,.1-.6l1.38-5.08Zm4.6,4.93a1.76,1.76,0,0,1-.68,1.43,2.79,2.79,0,0,1-1.79.54,3.21,3.21,0,0,1-1.67-.41V28.66a2.66,2.66,0,0,0,1.75.65c.85,0,1.28-.31,1.28-.94a.8.8,0,0,0-.25-.62,4.83,4.83,0,0,0-1.14-.65,3.38,3.38,0,0,1-1.26-.82,1.72,1.72,0,0,1-.37-1.16,1.75,1.75,0,0,1,.67-1.4,2.6,2.6,0,0,1,1.7-.56,3.25,3.25,0,0,1,1.45.32v1.08a2.6,2.6,0,0,0-1.53-.48,1.3,1.3,0,0,0-.86.27.82.82,0,0,0-.33.68.93.93,0,0,0,.25.68,3.9,3.9,0,0,0,1,.57,3.69,3.69,0,0,1,1.35.86,1.64,1.64,0,0,1,.39,1.12"/><path class="cls-5" d="M103,27.69a2.26,2.26,0,0,1-.84,1.86,3.51,3.51,0,0,1-2.29.68,5,5,0,0,1-1.19-.17,3.29,3.29,0,0,1-.94-.37V28.38a3.08,3.08,0,0,0,1.06.61,3.56,3.56,0,0,0,1.22.24c1.21,0,1.82-.47,1.82-1.41a1.44,1.44,0,0,0-.39-1,7.62,7.62,0,0,0-1.6-1.12,5.43,5.43,0,0,1-1.63-1.25A2.24,2.24,0,0,1,97.77,23a2.27,2.27,0,0,1,.84-1.82,3.24,3.24,0,0,1,2.16-.7,3.82,3.82,0,0,1,1.86.34V22a3,3,0,0,0-1.92-.57,2,2,0,0,0-1.28.39,1.25,1.25,0,0,0-.5,1,1.58,1.58,0,0,0,.15.75,1.82,1.82,0,0,0,.5.56,9.25,9.25,0,0,0,1.19.75,6.05,6.05,0,0,1,1.75,1.31,2.24,2.24,0,0,1,.5,1.43M107.48,30a2,2,0,0,1-1,.22c-1.18,0-1.77-.66-1.77-2v-4h-1.15v-.91h1.15V21.68l1.08-.35v2h1.7v.91h-1.7v3.81a1.57,1.57,0,0,0,.23,1,1,1,0,0,0,.77.29,1.12,1.12,0,0,0,.7-.22Zm7.44-3.33a3.61,3.61,0,0,1-.91,2.58,3.15,3.15,0,0,1-2.44,1,3.09,3.09,0,0,1-2.39-.95,3.52,3.52,0,0,1-.89-2.5,3.67,3.67,0,0,1,.91-2.64,3.29,3.29,0,0,1,2.52-1,3,3,0,0,1,2.35.94,3.67,3.67,0,0,1,.85,2.57m-1.1,0a3,3,0,0,0-.57-1.95,2,2,0,0,0-1.6-.68,2.08,2.08,0,0,0-1.65.7,2.91,2.91,0,0,0-.61,2,2.75,2.75,0,0,0,.61,1.89,2.13,2.13,0,0,0,1.65.68,2,2,0,0,0,1.61-.67,3,3,0,0,0,.56-1.93m5.75-2.29a1.38,1.38,0,0,0-.82-.22,1.36,1.36,0,0,0-1.17.68,3.09,3.09,0,0,0-.44,1.75v3.44h-1.08V23.33h1.08v1.39h0a2.4,2.4,0,0,1,.69-1.11,1.63,1.63,0,0,1,1.07-.4,1.8,1.8,0,0,1,.65.09Zm6.5,2.55h-4.76a2.49,2.49,0,0,0,.61,1.74,2.09,2.09,0,0,0,1.59.6,3.26,3.26,0,0,0,2.09-.74v1a3.82,3.82,0,0,1-2.34.65A2.83,2.83,0,0,1,121,29.3a3.79,3.79,0,0,1-.81-2.57,4.1,4.1,0,0,1,.41-1.83,3,3,0,0,1,1.12-1.28,2.8,2.8,0,0,1,1.57-.46,2.56,2.56,0,0,1,2,.86,3.51,3.51,0,0,1,.73,2.38Zm-1.1-.92a2.26,2.26,0,0,0-.45-1.45,1.57,1.57,0,0,0-1.24-.52,1.72,1.72,0,0,0-1.28.54,2.49,2.49,0,0,0-.67,1.43Z"/><polyline class="cls-1" points="132.3 36.18 132.3 4.21 9.2 4.21 9.2 36.18"/><text class="cls-6" transform="translate(41.23 16.95)">Download from</text></g></g></svg>